<mxfile host="Electron" modified="2024-01-02T04:20:31.536Z" agent="Mozilla/5.0 (Windows NT 10.0; Win64; x64) AppleWebKit/537.36 (KHTML, like Gecko) draw.io/22.1.11 Chrome/114.0.5735.289 Electron/25.9.8 Safari/537.36" etag="iPpv28zEhv5TQ2e21mjs" version="22.1.11" type="device">
  <diagram name="Page-1" id="iNTOY-CHnm6cBba_yAaC">
    <mxGraphModel dx="2518" dy="974" grid="1" gridSize="10" guides="1" tooltips="1" connect="1" arrows="1" fold="1" page="1" pageScale="1" pageWidth="850" pageHeight="1100" math="0" shadow="0">
      <root>
        <mxCell id="0" />
        <mxCell id="1" parent="0" />
        <mxCell id="pWcUt39RzA9FzfWdkDk0-1" value="" style="shape=image;verticalLabelPosition=bottom;labelBackgroundColor=default;verticalAlign=top;aspect=fixed;imageAspect=0;image=data:image/png,iVBORw0KGgoAAAANSUhEUgAABTEAAAJ8CAYAAAAmkuXFAAAAAXNSR0IArs4c6QAAAARnQU1BAACxjwv8YQUAAAAJcEhZcwAADsMAAA7DAcdvqGQAAP+lSURBVHhe7N0HQFZl2wfwPxsBGSJDUcEZbtyDTFxhmjnL1Eqbpg1bX3u/7bdlu94yrUybaqVp5iDDmYrbnCCiDBGQ4cP+znUGPCAg42H/f993v+ec+5znjKfO6TkX133fVt9883X+mGvHg8rP2soK1tbWSrGClTIvhYiovEyZWfocEREREVHjIe/Q1lZ8lyaiyrHWp1QO8qC1s7WFvb0dbG1t1EAmH7pEREREREREpZN3Z3mXtrPluzQRVR6DmOVkY2OjPnRtbPiVEREREREREZWH9i5to75LM25JRFXBiFw52OoPXf6liIiIiIiIiKh8+C5NRJbEIOZlyF+NJN2diIiIiIiIiMpHMi/5Lk1ElsQgZhmkD0xbNh8nIiIiIiIiKjfp81KyMImILIkRujLYWDPtnYiIiIiIiKgibDhwDxFVAwYxSyFZmBzEh4iIiIiIiKj85F1aMjGJiCyNT5ZSWFvxqyEiIiIiIiKqCHmXZhImEVUHRupKYWXNpy4RERERERFRRUgmJhFRdWAQsxTW/NMRERERERERUYWwL0wiqi4MYpaCD14iIiIiIiKiiuG7NBFVF6tvvvk6f8y14/XFyrG1sYG9vR1sbW3UUchqS25eHnJycpGVlY2c3Fy9tnIcHez1OSIiyzJlZulzREREREQNC9+liai6VDni6NTEEU1dnOBgb1erAUwhx5fzkPOR8yIiIiIiIiIiIqL6r0pRRxfnJmrQsC6S85LzIyIiIiIiIiIiovqt0kFMyXS0s7XVl+omOT9mZBIREREREREREdVvlQpiSh+YdTUDszg5TzlfIiIiIiIiIiIiqp8qFcSUQXzqk/p2vkRERERERERERFSocpmYtvUrs7G+nS8REREREREREREVqlQQs7ZHIa+o+na+REREREREREREVIjRPSIiIiIiIiIiIqrTrL755uv8MdeO1xfLx8OtqT5XfySlpOpz5ePoYK/PVY4pORmZ+nxpHNzd0WjGTk+Lw+GDhxB7Ufn3JyAIV/iXcO05yTi8KwJRSSa4BwzEgCvc9RVEDYspM0ufs4y//96Epd9+WzAv2rTxR/CVV2La9BnKfBu1jizBhJQUebo7wM2tlp/gphSop2LrBjdnrYqIiIiotlX1Xbq2mZIj8e+eSCShCXwDeyLQp4K/+UzJSDEpU1t3uLloVZZixBkcXJT3aVutrmZEYuOr72KF3yy8ektQ44ljUJ1jnXQ+SZ8lS1pxjy9atCir3I0VMfrGlRaJNe+8i/nvLMS2ZL2qzjFhz0c3oouXP3oPHY0xo0djUKAvOve9Gwv/lSe7IQ4rZvdUt5k4YQKGhb6GjWn6KiIq1XXXjsW9c+dg8JVXquWX31ap5dHHH9fXj1HXnzp1Sl2urJQdX+HD997Hh6uj9BpLicJa2e97X2FHil5Vl535Fff7t0Zb//exQ6+qLfG/3aOch3IuH27Xa4iIiIgalq+//hovv/QS/vrrL71GI3WdA69Qi8xHRVngN2riNsyfEYhmLQIxSHlvHTN6KHoHuKPt6Mfx3YHyv3DH/XK39s7//ja9xlKUd2Y9zjB/l15VU3Ytx9wXP8Gns9/Fmji9jqgWsDl5NXH3C0HICL109dEqfQIL60YEwL3KfzmJQ8STj+OJJ1cjMl2vqmNS1jyOCQ8vRyQCMP7B1/DqK49j1lAfxB1YiLmhzxcGKo//jk+/VZ6GPjfineWrseznuxFi4b9aETUkEpRs5u6qZltG7N2P6dNnqEWyLqVceeUQPPb4E+o6UdVAZmbUH3jm2afwzF5L/2qJw17Z77N/IKqOPseIiIiIqOaNDr0as++6U/kNG6VOJVgpZLpp01/49LP/qUXmv/n6a3VdpcUsx9yhQ/HEz5Hqe/tUeXd94m6EKu/ycWHv4ta+4/H6dvMknEam9yx8+dbjeOyLBxCqhzeIaoN1QkK8PmtZyakmtVjaa+99iRvvfBxfLvkFsfHn9Nq6J/SN1Vj1m1a+fHSQVhn8BL7U61b99lqRm1/SwlOSy/i+0mR9Mir8jeaY1M+lWDirUTvfy5/P4V2fQEIePV9ZiiWvPIB5Dz6Pj1aH4csHH8BH792IzkYeemIsNso0+BpMCA1BaO8AtbqAcR2V+FeqvOdKVJ9IUFKClFIu54OPPlaDnW+89mqVMzLLkpmSgpSybtJ0WZ9y2a42LiH3v+y7vgU5pbm3nPflHj7qdqVvdNnvlYiIiKiBkcxKKRkXTWqg8tDhf/HNN19rmZkvv6TWXXXVVWp58qmn1brKS8aaN+Zh4XHAZ/on2LU/Al/Ku+uz72LZP3uw4dkByjbb8ML972JPjvaJSpOm5uV5r9Xff6vyC9Cy78HuGDD3eTw3vYSm5FV4VyeqKOvTp6vcpvkSe4/E4/0l2zF/8RaLBTJj487h/idew8o/whBzNhYLFv+MVX/+ra+tvyJ/eRwTuzmimdrEXEtVX2GeCZ8WgU9nBMLJS0sbbxYQhFs/ioBp+2twajIUL6gbLcetHRyV5RvxnfGPMycSK56cgC5N3bVUdi9HdJnxLrYlyso4fDdDth+I+XvUrVXbXvVX6pT6JzcWPuj2vItBUjdhISKVRdO/3+GJ0f76+cr5jMYT3x++7IMxNiEWhS1FAzD1ldcw67og+NjKcZX9D31eW/XzTLSV4834Tg1+XnIdHv4Y8+hyRBr/8Yj5DtNk+yavKde2DfNnBqGt/tnKnitRXff6a6+q0/IEMA2yrQQwjT4zyy8OP85yReAdv2iLr4xUM0CbvVHYhDnqt6cwtbcrWqjNrL0ROO4p/GoeK03fg89ndUczP1nfGi2u6Ie7Pt2DzB3/VfY1Ei+rG/2Cu7oo+3W/CT+eUSuU+z8Kvz47Bb2ae2vNpv1c0WvW+9ihP8fkvJq5D8GH+9StVTve6Kid37NhhcHSfe8jROqu/wpHNzyFQJkf8j726qtVpjC8fMWl+7s8k3JM7TsJvPsHRMmzKf1f/PjkOAT6atfb1rcjJjz5A44YQVj1upVj3f0Vfn3b2M4bzXrfW+R7S9n6Pmaafa/Net+ED7eW0OY+JxlRu6PMnrFERERE9ZtkVkqA0pyx7O/vr04Nsly8rkJi1mDhZ/IGORrPPTkLgUVaBLpjwBOLsGV1BM5ufBw9bbfhdfX9s4TyarHm49lJiNwVqf1GS1be6+Vd1UN7N9Xea7/DYSPZyHivDXgN3/18d8H7r7zDlpUBKnGBYernZuE7PY6QsusT3Nq3lPdgZXv1fXv28sLfjgXv1KPVQK4mGWvmSZ0/XghTPmn+3q1vcdl3daJqYN2rVy991nL+3h0NKytrtcz/RgKZF/U1lXM2LgH3PPoS/tm9F7k52UrJUqeff/U9Vq4t2jdGfZKy8gEMm/ou1qRp6eqP3TUaTcLexbShjxc0s97z5d148OdI+HS9EfMevBGBOIzv3ngei044I2TEAGj5ij4IHGreRF36lxyKae+sRqTehH1AeyDy58cxrM8DWJPog5DxE5TtIrD0rwj5gGIbNn6qNxP9diO26s/JPX8thcQ5QyeFICBxNZ4InYn5YUDgDQ/g1QcnICBuI+bPnIX5pTxYe4Y+D/m7Vdw7ExDUdwIefHEhVmw/jBSzB5ujm3Lu/fXMS6PJvZ+bsqA8OB/WruOiXP8rj2N2aBNsfP9GDHvWLNCq+h2PTxqqPpzVq6jEuRLVJ5JZWVE3Tp+OzX9X/I8/bi2H4qrOeup4u/64apiy7OagLqasfgShN72PtelXYMr9L+Ph269Gk03vY+aop/CXHrTbu+hePLo8Ct6dr8c991+PTvgXP779H3wd6azsqz+0n5w+6DRE2e8wf7jZyHIcfr13JGa+9weifK5Qj9mvHRC1/CmEDn4Ea5Xn2FXXXqdstwc/bDL+GrMdf32hP8e++wvb9Ft976bv1YDlqAlD0XHYXXh6lLKw7z38uqnwWZCy8Ve8JR8ddSeu7a7VXZ4JO96+Hje/sh3e17yM79+6Hv62KVj77LW46yPl4SPX++J9GNcuDn99dDvu+nB70SzUpfdi5qexCFSurZN8vSe+wsyHv4L6+3Pf+7hh9FP49YQ/Rt3+f3h45lB4n/gFz4y+pzDIa3hjCnrNL7ZvIiIionqsjb+/2g+meV+XkoUpwcqbbrpZbV4u62QbmZe6Sos6hBUyHT8NIcp786UC0HNoILQxHR3gXtBFnFKUeqOB5QA3eYc18+oEdHlrG0ymCLw+fiAelHfV9gPUzwX6xCnvtTPRe+y76vt2gbjnceuMjfBRtpF3eCjvsC/c8Bo2lvAKKwHMSTc8j20+o/Hqik8wVflRbdr1GiYEP4DvDsQhoL9+fup7cBCueV959+8/DHfLCX+lvPPr3XzGhS/Trh8bsSJcUpcUyVux+jNl6nMrhg4oaRifiryrE1mOxfvETEnLxIX0bFhbWxeUhSsiKh3I3LXnACbMuAenz5xBbm6OUiSIKdMs5GRn4ZeVa5Gfn69vXZ9EYOF/pKl1kPLA0dLVn5u/HD/PD1GeIu9ivvTFoTClaUHGgXMfx3OvLMSuiFicPbYcs2+8D6t+ewMz1bWD8NgXZk3U9yzBa3r/kl+GRajN1zfsP4wvpysr4z7B899GwCd4ImRM+j2LN2oPze0b8InykYD2Aco2XyJMffuPwMbFcvzRGB+s1HsqD8edyv7Cw7Br0WvKg2qpdr7Kdp+EHZa9XMKx9+NYvu41TJW+RA6sxqev3o1pQ4PQIqhwYJ+ec5Vz/+8sdb6gyf0bo+GzZyGel7+I9XwNy/9ZiFcffB7vLF+Od0Yop/jOu1ha8FcisQ3ouwhbTicjY/FU+FTiXInqC8nENLIwZWCfoB7d1HlR1rL0lVnxTEwfjHrlV3z2sPw5QnHjK1i+7Fcsn91TWdiDb17+DPHoif/8uAOfvXgfnnrrR3z31lDlJn0fHy7XfnRmpmk/zQbc/SiefvELbN0ejZMHfsQd189V9vUKbtLW4pFPlf0uexmj5Dm273u8tVSeY9fjs7U71GOu2bUPn90oz7HP8PJ3e+A9eDzGKZvuXfKXllW5Iwz/Uz7i3075BRf3FTbtkGfMHmxaIse/GuMGSbjUH+Nm3qJM4/DW8r/0v0Cn4K9f5VcacPPM8WpQNWq1DDZkXooPPGRC1I/34OYXwxDf7xl8/fl96KGOEO6GUS//g62/bsKaLV/gP/e/jEVL34TkDez9Igz/yiYFriu4tq2/fwCJrWLtXhyR43S/D7/s/RPLt+9Qvs9n8NT8H/D+bNngF/yxPQ6Z+77Cy4v0v4OPegbLXxkHb22JiIiIqN67+eab1cxLo19MGcDHaD7+1NNPq8FMWSdlyBCtrrLiTuvvhzZAE22uDEGYLe+ralmO54a6qUk0PtMX4cu5gTAp77AvLNiibRr6vPJeOx6O65Q6acTU/3ls2BqmfnbX/jA811+p2/44Fq40HzQoCI+ti8AGZZsNW1djnvwujluNPUV/RMJ07DvMueF5bIwbgOe+X4p5PSXQmIywRc+rmZIDnlXeg8OUc1wdgUNhWmLRtkcXYk3yAITMlp1+gtXhctw4bFyxXLmAAAQo1Wt+3qi2wEwJV97dlanPLSEYWFIMs0Lv6kSWYy2d5FrS/uOJehamlTpV/kcNbC5cvhsnYyo2EvqnC5firnlPI0eyL7OzkaMUmWZnZyLr4kXY2jviTFI2vlq2Qf9EPRLzL7aq7/UReEJ5Khgp6L3nqT1DYk1YhPowDOxxt/qXnRX3BKFZk0AMe+wTbDxe9t814v7dqgUmb5uj/jVGE4Dx06epc3siIhHnF4IJk2RhNXYrD5g94cuV44Xg0fkvYLwyt3Czsoc9G7FUdjRpGq7R/yKVGXsYexY9jjHXjlbLQ4u1YGtcxL/q+ZbEbfAD+PKfKJyPjMCqRa+pA/vguAzsU/JflAwF17Hnca1Ju1qC8OA6qVyNsD3mR3wAz708FT09C5+wlTlXovpAgpFG35baQD4FN3qZy+b1FnHmCLarTa/34Jkh0hRbKwMfDlNXr920B9Lrcqced6kBtl/n9UML9+4IffIz/HWi7OdY/L/btMDkzNmY0katUvhj3NQb1Lm9e6MQ3/IqjJOk8n1/YO8JpW7LL8rxhuLht57FOOUu/3qLsod9f+EHOccJU3F1O/WjcBt5C56SbMsvfsFf0jT9xAp8s1iZ+vwfJo/U/oIev1cGGzIvxQce+i/uuuMH9fruePgu9FMDmLrMWPy7+2s8O3EcJkh57HstuzJuD46YZ1FeOx79jGtrFwj5HQvEFvT9mRJ1GGvnX6/tY+L1+PAv+a8B8OORKKT8+wfWHFEXgX5DcVXLkn5dEhEREdVfxsA98htWpqvX/KGv0dZJP5nSZ2ZVApjCJyBIm0m5iIqkXkV+fzdufHGbGpxcOn+q2koy5d/V+N3ImRkwDCF+jji89xN1cfzsGzHAaKruMgBTZ0qSDbD8oJ79qBqN0YP133UunREULDMRMBVrcvP67TPxnbzU3vUE7u5v/A78FxHq3+Un4O7pAwr6rnTsfyNmjpC5ZYhQfjMPGDFHjTF8Gq7sN3ELwn5WFqa/i48kuLlmNbbFJGPrH3LOPrj72pBL+8BUVOxdnchyrC9erFpT7+IkeKllYNqoUxt9eiE9CwtX7MKG7ZcPyf+zex/uvP9JfPLFYjX7Mk8yMNVAZhayMi8i62IGmrcMUF6MB8PTtw02bDuMwycs37dnzRiN2a/IqN3FytAW6sPCbey7iFj3LmaPlTT1SGz76nlMC30ca9Q+4arCB6OnSvbjRny/7jts/C4CGHEjpIl6aKjyUPp0A+av15qSjx8foj7kJPA4q++NeOKzLYitRD8XjtJU/IYH8NGPi/S/KL2GbUU6pStF6N2Xfj9KGdpKa86qcYfy3CxUxXMlqstk5HEjo1IG7fnlt5XqvChrWT4jn7W8q3HHiy/jP8XLEF/IXeo2+k1sW/0m7rjmCngjCjsW/wczxz2NtRZ4jo2aIlmVYfhxww/Y9IPyxBp2PYYM649Ro4D4L8Lw4QatKfm4a68qzFR07I8pd1+tzHyFb1ZHYe9v/8NaZanHPdfhKv050u+eaJyMMi8fYlxLbV1xn7/8HnYUBDij8M0d/TDz2c+wLVavKo1t6X/tz9z0H1w17l58uDiyxB/Tbtd8jjUv69mxRERERA2QNB9f/M3X6oA+knFpjE4u9UZ2phRZJ3XmTc8rpFMQ1AYv6z7BCjUyV0zaNsyf9xq+2x5X0ExamnLfOnMp4qT141ePFwQn3cYsxIY39IF9K6WkkGEZPnse724uOzngEv1H4wFpVPXOaqxYsxoLldl5I0IwcPCtyq/r5Vj+80K9KfkchGh/ZS9dud7ViSzHeuCgqtxgl4qJT9cCmXomppGRqdVZY+OOSCxY9g9Onj6vf6LQipVrcfs9j+K2uY9g245dyM3JVJuMZ2ddRFZmBjJNaXBr5oPuA0fBr20X/VOac+dT9bl6wu8KDJQHB2Lh3nsW5j0oI3c/gNnB7nDsMhqzpg+Amg+UHImtqQPx/I8ROJkUiyVzlbq4T7A0rNhfNswCdT5XDIS66wUfF3TuC0RixbdL1LmeQQFqUNItWDmOMt04byaeUB7WIdLvpfJ/IddJk/bn8cST0pR8AiYEqyFMxO1cjTUy88T32LVaS6H/aGagug7dtH0WFYeN7zyAiX0Dcev35n9dMiifUPvwLFnBdcS6o+et2vcz78G7MdDTEYFjZmFWf3d1u5JU/FyJ6o/WbdoguhKjjC/99lv1s1Vi/keBlp3QX+0/Mg5uvW7BPfffp5Y7BrnBofPVuGlqf+05lhKF7akD8NSSHTgcG41F8isx7jP8sKn055j3FQPQQ2YWfYofCy41Cr9+970616OHvxqUdBt0NaQHpL8evh3P7AOumjAU/sr/DblWmrT/B888K79Er8O4wUXvev8JyrkqVWs/eRgvS/BTArHXqk8cjbMb3NyKlqI/xfrjqbVHseZJ5Zfdvv/i5tf1gYTObMdaiYji//D1Fmker5S3bkEnqVKeaP6lBEKL27vlv2qW57hPf8Ma2ceyH/CQ2t5cqWvnDwdnx3I0dyIiIiKqnyQwKQHMK4doo49L83HJuDSvl8xMKbJe6ox+MivMPQSzXpQ/DkfgifsfwArzlo/Jh7Fw3g144rPncesrvytv74oorSn3NkhTbq0vSoOjy6W/0aR1pVjx6VJsMwbySduG7xZprTAndNHHh6gAaS5+Um0mHoHXpz+vj6lxBYLukulyfPLtNrOA61IsUjMkJyJIbZkUhJCpkn36Lm69XUKYDyA02BGOA0Jwo7K04tHHtabks4epzdBLUpV3daKqsHifmBKo1LIwtQzMS6fWiDqTrAYype+0OY/9F9dOvQtd+4/Ak8+/ii3bdyAnSwKXJmRlKsWUjmZerdCuSz/0vmo8OnQfBIcmRYYLU/17svhIB3VdEG589Eb4yENndE/0Hi1Nnoei99C78eCEULwmI4DlyLpATJwwEIOk/rFZeOEn+awPAlvJC7kPfEJleTken6x8fqjy8JInVc9ZeP4uZX3cUtwaGIhh147GsG6BuFXtJ/NuPD9dT5f3DEGoJDGpghDaR3t4Bgy9EVpiu2LSRIT4abOOzr7azIJX8cQ77+KFeRMw5p7VWl2JfODhcBgRByLx3Uzl2tRrHI3e3UZjvsQu+s/B6KKx6KJ6TsPj0o/nntcwJihIaxY+NAjDZj+AidIU3fgPQAkqfq5E9Yf0h7nk28UFo5SXR2VGNDfn5iNZlIo3bkfoxJGYuVh+IPbE9Q9fr9TvwVvj+mLgOGn2PBIDR92LR6+/Fm/KwDk5yrpru2Pq9UMQIvVP3Y6Xl8uOfHCFn/4cU4Nzv+DpqcrnR/0Hf8lzrPsteOp2eY79gLt6dFeOOQ6hvbvjLrWfzLvw1FQ94Og5FCNnaLNyPqN6a78i/Ydcr/ZDqZowHlcVDx46D8X19yj72PcH1kpz8xm3YJze3Lx8QnFVPx/0u+cVPNUPiH/vDty3XDk3ZzflisRXePPJ9/HhK49g6pR71UzPinBw0a7v18//i5ffex/P3DEEd71XLOhLRERE1ABJxqUELSVAKX1jSoBSApXF62VeivSTKXUyL6OaV5wjes6Zj1fHKr/itn+Cad3c0WWo9n7epUUQ5sp7dPtZWDJ/FgJwGJ/eojfl9klB2IvKe6befdmYj7TxLIpzGzsLr6r9Xz6vvJdr77W9uw3V+8l8DbPGVjzgN3rEAPj0fwCvPTtA+b38Lm6dJ93DuSP0tte0/i9fHIrOfZVzGh2EzkP1fjLfmIVQ/VA9h9+oBSHFXSHoJQmgjgMR+qBWJb/R71aOUaoqvKsTVYXFg5hQMy/1Iv9ntqz8jz6vZ2jaNYVHi67oNuA6DBszE/2uGo8uQcrN1msIrrx6GoJHTcOIibPRpU8IWrS5Ak2cmmr7KS4/H57uTfWF+sNn0kJs+O4BhLaPw+Gwjdi4bhsi24/GvB/D8OoI5SliG4THvluKeaEBiNy+EJ9+tlp5ZAZi1qdrME9N6w7AjU8+jxB5zz+gfD5qObbtkrd/5eH1VhiWPDha2SIS29ZtxLbjytaTXsOGne8i1FM+K9wRojxQVT1vRIjxFGsfhFB9vqApucJt7ANYdp+yHLca8598HK+vMGHms9pflUojg/ZsWP48pnaFfo0bcTjOB4E3KOfy8+NQ+x8ulQ/Gf6pfR9xh9bMbt0ciIFQ5j7DXEHJpLLtAZc6VqD755bdVaiCzPCSAKduaNzOvKIcht+C/MyRAGIUdG7Zjr1IkjOk94Qus+eY+jGoXhyObwvCX1Le7Gvcs/RP/GSbPsZ54ePE3uGeUP6J2fIXPv/gDR3AFbv7wN9zbT/bsj+sffQZXKQ+a+EPK50/9gh0R8hxzw6jX/8Si+69WtpBjhmHHCcmgfBlrNr+JUQXPMTdcdY3+15juN2CIMbJ4u54Ypc8XaUpupseU+9WBgeRZ8/CNV2tZoxXl3B/3vvIM+ik/G3987En8mCLXfp9yPXFY+9FTeOaNFci86RncoW9eXj1mfoA3Jijft/KdvfXsU/hw1wDc+aiMxk5ERETUsL388ktqn5cGGYFcgpbF64ubcdPNatPzSnEJwryl27HqrbuV93Mo79/6+7nyRh364CLs+vsTjFf/Vp6CZAk+CuMd1SgpxTquLKDse8VWvHODjBSufUbeiUPuU/a78oHCYGKFOWLAfW+oAwTFfTsPj0vrx54PYHn4u/rAuso5hR1GnE8I5i2KwO/36clMomcIbtQPPPvqgfrvYEf0CtbfmS/blLzy7+pEVWGl3OT5Y66VcarLz8Ot9IDhsg1ROBWbivz8XOTm5inTPOTm5SI/79JpnjLNKz5Vts/L1aeXrC9aZ27CyH6YMEp9Iy5RUkrFmps7OtjrczXDlJyMTOWh4eZeSlQvLRkpOYCDu3sJvWSYkJJsgoOLsq548+wcZV2aCbB1h5ulHiQm5VyUXZZ4vDJo11jxz6mM63BUrqPMwGcxlTxXoupkyszS5ypPBva57toxiNi7X102+siUjs9lMJ9v9QDnG6+9qvaD+ejjT6j1VZaeojyLHOBWwo2YmZKiPI1KXqdSP6vcxpc0zRbKPa788HN0VtaV9BxLV54etm5wMx9Ap6pOfIWpve/F2u4vY+Om+7Tm6xajXU+Vz7nM74yIiIio7qnqu7T0c1m8WbgM4iNNyS/XXFyyMWXbqip4dy3x/bsK9PfTCr/XVkK1XUNxlX1XJ6oEqw/efy9/+s16Nl45lRXEXLf9DA6cSFKDl5cGIUsISuYr87n61Kgr43MFQVB1/3n6Uet/EJOIGg9LBDEluzL877/VwKQRwDRIgHP6dK2N9Y3Tp1fTYD71V8ra/+LlHSZkbvkKX2+Kw83fRGP+tZXKwyQiIiKiYvguTUTVxeqDDz7In35TQceI5VJWEPNwZAr+3H6mIMhYGIQsJUhZZuZlYdDS+Gy+Mp8rU7NMT/H47PEIbKd33lgCBjGJqK6wRBDzumvHqgHMwVdeqQYpLZJl2ShE4cebuuOu37Ql7xu/wJpProdZf+xEREREVAV8lyai6mL10Ucf5d84/SZ9sXzKCmLGxGeoTcphhSLByFKn5kHMIhmZxtR8vmhzdCMjU8rC1+/Rz6BkDGISUV1hiSAmVYEpBUf2RSDWMRADuvuwmTYRERGRBfFdmoiqi7WMFm5Jft5OcHWxU+eN0cgLS0kjlpuXkrYpq2jbTBhZZo+zREREhRzd0KnfUFzFACYREREREVG9YS1BQEsLDDD6FjNGIjeK2cjkBVOzopxL0XXWsC42LShqEFOru7JvoH48IiIiIiIiIiIiamiqJYjZv6sXXJ21FHIJRsoxtFJStqV5sYZNsan5tjbqVNZpU6nzauaG5h6lN28nIiIiIiIiIiKi+s1agoHVITDAFcjXFwoyMkuamhXpSFOfN6ZGkWXon1Gn+v/dOukq/RhERERERERERETUEFVPBFMh2Zj9uzVX5yXwqGVOXq5cmn1plJIyM68dFoRObX3VYxAREREREREREVHDVG1BTCGBzM4F/WNKMFMyKcsoeh+XatBTn5oXrV9MbZ0EL8eG9NT3TERERERERERERA1VtQYxxYj+LeHqrI1WrgYg1SzK0orR7+WlmZjm5ZqruuG+m4ar+yQiIiIiIiIiIqKGrdqDmOKWsR3Qv2tzNHW207MqjSxLZaqcQkEmplJn9HtZuE3RMmfaEIRe2UXfMxERERERERERETV0NRLEFNK0fGQ/ycq0R2GWpZGBWVgKRx6XYmxjg77d2uDxO0ehfWutn00iIiIiIiIiIiJqHGosiCn8vJ1wy9j2mBjij9Y+LnBr6qAGKSXrUuvv0sjILKzr1dkPj8wcgsmjusPDtYm+JyIiIiIiIiIiImosrBYsWJA/YdIUfbF8PNya6nNVdzo+HcjPR0paFpLTTGqmpiy38XVVg5yWkpSSqs+Vj6ODch5ERNXAlJmlzxERERERNSx8lyai6lKjmZglaeXtjFY+LujavhmCe7ZE9w7N0b2jl0UDmERERERERERERFR/1XoQk4iIiIiIiIiIiKgslQpi5ubl6XP1Q307XyIiIiIiIiIiIipUqSBmTk6uPlc/1LfzJSIiIiIiIiIiokKVCmJmZWXrc/VDfTtfIiIiIiIiIiIiKlS5TMzcXGTWk8CgnKecLxEREREREREREdVPlR7YJ+OiCdk5OfpS3STnJ+dJRERERERERERE9Velg5giLf1inc3IlPOS8yMiIiIiIiIiIqL6zWrBggX5EyZN0Rcrx9bGBvb2drC1tYGNdZXiolUio5DLID7SB2ZVm5AnJV/Q54iIiIiIiIiIiKg2WSSI2RBdNGXqc0REluXm0kSdWllZqVMiIiIiovouPz9fnaaksUUkEVUPBjFLwSAmEVUX96ZOagCTQUwiIiIiaigkiCklOTVDryEisiwGMUvBICYRVZdmbi5FgpgMZhIRERFRfWVkYBpBzPMpaeoyEZGlMYhZCgYxiai6eLo3hbW1NbMxiYiIiKhBMAKYeXl5SExO1WuJiCyLQcxSMIhJRNWluYdrkSAmA5lEREREVF8ZAUwjiHkuiYPkElH1qL2hxImIGinz4CUDmERERERUn/G3LRHVFGZiloKZmERUXbyauamZmFIEf+wRERERUX0lGZhCsjClJJxPUZeJiCyNmZhERERERERERERUpzGISURERERERERERHUag5hERERERERERERUpzGISURERERERERERHUag5hERERERERERERUpzGISURERERERERERHUag5hERERERERERERUpzGISURERERERERERHWazfjx458P7NxFXyRDTk6uPmdZ+fn5+hwR1XVWVlb6nGU5N3FU923sv7qOQ0RERERUU+RdV0rGxUy9hojIsqwWLFiQP2HSFH2RDBdNlnvwyoP81Ok47NxzBMcjz+B8Uiry8vL0tURU11hbW6OZR1O0D2iJPj07oU0rH4sGGr2auanHkCIYxCQiIiKi+spI1JF3XCkJ51PUZSIiS2Nz8mpk/CVq2cpN+GjBCmzbeQjnElMYwCSq4+QelXtV7lm5d+UeNu5nIiIiIiJq+ExJ0Th+OgEmfZmIah+DmNXECHZ88c0qNRBCRPWX3MNyLwsGMomIiIiIGrjkg9i49RRSXTzhqFcRUe1jELMaGEGOn3/bhKMnTqvzRFS/yb0s97RgIJOIiIiIqCZkITHmBGIz9EWVVhednKUvizykxp1AzIUcZCdH43hMIrL1NSVRsyxL3CZP+XwM9p5IhaOXB5pmZ6DoaBna+sMH9yJ83xFEJqQVWZ+ecALHlbpCZW2fhtjIwmtTz1tZLlL0fZXnmspH+56KfndE9QeDmBZmBDciT8Vi+y5mYBI1JHJPy70tGMgkIiIiIqpu9jDFR2P7sTh9WZF9Cvv2RGH7kbN6hSI/GhG7YhCbZYv0M6cQcSQO6fqqSyXgwK5jiNhzBEfM440KU3QEft9yArE5DrBT9nD0nx1Y+U+0Hjw0IXp3OH5R1sek5QGZKTi8cweW/3UYifqrQcLJKEScTNQWLrt9Io4ejMJRfXPtvM/izLkLiDVKykWzdWVdUzlkJ+L4P1vwx84oHDhTpT0R1RoGMS3ICGpIf3q7lAciETU8cm8b/doykElEREREVL38mjdFdnwC4vVlxF5Aop017JKTEKNXITZJqfNA6+b6clnOxCA61wXe7iZEnkzQK0UajkemwN6/G67uH4Tgvv0wup8ffJ2A9Fwg9chubD/njD7Dh2CEsT60NwKtz2LrfvP9aCq6vUq5hu59ZVu9dPDSV1Rd6sljOJytfEduegVRPcQgpoVJUEPKiagzeg0RNSRybxv3ORERERERVbNWnvDOTsEZfdDzmHOpcPbzg591KmLP6XWxykpPD3hri8qLeQ4Sjp9AbNG24IosHI1Kgl2LAAwJ8ED22RhEF/yst4e9LWBKTUK6Ude8E/p3aQ13myScPGNC0zadEOCgrxNWbugaPBRjuxcPNlZ0++rXtNMAjB3UBd52egVRPcQgpoUUCWgo8+eTi+WlE1GDoN7bZvc7g5lERERERNXIqgV83bIQHyvv2DGITrCGl3cH+HrmISE+SamLQ2wi4OvrB+QmIUFvun0y1QZNbdQ9FLoYiZNJjgho6wW09ENrmxTEnNVaWUkQs2O31vBMi8Lq1WH45a9diDidpPdheQEpGfbw9nFRl4qwKimsUtHtdaYE/PXnJvyilm04kKrXE5HKasGCBfkTJk3RF8vnm59X63P1x02TRutz5XPRlKnPlY+RmSXNTKU88+qX+hoiamj+88StsLa2VouVlZVaKsKrmVvB50VFP09EREREVFcYf9Q33oUTzuspkxaUfWIbfonxwOjOWVgXAQwc2Q3e0bvw00knXN01B39tz0LX0b3hfmQHtsZkIN3KCyOGdYG7/nlD6r9b8MdZNwwZ0AbOynLCoZ3Ymdka1w1qh8IExTxkpyUgJuYsDp9IQpZXB1zT1xo7/zgGdB+KgS30zUoQuX0DdqIdJve3xdbLbh+FTatOKNsMw5DWMiB6ONbFumHgoAD9vK1h7+gEO+VVQV0X51HiNRnUbSKNAXvs0T44GEElNB2XczzsEoTRXTz0GqL6o1JBzMagKkHM3NxcPPvaQn0NETU0Lz4+CzY2NgxiEhEREVGjVxNBTFw8gj82JMGzVQ6icwMwoZcfkH0MG9cmwLFFHmKyW2Fyf39109IDfgnYuW4/ovNsYV3w8zsP2Vn2CLxqELqqSZN5ygUpv9GN9ckHsXJzCgKG9YF9RDgOOHTChN7Ksc2YzhxDpENLBHo6mQUxW+Dolsttn3BpELOUQGV5gpjlxSAm1Wdl5DFTeRkPbWEEMxuqnhNn4O23HsPXHz2llk//MwPT+hY+Rr06BWJw7wBYooePnjfPxqfvzMNLNwbqNVUUMhVvv3MPHgnRl2tEXzzyn8fw9py++nJRFf++QvHSO48p34m+WG6+6DmgK3pq/12nKip+nzfke56IiIiIqNY1aQk/lwxExmTBs7me2mjnC6+mJsScVeq8ykiPNKgD+nigz8ghuK6gDEIPD32An9wYbP0zDKsPJuhNyPOQnpyObNsmcG9ij46dfeAYdwwbjyciW/35n4P0s/uxcU8MEjKKh1Yquj0RlQfvHCq/4TMwd1QAnJMi8eeK5fhx4zEkOwVgzM1TcUd3bZN+Y8Zizoxg9NMWK81rlHKsQe5I3rUSTy89rNdWkbUtnB0cYVej/9bbwM5Jjlu8MxZNxb8vW9g5KKXCnTH3wfSZEzD9Kn2RiIiIiIio3nCBX3N7IN8Jvr7GC51S56nUwQl+rWRq5mIc1q3agJ+Msv2EPqCPH1oXaQRlj47++gA/1n7o16sFHGP3Y7n6uTCsPpyFlt0CoeZSunfBqP4+QORe/PK7rN+E1XtS0LRrEIa0dlT3VkRFtxeXnHeUvkJR1jqiRoLNyUtRkebkRhaWkT6fk5OD59/4Sq1rSEbe9zBmdk5D2NxP8bleh+6heGREExxdtxwr9gFjHngY01rHYsnDi7FK36QyJEOxoweQfOIwDibolVU1fAY+neKLyB/fwqvr9bpi/Lt3hZ9dOo7uikRJh9XOKwcx246h+H8ySv7sADzx1kgERP+J2e9u0+sKlfl9eQWgbztHZBT5Dsbi9Y+CgC0v47Gv9ari/DtgsK9tse+u7M9d7rqpqOcfvQW2traVbhLO5uRERERE1FAUfx+ulubkNS07A+m5tnB2LBYcNcj6PHs4O9jqFZdR0e2JqEQMYpai0kHM3FzkKKUhBjEHz5mHOd2Bg0sX4dW/kvVagxas69JEXxQXI7HkT1tMGdccRwsChwGY958Z6OsRi1X3foElUuUVipee6wunXYvx0K/NMW/OCPT1NR7uOUg48g8WvbsOe5QlLeiXjH+iHdGzgyOO/nwY7lOC0FLbuFBsBG5+caW+oCsSxOyAaf83HmNapWHz19/h48wBeGlWX/gb5599DmGff4rP9ynz6ufcEXnIFl0666PLZSdjz2+L8eZa5Xvorpx/aZ8tCGJuxA8R6fhzY4S6SanflxrM7ICZj43HSH/jr3PKd7BvI179eBsSigQj3THyjhmY3lv5Hn5djFd/d1SuaTLGtC32ubQgvD2ouV6nOaMHM72umoxHJgaipYO+QrmugxvX4NVlPnjunRC0jCoMvna54x480dsdUetextM/SY07Zj55D0Y6ROKA8s+1q/K/rz63HAfVrRXXzMSCca1wZuOHePr74v++1G9qEFP6xNT7xRQMYhIRERFRY9Qgg5hEVCcZedhkIdrju2Ha/ONWHExzQZcb78Gnr8zGc/eEYkwnoz/Mf7Fi8XKsOmkCLp7GqkXL8fHicOz4/RiiMh3h1zlI26xzH/h7yowvuk5Wa+A1rBX8rZNxdEsypt05An090/DPssV46LnF+Dz8HJw7DcSdc/TPiya+6Klss2PtOqzYtxPfyrH08uM+CZbl4MzJf7VtS+SOMQ+Mx5i2wMHfvsPH/zhjSkggvNIOY9HrL+Pm1zfiYGZzDJ0yAV30T8hnOjY/jSXvfoinvz6AM8pyzytDlPV+5fgs4NQpBDMH++hLopTvS1kzdM5YjGyZgz2rlO9g7od4ddVpOHcPwbzJRbtw7nnzVEzv7YKELSvw6u+xwIABCG7riIRty5XPfYHPt50DXJujy1/rlO/msJphmbBL+56+/UtZ8Bqh7FM59wuH1et66N2VCItzRJdRY/HIoHBEnM6Bk28AhqpHC8Aof+X4eYD/FSPUGngNQMeWyj6jwvHa1tPI9vLHmEHaKjGlmy/sMk9jRwMLYBoa8r1OREREREREVNcwiGkhjWJgj4RtePW/i7Fk4zGcyXWBf+e+mPbAbHwwZwC8kIyDuw4gJVs2zEHKtgPYrDZNDseOKBPcWl+hBsO6BPvC62Ik9pwxgmHuGNPBV9l3DMLOBSOolS0S9q3E/LXKZxMiEbb4J2yMyoFb264YKbsWmaex6plF+HhFBA4mxGKPHEuKcxDGdHdHxpGNePPrY/rGl/IaOBNTOgFRa1fgVcmkRAx+fH8+Zn+wE8m+XTHYNxl7otIAT0/01D6iMOHo3z9h1ZFkRG1ZjjAJPrq6oUuZnx2B5+Zr2ZYZxzfioVfW6PsSpX1fAzC4gwuyTx/G5gRndBzgB/eEAziYaKt838HqJ4Vz69sxd1BzJEesK7zWC5nIUtcFYmiICyIXfYGHXl+JsKhjyvdjghwqO1P7rvZEKd/D6A7wt1POd6l2XQlHIvD5/yIQlemCjn37YsXu08hw9UU/CUyqwWcTDh6KBVoGYJpSVRh8jgR+34ODF1zQZbB+jl6hCPKXf5ZhWKHVNFiN4t4nIiIiIiIiqmUMYlLFJERi1fff4YVn3sJt936BH4/kwK17COZeo68vwaq9sXowTMvmy4g+hkXHYgGvVpiiZ/OdObYRB7u7wx0mJJyI1D8pkpGSmQM4uWidKYu8HGToswWU/TwxOgB2sRH46F1pdl0aR+WwLrBTpk6uepVCRkJf8MIMzLv5Wtxx47WY0slFGwhIX6/ShqhTrUpMAxwclfMt67NpOPLXVhy8qGyUm1PGOZlrDvcmgF2rIHVfWglFT5ccZCvH07IiAbdWvnBSps5OZgMGHVqORWsjke4ZiPE3TMVLH8zDcxM76Csv1c9TOc+LyTh6SK8QCWlIz1O+bjdPYP0xRF50QUDvID34HIs9359GlHKOna7Vg8+xkfhR/XyEGgi1axuImV5Al3Ed4A9l+1/N/1kSEREREREREVUOg5hUbv7dgzHlGvOgWCxWLD6OBNjCqWiXi0UZwbABwWo2X+TebUjYcBpRdr4ImiHZfOdwdHUysC8ZyRJkbBegf1C4w006P85IQ4xec6kOuGOONO2OxI8fr1T7zixLQsQa/HjEBK8BoZinjqo+AtcPaI7sI3/ioXtfx20Pvo7HdpW3CXRZn92GJT+l6fPldQ7JF4Hs09vUfRnlsVc+xW3P/IQwfauMqK1YtOUc7DqFYO61hc3M90gz/AdfxkPv/omwM7boMGKomjVZkh0SiG3ijo6d9Qrh5QJn5amQkZKoLGzDnmjJou2K8XrweVXCNhxV9uvfdawWfD4ZXhCcPfjrYUTl+qLnuAFqNwPZJw9jEUcJIiIiIiIiIiILYBCTyskdg8ddifHjxuP1mQPQxQvw6hSEmbPawwtpSDBvvW3tCDd/XwwdZAQ89WBYpwAtm08G+DGCYZ0km+80VqgdNmr9MHp1H49HxneAv1cAhs6YjBB/W6ScPIA/1X0Vp/VvOdQ7DXvWRSC5XVcMHqCU3sqx9C2KMinn+g9WvPs3Dqa5o+8NkwuajNs5uKjZjV59R2Bu16L9T15OVT5b9Pvahs3H0mDXtg+euyEI/kqNf8hkPPH0Pfj0vgHq5iL5zDr8+fUabD4DdBgxHlOUi+0wfiY+fecezBsVAByJwtGkHD0jtJBzk67w7xuEwcr2CauPISrbXe1bc0p3X/Wf5x13Ksd0SMPRf/5Rt9eyaAPQRQ8+S2bsqmOxsPMPKAw+GxLWYe2RNHj1DEEX1zQc3ByuryAiIiIiIiIiqhoGMamckrHkf7/hz+M58BowEk+88BTefmAsRvoDUX/9iUVbtK1W7T2NFDtfjHnsdtwxZQDGaNVaMEyZqtl8ak0yVkWfU+cKs/nkGOvwT6IjeoZOxUsvzMAdwc2RfmQr/vexMap3ccEY2slR+TfZHT3HT8CcmXqZEYx++hYl24ZXV0ciwzMQd96Tgj9kEBz/gXjpI+W6busLp7TyZlCuww+V/mzJ31fYxyvxZxTQIWSsus+XbgiEc8IB/LBUGyW8UCQ+/2k/zli3wpg7Q5G9+R9sjnVE34kz8PZHyv66OyJhX4TeJ+UBHD2TA7egCXjptrEYP9pPDTrO/+kwEpp0wPg5t6v/PIf6mHBw7Uq8qf/z1LJolakRfFYkbIjFGZkxgs9mwtZHIcHOFnYJUVhl7IOIiIiIiIiIqIqsFixYkD9h0hR9kQwXTZn63OXJwB5Gyc3NVcvzb3ylr22IfNFzgCecs9NxVB2MpjhZ747sE4dxsLLNif07YLCvLZKrso+K8gpA33bOyI7VBr6pkKp8trTvq7L7LOO78+oUiI4Oydi8L1av0fh37wo/u9L+eVZA5wl4+76uyNj4IZ5uoKOSi+cfvQU2NjZqsbKyKijl5dXMDdbW1moRFfksEREREVFdYgx0mZeXp5aE8ynqcnU5nhSLzaf/xaHEGJzLuIDc/Dx9TeXYWFmjuZMrOnv6YXCrK9Dew1dfQ0R1jUWCmFaJh2F1agOs4vfCKj1OeYqZjYBSU6xskO/sg3zvHshvMwz5noH6isphEJOoAoaHYk7TTNj3HoC+rrH48cFFDXpUcgYxiYiIiIg0NRnE/HpfGDaeOqAvVY+QNl1xc3djSFUiqkuq3JzcevfHsNn4GKxPrIZV2pnaCWAK5bhyfDkP9XyU8yKimjHyikD0GxWMvq5p2LNqRYMOYBIRERERUc17Z/uv1R7AFHIMORYR1T1VCmLa/P28GjSsi9RgpnJ+RFT9/vx4Pm6792Xc/OCHeHNtw21GTkRERERENU8yMPcnROtL1U+OJcckorql0kFMyXS0itutL9VNcn61lZFpNBMlooaF9zYRERERUc2RPjBrIgOzODmmHJuI6o4ib+Opqan6XNmkD8y6moFZnNrMXTnf6la8Tzt3N2d9jogakuL3NvuzJCIiIiKqPjKIT22pzWMT0aXUIGYzd1e13HfPXPyxZo26oiwyiE99UpPna4QzAlr56HNE1JAY9zZDl0RERERE1U9GIa8ttXlsIrpUkUzMX35ZgYcfegDbt23Ta0omo5DXJzV6vnpWVo9u7dQpETUsBfc2MzCJiIiIiKrduYwL+lzNq81jE9GlLuncLSYmBn/8UXY2plV6nD5XP9TU+UqzUinSZ17rll4I6tZeX0NEDYHc03Jvyz1u3O9ERFT7snNykHHRhJTUdJxPvoCExGTEJpzH2fhEnIk7pxaZlzpZJ9vItvIZ+SwREdVdufl5+lzNq81jN0a5SRG4GD4dOWfqR/eFVPNKHKEi/O+/9blS5OfqM/VELZyvBDmuGdEXAa3ZrJyoIZB7We5pDuxDRFT78vLy1ACkBCNj4xPVwGTyhTSkZ1yEKTNLDUzKNvn5+fonlJ+DyrzUyTrZRraVz6gBT2Ufsi/Zp2xDRERUXpkpKbhwmZKpb1v9Mss4prGu5s6morIOvoH8i7HIPvmVXkNUVIlv49HRp/Q5Kg/zbCwjO0uqbGxsMHX8EPToEqCvJaL6SO5huZflnpZ7u3gWpvk8ERFVHwk+qoHLhPNqAFKW88wClZUl+5B9yT5l33IMWSYiorrNTvl9XlYx36Y4W+uS6ytq1SMd0PmKssoDWHVW37jSTmH9Rx/h048WY2eKXlWSs7/h4dKOWbDuI+zUq+oSycKUAKaQKbMxqSQlBjHPnDmjz1FlSKaWtfJAlKmNnS1GD++DaROHoHtnf7i7Oiv1DHgQ1WVyj8q9Kves3LtyD8u9bH5vExFRzZEMSaMZeE0EF41gqRxTjk1ERHWPrfKb/JeZT5VafrzpMTXZYPktT6rLNsV+w/9v8ly13t3RWa+pHLeWQxA8VC+B3lqld6fCuqFt4FblWGkc9r/4HF588U+cytCr6jEJUkqz8ewTi/QaIOdE0ezL3LN/6HNQt5PtjSAnNV5WCxYsyL/tttv0xULyw600tj+N1+fqj5zJK/S58rloqliKtdFcSW2qlJ+H/Lx85ObmKiUHuTm5yJFpbh7y8nILmzdp/y+fUv+XiGqTlTbiuJ5paQQsbWysYWtjCxtbmVemNjawslbWW2n9YqofqWAmplczN33/2g8pZnISEZVMfo+lpV+s9X4r7Wxt4eLcBE0cHfQaIiIyGO/C8p4rJeF8WamCFXf7yo/0uaIkKPnFlHvVefk97e3sprxZ5yM+TTt+tvLufddPH+G3WU8rv92tcO3Cl5Br1mXIl9ffB9+mHpj27VtINqXrtZf6Yuxcfe7y4pfdil5zfgPGfYLd/5sMPaRZhDQ/z4QjXN1K+W9KegouKP/Zc3BzQ+EWO/Ce7xi8jmvxwe4vMbGFXl3c2Z9wZ6+7saqk7QrWPYlfYh9EH71aXO6cLnvOFSRZltJ0XNi1mwnbFqFqkLK4JsHfqk3LjaxM2VYKNV5MJ7IQ8yCEhEJkuSAIYmsDOzt7pdipU3sp9g5Kkakxz8LCUrvF7H5U79fCe1buYSMDU+5tPdypYgCSiMjycnJzcT45FUkpqXVi4B05BzkX+SO/nBsREdU+CUjO+v49tdzx4wdqXZbyvDbq7vzxQ7Wurji16jncMsgL7dQm3a3Qa/JzWBWtrxTp+7Dwzr7wa681Q2/XIxj3frEPmTvfgZ8awBS/4d5eXsryrVhW5SbqQOb+L3Cn+TmF3I2F+wsTui7s+QL3hnQtWO836FYs3FMYpN75tpyLF+5cdgRHl2nX914F26pLlqVp10P6UlHFB/mxcuSYI40dg5gWpgY49CIBD8naMrK3tICIUiRQYkxZWFjqTDG/N4371fweLghi6oWIiCzPaDpuyqx7Aw9IM3M2MSciooq68MfjGH/bR1iX3gkT576A+2eNhGP4R7hz7HMI15NA938zD0/9GgXvwMmYPXcyOuIIls1/BUuinBA8tB/aqFt5o2OwpZqo78PCBx7HqpPKPifOxeyJnYDDP2H+q99AjWPu/wg3hT6OZYebYMSsB/GsnFP6b3gq9G4sOantwXDq8wdwwxzl+orVl8aqia8+pylvM/Hin6PGh0FMCzKCGuZBDiOQaWtrqxRjysLCUj+Kds+WFsA0pkREZBkpF9LUwXWMpol1kZybnKOcKxER0eXtw5I3vkA8uuPZb8PxwbNz8dhrS/DV60OA+I/w6a/awMqZ6fvUad87HsJjz36CjZuO4dCuJZg1aTa+/+4FTFPX9se8D35Wl4eX1Fa9QkzI3C/T/pj98JN49uNwhB08ht2Lb0c3hxSs/+Y5dQCgaQvW4avXnsRs5ZzWvHu7UvMn3liyqcjo5/uj3XDrTztx4nQC7jdvp14KG48gfa5iKvs5ajiqN4hp6wgbz07lKtbN2ukf0lh7doRd5wlwvn4xnKcuRZPhz6vbWTm66VvUTebBjYIi/edZG/3r6UGRIoESFhaWulKMe1MLXOrBS+UeNr+njXuciIgsQ/pQS0xKQXo9ynCUc5VzlnMnIiIq1dkj+EcNFu7DiyO15tdSQh7bpK5eF74X8cq0Y7fb1T40Vz0SjHa+fXHdcwvwd2R1tkrohG6z5Ii/4ZErpan4GLy4cBOOqpmhR7B/oUyBJbd1KDjndtO/UOvil/6Do+qcJvjR13F/cBs42OoV5VDRrEpmYZKo1iCmjVsbOI3/pHwlVOvUVdj3vAnO130Ex0H3w7ppC1g7e8M24Cp1uybDX4CVtZ2+Zd1kHuSQYgwAogUytWJkdrGwsNStUvzeNL+HpRj3NhERWYb0MZmYdAGZWdl6Tf0h5yznzn4yiYjqKLPEfuXXvD6nMUYrz6ux7P+RmPXsC3i2eAn2gaOy1vXq1xC24jXMuroTvBGFnUtfwZ2TnsP689qny6WZN1rrsyjepbTJhKJDLrlh+Gub8cvLt2OEjKp+cgeWvHErbvjPnygc5rk7Jt5fwjnf3R2u+hbCzVmuoGKsHSsWlKzo9tQw1bnm5HadroFD71uVJ0xhBw/56Qn6nPKg8e0Bl1lr9KW6yzzYYV6KBEb0eRYWlrpTit+n5sW4p4mIyDLUAXySLtSJwXsqS85droGBTCKiukdGK8/L1zLmW7l5qlMhI5k3d9LCcBnZ1dwHc4tO6NtNZuLg2nMGZs+dq5ZZA9zgEDgS06b00wKCKafwT3p/PPZVOHZHHcP/pOV2/Bf4OVzyNM2U9Z9MhyvQfZzM/IYvf9hRGIzMOYVlb7+CcJmf1R0d1UrgwskdSOn7BL7aeAAnDn6JWUpd/MIf8Xe8ZGnKFvuQ2e7agnOefU0nOLToh4m3j9T76Ky8imZWWnv01OeoMbNasGBB/m233aYvFpLRF0tj+9N4fa7imt62Xp8DUhcM1+cK2XeZCIeB9wF5OTD9/V9kH1urrbCyQpMRL8LatRVy4/Yh+/ifyI3dq60rh5zJK/S58rlostyDrDz9OtXlvp+IGrryBCYtGbz0auZWECgVDIwSUWOkNSGv3wFMc3a2tvD0cC14thMRNRbGu6w816UknC+a71dVt6/8SJ8rnZ2NDX6Z+RQyc7Ix4atX9VpNc2dXfD31AXX+XPoFNfNS6qyV3+CvbvgJf508oK4rzRdj5+pzlxe/7Fb0mvMbMO4T7P7fZLV5uFr/690IvfMnxKsD81wBb1sTosN24JSyPPu7XXg2+AjeGz0cr+8H2vSZgeHd4xC+6k8cjffGYysP4P4+p7BkRh88sg7wDhyCjs59Me/nJxHsoB/AjIxmfv3YV9T+LNG2H4LbOCL+0CZlX1LRD8/+uQqzJai65x2Ehr6C/fBHnxtHovv5TVj1xxHEez+JX/Y+iG7K+uuV9bKfNn2GoLWLch36fka8uRNf3dRGHZ38ujeAMR8fwP8mVqyTThnMJ+tgYYvcskjA067tLWxSTnVwYB975c5Q5OdmIt9kFkhVHjSmja8gY81jMIW/XaEAZm2TAIVRSmO+DQsLS82W0pRnGyIiqpyklNQGE8AUci1yTUREVLdI4PLeFZ8hJy9XDV56u7ipAcxn//gWm04e1LeqXt7jPsGKBXMxom08joZvQrgEMNuOxOyvfsezQx0A2+64/8svMXuEP07tXIyFC//EUXTCtHeXYbY6UE4bTHroSQR7A/GHlc9Hr8TOiJITrxz6PIhv1ryGiXoT8fAwLfDYZsRcfPC3sj81K1TR80H8Tz0nabr+BRb+cQQInIE3f54LOaSDst7Yz6mdcs7KfpRzmvjyevzvpqrmYeqBycB55Sq2/lMZwCRVncvEtLviWjgGP6TOZ+37Djkn1iMvLRb5mVX7UVibmZhEROaYiUlEjZ2M7F2fBvGpCOcmjnBz1f4oT0TUGNSFTEwh/dgLo/l4cRK4dLC1U/vGNOVklbsvzIpkYpZHZkoKMuEIV7cS0ihFegou5AAObm64dItMXEgxwcFZWVeOQXS0Yyls3eDqrFaV6HLndNlzroSc078i6/A7+tLl2Qc+CNtWalt5asTqXCZmbtx+5KVpfT7Yd58Kp+s+gePw5+EY/DDsu05W3vbZRIeIiIiovsq4aGqwAUwh1ybXSERENUuCl6UFMIUELS9mZ6l9YNbcYD6XkuBkmcFAZ1lfUgBTOGjryjkKuHassgOY4nLndNlzrgQre3flf8p5Icp26vbU6NW5TEyVtS2azlxdYsAy7/wJpC+/Q18qP2ZiElFdwUxMImqsZPCbhMTkBt8XuDzXvTzdYWtTOFAlEVFDVVcyMauLpTMxiajy6mZaY14OUhdejYw1jyL739+Qc2ID8rMz1FXWzdrBecLn6jwRERER1R8XUjMafABTyDXKtRIRUdXZ1GJrzNo8NhFdqu7ekfl5yI35Rx3E5+Km15Dx233Iz9aa5kgg07btUHWeiIiIiOo+aeViymw8LV3kWtmyh4io6po7uepzNa82j01El6pzQUwr2yZqkNLa3V+WtMrcbOQlnYRpwwvassLWt5c+R0RERER1XVr6RX2u8WiM10xEZGmdPf30uZpXm8cmokvVuSCm45UPwfnaD+E09l3Ythms1wJWTTxg32OaviQjWW3V54iIiIioLpOBbrJzcvSlxkOumYP8EBFVzeBWV+hzNa82j01El6pzQcycs3sAWwdYObihycj/qAMBSXGZ9hNsfHvoWynbRTOISURERFQfpGc03kBeY752IiJLaO/hi5A2XfWlmiPHlGMTUd1R54KY2UdWInPnAuSlxek1ZqSfzDO7Sh/VnIiIiIjqFFNmVq1nYUZHR+tzNU+uXb4DIiKqvJu7D0U3r9b6UvWTY8kxiahusVqwYEH+bbfdpi8WOp98QZ+7lO1P4/W5irPx7KTPAbmJR/S5S1m7+sHKzlk5mCOsnJsjPy0W+bnZyE9Vplmp+lbllzN5hT5XPuyInYiqi1czN1hbW6tFWFnp/f8SETVA8puypoJ4EqzcsjkcP3y3VJ2Pjj6lr9G0bt1GKa0xcPBg3DB1mjpfExwd7NHMnYNDEFHDlJ+fr07z8vLUknA+RV2uDl/vC8PGUwf0peohGZgMYBLVTTUexKwtdT+ImYbYyCTY+bWGp51elXoWxxNz0LRFa3g76HX5KYiJSoSNdzv4Oul1IjsR0TEZcFK29TS2FWp9DpoF+MBZrxKmpGjEZDihjZ8njMOJ9IQTiIU32nu56DWKi3GIjMuDp38LNC2IteQhNS4S8XkeCGjhARu1LguJMaeRnK0uFOXsjTZ2SThVfKVSrx6rhPNUzzHNFt4tlePa5CE7+SyORCcgOdcevn5tEKB8ziYjDsfj0/VPmLODe8F3maNc11lExiYiGU7w822J1vJZWSWfT7It+j2o+wR8zb+zzARExufBq7UzUiPjUfSI5seqGPUaczyKft/U4DGISUSNhbzMxiac15eqz/ffLVUDl5s3h+s1GiNoKYxsTPPA5uDBwXjokf/DIGVa3Xy9mhU894mIGpKaDGKK40mx2Hz6XxxKjMG5jAvIzc/T11SOjZW1Ogq5DOIjfWCyCTlR3cUgZilqPogZhU2rTqNpcDCC3JTF5CNYt+MsbNoHIaSdVGiyT+7AL4fSYOPbCRN6m42UlnIQq8PjkO7UAiNCAuGuV2v1JgSO6Y0AvQpIwM51+xGZ6YjAqwahq1n8LHL7BuxEO0zuL6PDG5IQsSECsd49MLqrp1aVdgR/bIqDZ79g9Glu/CBPQ+S+Y4iRry43HQmJeWjq3RSOssrdD12zlGs6DXg3cy7sx0CpD+7gdcl5ms5EYN2edPj26YM+3o4wRe/CH/vT4ejZFM7W2UhNSEOWVwdc0/Yitp/MUHdlSklCqo0LvFwkmmgLv67dEOCYiAOb9+Nwqi08mzvDDspnz6Wp31PIkEB4mpTr2JCEtqMGoKMehIzfuwmbTlujvfHPQpF8MBzrkn1w3WA7bF11AhdcPeCuXpjQj9VEXyyP3DTE/HsAO6MykO1Z/Pumho5BTCJqLGRQm+QLafqS5Ulg8qF59xUELyUoef3UG9WgZGlZlpKpKdv/8N13BQFN+dzb89+v1sxMd1cXODUp+PFARNRg1HQQk4gaL/45uC66GIVNO2KQ7detSABTgoRHotPQtLkb7OLO4GhJGY8Xz2LrwUR9oRRnYhCd6wJvdxMiTybolWXxQFB3L+SeOoID6nuICUf3xsDk284sgClcENA9CMF9lRLoAUc4o73MS5FApbDzQHejzrzeTG7iQWzckwLXbloAU677eGQK7P274er+8rl+GN3PT81ETXfvVLCv9k0BR+8O+rIEFfMQE7Efh7O9MGRUMELUeuWzoT3QPu8swiNigCZe8G6SgZhoo5lbEs4k5sHOLgvxccZLVxpiErPg6dumIFvT1V87ZuGx9BXlFXcCO885oI2XvV5BRETU8FRnM3IJRg7s11sNSEoQ8sefl+MHpdww9cYyg5ES4Hz4kUexdcdO9TOSrSn7kH1JRmd1Yb+YRERERFXDIGZdkxmFTX+fQLpfD4zuomc9GhIjEZnugra9OiHAOQ0nTxTPbLBH+64+QNR+bD1bWkp9Fo5GJcGuRQCGBHgg+2wMorU/nBXKvYjIY9Eo0vNo8y4I8s3C4b3HkBp9EAfSXNC1i1kmqIXkJh/E2u0JcO42AENaG9kK9rC3VX78pyYh3TjX5p3Qv0truGvt2EsRg8hYwK9TILzNt7PyRFAnD+TFxiEy3wMBPvZIPHdWW3cxAfGmpujczgmp52KhxokvnkFMqiO8Wlgw4NiyB667KggB5l0CEBERNTBZWSX9xbXqJIA5ZdIEdV6ag0vwsjJNwuUzEsyUfUgw88F591VbILO6vgsiIiKixoJBzDolC8d3nkA8PNG9c7EApiLmVCKyfVqio50LOrV2QWrc6aKBRuHWBQPb2iJmfwQiS2oRfzESJ5McEdDWC2jph9Y2KYgxAp4XE5Aon0lORHSevdYMvIA1/LoFwDstGn/sT4F7h+5ob973ZnmZEvDXn5vwi1q24UCRC0hBxJY4pDdtgd4FAUxhj47dWsMzLQqrV4fhl792IeJ0EnL1taVKSUVqvhO8WpTwr3kLD3jmX4T0muDu7Qa75CQ1mJsenYhUN1cEtPRA05QLiFHqss8mIbWpZ5Fsy/hDxjUoRTI6iYiIqAgZlTtPb2JoSeYBTMmklKzKqpJ9XD91akEgU45hafJd1PYo7URERET1GYOYdYydpw8C7BKxs3hgLD8G0Ql5al966RfTkNWsKdzTEnCkhJbj7oF9EOSaip07j8Gk1xlSTyUi1ckNXjZpyn6awNMDiImKVDMOow8fQYK0dPJshSGdfAoHujHY+aNfeyfAwQfd21WyTycHT/QJ7oURaumOTsXGs3H284H3xRiEHymWZdq0A4aMGIrrhgSih481YvdFYOU/0VqmZGnsbZV/wXNgKv4lCFMmLioTtUvC5l7ws05BTGwWzpwzac3GpZm5Yypiz5oQGZcBZ0+vIgMjebY3rkEpnX30WjPRu/DTqg0FZZM2lgAREVGjkZ1t+YCd9IFpHsC05IA8RiBTPDjv/oKBgCypOr4TIiIiosaixCBmy5Yt9TmqWfZoc0UX9BnUDh7njmFTdGH0LTvyDGJyrZF4bDfWhStlRwLSrXMQHVVSFqAj2gcFwDs9Ghv/TTfLWEzAkdMm2GQnYqvsQyl7ZcDQpDhIzLB1r2AENtW2LI2jvR1gBX008kqwsoZzExe9OMGuyHgmbgjs0QVD+vkg7/geRCSbN4lX5vOtYefig4ArgjB6kA9s4k/jiEQiS9PEA54OJsScKt7sHjBJdqWDG3zV6/WBrycQH3cEsSlGs3EPtPS0RmzsYcQmy2joHrJhARt74xqU4mCr15pp3RuTxwwrKEOqb5wAIiKiOik757JtJirs+++WqNMbpk6zaADTIIFMaVouA/4Yx7Kk6vhOiIiIiBqLEoOY0pSmTFaVDmHVjvp2vg7+GNLPC+n7d+qBPH1An3Z9cN3IIYVF2abUAX5kH728kHsurTAbUx3QxwN9zPcxchB6eJR3gJ8a4t4FId2a4NQOvUl8bgy2/hmG1QcT9IBsHtKT05Ft2wTuZQ6o44WundxgOrEb4ZFG8/McpJ/dj43/muDdqQO81TrAz8cNeWcTEO/oBj99n95eTYHYJMTbu6Gl+fhKREREdFm5uZYN2Elm5Ntv/lf9nfrO/Pf0WsuTAKkcQ45l6WxMS38nRERERI1JiUHM4Cuv1OdKlu9cQvPZOqy+na/KXfq2BI7viMDxMye1AX3aFWt77RlQygA/uubKPgKMwWiMAX380LpI9qM9OvoXG+Dn3IkiTaFXH0zSV1jAxTisM9v3T9uj9BVFObbuhl4eqdi55SDi4Yd+vVrAMXY/lqufC8Pqw1lo2S1QWVM2x9ZBGNHDDamHI/TPbsLqPSlo2jXIbOAghfSRqUzsPD3hrtUAvkqd8l3ZeXkVBDsN8fvMrmFVOCJS9BVERESkys0tbZDByjEyI40m39VFRjY3sjwt3Tempb8TIiIiosbEasGCBfm33Xabvgj4+fnhiwUL0X/AAL3mUta7P4b1idX6Ut2X12408nrN0ZfK56KppFFxqNZlZyA91xbOjhUfKTw3U7JSHUtu/k1Ug6RvW2tra7UIK6sif1kgImoQYhPOIy/PckG76ydNwObN4RbvC7MkxuBBg5XjyMjnliLPfV+vZvoSEVHDkK8P4ibPfCkJ55nhQUTVo0gm5nXXjcdbb79bZgBT5LcZps/VD/XtfKkMdk6VCmAKG4dS+q8kIiIiizNeai2teADzrTffUAOcMi1OmoPLID2lDdRT2merK0haXd8JERERUWOgZmJOmDRFXyy/+pKNWZksTMFMTCKqLszEJKLG4EzcOX3OMvx8vdS+Krfu2KnXFGZMGopnaUrw0miGXjyr8nKfHdivjzrAT0ysZfsNb+nTXJ8jImoYmIlJRDWlxD4xy0MCg/k+vfSluknOrzIBTCIiIiKqWySAKUFF84zKVsUGoyy+fFrZ3nC5bYsvy7EuO9glEREREdWYSgcxRe6Vz6uZjnWRnJecHxERERHVvJrIMpdBeB565P/ULMt35r+vLpt7W6mT0calyHbmyvqspUclNzDznoiIiKjyKt2c3JxV4mFYndoAq/i9sEqPA/Jz9TU1yMpGHYU837uH2gdmvmegvqJy2JyciKoLm5MTUWNQXQP7SMDxhqk36rXVQ4KYA/v15sA+RETlwObkRFRTLBLEbIgYxCSi6sIgJhE1BgmJycjOydGXqu7775biwXn3qVmV78x/T6+tHjLQz9tv/lfN1Hz4kUf12qqzs7WFl6e7vkRE1DAwiElENYVBzFJUVxCTo1IS1R/VFVxkEJOIGoPzyRdgyszSlyzDGGxn645dlzQdtxQjC1NYelAfRwd7NHN31ZeIiBoGBjGJqKYwiFkKSwYx5aF+6nQcdu45guORZ3A+KVV9uBNR3STBxWYeTdE+oCX69OyENq18LBpoZBCTiBqDlNR0pGdc1Jcsw8iQlGbe0t9ldQQyqysLUzg7NYFbU2d9iYioYWAQk4hqCoOYpbBEENN4mC9buQnbdh5S54mo/hnQpzMmjh2izlsi4MggJhE1BhkXTUi+kKYvWY6RjVkdQcYtm8MxZdIEyKjkW3fs1Gstx93VBU5NHPUlIqKGgUFMIqop2hs0WZzxIP/im1UMYBLVc3IPy70sjHubiIjKZmdnq89ZlgQvJcgo2ZKWHEXcCGCK6upzs7q+EyIiIqLGgEHMamAEOX7+bROOnjitzhNR/Sb3stzTgoFMIqLLk0FsrKsh01xGJr9+6lR1XgKPliBNyI0A5o8/L8egwcHqvCXJdyHfCRERERFVDoOYFmYENyJPxWL7LmZgEjUkck/LvS0YyCQiujx7ezt9rnpIs/KqkBHPr580Qc3qFNUVwBTV/V0QERERNXQMYlqQEdSQfkB27TmizhNRwyL3ttzjgoFMIqKyyWjc1WHr5s3qVAb4KU6yM6WU1tRcApdG8PLBefdhs7Kt7EdGPK+uAKaoru+CiIjMZMYgIuIEkvVFImpYLDKwz8lTZ7F912EcPR6NxPMXkKu/4NckG2treDZzRcf2rdG/dyDatmmhr6mcygzsIwENKRLgeOfjH3BO+S6IqGFprjxnHpxzvToojwzIU5lBeTiwDxE1FvKbKDbhvL5kOX6+Xuo0JjZBnUpQcsvmzcp0ibpsTgKURkCzeOamrJM+NqszeGnw9WpW8NwnImpIzJN5pNTqwD4px7DxYA6CBgXCXa8iooajykHM75ZvQPi2ffpS3RE8oDumThimL1VcRYOYxoNbDWLm5uKZ1xYWZGsRUcMhL6D/eXwWrG1sCoKPFQ1CMohJRI3J+eQLMGVm6UtVJwHJgf16q/M3TJ2mZ10WBiel7rS+LNsWD1zK+kGDB6uBy9atW+u11UuyMJu5u+pLREQNS/UHMdMQG5kEO7/W8DTrmSM94QTO27VCa/csZX080vX6Ipy9EeCQgsgL9vBr5QVHvRowIfH0GaTCDrk52XqdOTu4K8dzTDaOoWfT56cgJioR2U1bIsBT31t2ImJOxSEmKQf2Hp5o3aaFcp7yOz8LiTGnke3RDr5O2qZGXYaz2T6Rh9S4SFxo0gbeeWdxKs2x2Lkqh0iOxqlsD7T3clGPFx2TAaci30eO8n2cRWRsItJtXODXsg381P1nID46FtnuAfBravaHtNSzOJ6YB8/WfnC30evKyZQUjZgc/VyIaliVgpgff7kCh45E6Ut1T+dO/phz63h9qWIqE8RUA5j6g/uZV7/U11SOnPuQAT3U+UBlXpxLTMbho6fw19Y9ynwt/nWLqJ6Q++jOm8ep8//7+leLPa/+88StBUFICUAyiElEVDoJYEog01JkEB6jD0vD5QKTEsysqYBlSSSAyebkRNRQVX8QMwqbVp1G0+BgBLnpVYrI7Rtw2CUIo7tkYPufJ6D1XG/IQ3ZWHuDdAZN75mHThkjlxXoAhrTRQ4NnI/BLRCY69/JA/OkMtcqUkoRUGxd4uUhk0BZ+XbsB+4xjeCgXmogDm/fjuLUfhg3sgKbKT3jTmQis25MENHWBu6Md8kypiE8FfLv1Q3BrR8TsDsNOm0Bc18NHPQayj2Hj2mgkNm+Hyf2193zkK9e3+hSc+g1B+/hwrIvMgnM75ZiByjF1yQeV+rRW2mdSDmJ1eBJ8je9DP6/DqbbwbO4Mu7xMJCdmINerHa7u6w+TfDbOAyEhXeCpvnak4cCmHYh064KxxnmVR24aYv49gJ1RGcj2NDt/ohpU6TYtkoFZlwOYQs5PzrOmGQ/xynrygZvUwMuho1FqeeXdr9WybJU2MvKTD9yMu5T1zT3NnuBULl6dAjF4QAfU9uPWv3tXDO4dAK0xHFmS+X0xccwQLFv5F/7eurcgmCmqeu9U9R4nImpMJHhnyVG5T0efVoOWUt6Z/77al+U7899Tlm8sNVBZmwFMuXYGMImIqpMf+o8cgusKSjCCWyr/3bFzQ5/uyvPfzh/9Ojgi/t/DiJGf8flx2HkwCY7tu6KjbycE9w1SS/umyn+zvDvoy90Q0ETbuyo/A8d37MfhbC8E6wFMpB3BX3tS4Np1AMZe2U/93JArh2BsN2ck7t+NA2nKmTVviuz4BMRrewFiLyDRzhp2yUmI0asQm6TUeaB1c31Z2Xf6yYOISC5Py848xERo5xUSGowQOff+yvkM7wTvlEjsiMyAe+cOCMhTrvmockIK04kDOGzyQFD3CgQwRdwJ7DzngDZe/G8a1Z5KBTGlD8y62IS8JHKecr7VyTygIfOVDXBIYOXrj55Ssy0feuYDbNq6Vy2SdSlFgrI/r/xLXScqHMi8ZjJef3om7higL1tMMOY9PRvPzeiqL9dd/caMxZyZIzBKX64toyZOwJwZweinL5NlyB8A3vnPvXhbL0LuIblvDiv3j9TJPSbbyLaVVfw+r+w9T0TUWDg7mTeKqxoJWBqlrMBlXWHJayciosszRUcgPApo3y8IAQ5anWO7rgh0TELEvjgkHjqGSGsf9OlY3ubQJkTu2IGIDC+EDDWyGYHU0wlIdfZBUJuCtuIqx9ad0N7ZhOhTSUArT3hnp+CMnpwacy4Vzn5+8LNORew5vS5WWenpAW9tUdmBsk9/4PiOvVrQtUwxiIwF/DoFFpyXysEPA4cPwZAA5dyslGvt4gHT8QM4mhqFHcdM8L4iEH7m25dHyx647irlOy16uUQ1qlJBTBnEpz6pL+crQcllKzepAZfL+ezrX9Vg56QxV5U/kNm8OVq2bA4vZ33ZYtzV/bZknxhUy6T5+M1zX1Yzl6X5+CvvfqOvAX5e9ZdaJ+ulyLZVzcgkIqLycWriaNFszPpCrlmunYiIakjyQWzcnwqPbn0Q5G4e7nBB1x4+sDmtrI/KQ0D3YkG/MqRHHcbOc0DrzkU/k3ghC46eXmiqLxdyga+nPdLTLgBWLeDrloX4WMmCjEF0gjW8vDso6/OQEJ+k1MUhNhHw9fVTP2nw7NIFHe2SsHNHFEx6XYlSUpGa7wSvFiWEdqzM6lp0QQ9PE/b+fQLxLn7oZzSrJ6pnKhXElFHI65OaOl8jG6syWVmTxl6lTssTwDTIthKE6dzRQo2j/Ttg8ICu6NuplHHcvALQV1k/uLuvXlFe7ujSW/lcHWjGXV5as/Ou6FnWCevfR6nbXO77JIuSeyEhMUWdGpnLRr0ELM3rDJXtW7Yq9zoRUWPl4mzeLq9xaIzXTERUazKjsGlHnPIe1g1DWpcQpHMLRJA0M2/WBn2aVyAUYuuG9q1sEb23aGaknZ01srNKDjGasnJkRFBlzh4Bvk5IjT+D9HNJiLfWmo1LM/P0c3FITUxAbHZT+F7yiu2BHoPawSP5BLaeKCOMaW8La+TAVGakUyjn0dMP7vn2aN+lQ5FBgwpJ36Mb8JNRttft7gOpcbIZP37884Gdu+iL5SPZgvXp5d1kysLoEf31pfLJycnV58pPvpN86cxYmW4M36PXlo8aZDmfovaBWVESxNy594i+VLI7nn0KD3aWvG9beHW5Sg2aju6Yhd+2xgBefTHnoWmYd00Q+gUFYuDA/hjXxxvpBw/hhNrHsTvGzLkdT0ztj8HK+n79emPS8E5wPX8Se0bMxNd3t1P/+mTn2U7d76ThbZD5xz4cVep6TpyBx+ZcjdB+yueCumH4NYMxpC1weEc0UobPwKf/dx2G+0Rjze5kOZByMRPw9ouTcZPZPsSU/3sMT0wPhI9Xb8ybPQZ9nPdh/QGzJ7VXKF5640bcGuSEvzcdh9Y186U6DhyM7p5ZiFq5E7uUZa9RM/DOI9dhUh9PJBw8jOj2I/DEfTcox++mfheDr1S+p25OiA4/DuU/hxjzwMN49pbeaN+iP+6Yrn0fxbcp8fsc2BLZ+w/gqH5ivYdehQDHZOz/Nw9HUxK0SqqSjIuZCB3eX20+LvMSvHxg9vVK3QD4t/LBROXfzZ17/1XXqVmYzdzUbSsjJLgnrGVAH31gH1GRwXmcmziq21fms0RE9ZVkJWbn5CAnt+K/seojRwcHuLqwzR0RNR7q+7BS5Pe2ZaXg1NELcGjdBr4F0bcsJERFI8nRFx28migHT0TE34cR17QdRgS1UN56S2KFnPOncTLbFV38Lk00SY6JxDl7fX86qbvQvDOu7NYGTonHEXHGCv7KZ2X/TUwJOBxtQtN2vnAz/zmfH4ejB+Nh49cZAR42sHHMwOl/k5BhdREpji3Qp4Ur4JSO+MOJSMozIcnBF4NbaedjSojGyfQmaNfWC4627vCxT8LBQ6dwwQZIt9LPOzMBx5TjurRRvg+XPCSfOoO4fC+0b27eV2UeEk8dRbyVG9wd9ICtbSpi5HuUz5UYxXSHf8e26GKUEr4joZ5jVsnfIVF1q1QmZm5eeTqYrTtq8nwrG9qdOHZIQRam9NVn9OcnylqWwKcxenlZju45gM0nJYU9B2cOKPPblHJAQm4dcMecERjcEogK34iPFy3Hoo2nkeEdiOl3jtAGnhkQijHdlQdUwmH8qKz/eMVhJNgqD9pBXYFj/yr7Oq38ZwXIjj2m7XfHMUQqyxIgnDsqAF455/DPmjX4+Ptw/BObA6+uIXjyvgHAemW7i8p2/kEwwuhdBvlpx2zii57D1SpFCLrKX8zOROKTRYdxTPlvor+yD/PQe5dxHeBvnYNju9egvCFBr1FT8dy1AXC6EIkfP16OzQl+uGP8QHRxNeHgRuV8F63BnydNcPLvi+k3B+ifEu7o2R04KNe0IgLHknPUba6/QXuIj7lxqPp9ntmmfZ8/RiQDnh0wfkaxzkibBGDa/43WF6gqJGAp94SM4G9kV0r3DBKklD5kpVm5DO4jg2KJBH07+Yx8tjKYg0lEVHGuTZ0bxR9u5BpdmzKASURkGS3g65GFU4eOIVn9O1ge0uMO43iyLbx8ZARv6bNyP47neqJXF0/kXkxDulEyc+QDFuCIgH7d0CbjBDYeTFRr7ALaob19EnZvPoiYi3rMITsRh7ceRqSND7oH6EHFJi3h55KByJgseDZvodXZ+cKrqQkxZ5U6L72uBI6tgzDQLw/xiVl6TXFe6NrJDaYTe7DzbBrUryc/C4nHdyL8QAKS8yoV8iGqs/hvtIVUNTPVaAYrJLgiwRhDWcsSjCmPsBXL8XGsZC7mIPmQMi/ByrWRwPAB6Odri5SIFXh6cbgahPzz+0X44VAa7FoFYnpn5SNNbGGnTLIvxCJCgpRrfsJD817G7PfDgS0SqDuHdHV9pLrfj5duw0G4Y/ygADjlnUPY559i/op/sHnjRsx/aQX+UZ75Tld0wzRsw55o5Zy8/DBUjoMADPWXYGksojId4dc5SCqBye3RwQGI+nedshCOjcfSJPKJMYO01UAQxkiTbeX4G39XFgeFYM7MCUXKzFHmQUhF97F45NoOcMuMxJK3FmOVGvmMwecvfYin316EV79XznfbP1j0351q0LSlf9FBi6LCF+NNuaY1K/HC18fUwKlXyyvUdavefwtPv74Yjy3Svs8Vn63EHrnmlh0wUjnXmQ/fg8HSa3NeMvasXq1+hqpGgpMyCrnRB6bRhNw801L+SCD3jdG0XPqVlc8Ygc3Kqk9Z6UREtc3WxgZuTS3eOXedI9co10pERJZgj469O8HXFI11a6SpcxhW70qBc2AP9PGU9XGIPpcHZCZi+187sHqDWdlTMAZ41Vl5IqhXC+VlcD82ncrQlod0Q3vrRGzdEKY1wV67F8fhheBBhQMASR+ZfpIlme8EX18jBKPUeUqQ0wl+rcoa7dsa3t27oH0ZfxeTQOeIHk2RsGcHlss5/K68Myuv+m36FO8XlKj+q1Rz8t/XbdPn6o9rRlZsSO7KNCcXRgp9RZuTS3NXcep0nNo03Dz4UtZyn55XQJ6Nl2tOrurZF5Na2yPh4Bb8fVKvu3IwprZ2gqNnIMaFXonxo7US1NwRNjaOyE7bhPW/X4Rvr0B09G+nNgcfPagDWufH4Z9IyewUnTBqrC8cE09ozdNVPRF6XTt4pZzEez8cNmvefR6p7XtgSEsXZF/cgi/j2mF0F180tYnGGlMQpg/zRsa/KxBh1QPdva1x/s8DGDxxDDq6xGLzW7uxX9lDVFoLDBnQCq1d8rBiS7TyDzcUd/Rwxfl9v+MzaZY+LBTzBgagdSvvguJrE6+em9acXPkPRVBLuNsBCbvX4IPN57VTE/7dMH3KKMyaMhJTrpHvohW8JP0+PRbLwo7qnzchKiwMm41LPeeDgSPbwCf/groNvLpizMThuO36qzF1jOyjG3ydrWGTl4xDf9ij3xQXZJic0DQ/Fhs+WFfQZJ4qr0/PTrh4MbOgOwYnJ0f13lizYbu6bJAm5VJnNHGREWNHD++vdpFREWpzcmtrtRjNwiuSWcTm5ETUmNnZ2SIvL09tWt4QyTO+KZuRE1EjZLwLW745ucLWFX5t2+KKNl4ICPBHt87tEeBhtIku1gzavBRr8uzo1abUZtDufm2LNCUXl9Q5NkeHjgHwd5M0H4W1M7xb+6NLBz+0a90SnTt3QmBrL7gUa8+uHrdjK3ia/X2r1DppSq4vq6yc4Btgdi2OXso5mDcJt4K9qw86dNC+n/YdOqJHh1bKO2jxRvXyPZXWlLz8yvoOiaobw/J1hDQL9/Ks+INgyMAe6merJgdnjvyLHRFmZZfW5DzijKw/hs9fWoTP1xzGsXgT4NEKg2+YiddnFMturIz1B3D0giRWBmGo2pQ8GVHhkVjybyzg6ot+g0aga0sgO+o4lugfwaHlCDueA7u2gZjp5Y6ZvVrBLi8We36VRuyKrz8tGIHaKLPfNQ+8S2ZpMs4kKsftPQJ3dNerEYRH5oRicHsXZEUf07+LSJy55L/BJiQXieNfRFZBjwXumHbntRjTtTnsEyMLvs8oI96LlXjs4U8L+sYky5CsykDlP8gF3Szo2crGgFlCvVeUOlknpFuGO28eV2QEcyIiqhluri5wsNdfABsQuSa5NiIiqh42Di7qH4vqXK67lT0cmzjBrpZzE+T7cbRjmIcaLv7bXUdIU9crB/YoEnS5nMqMaH6JmDRkwBbO0JuCG+VIKjKituLHLdpm/p0ccXDFT3jhxfmY/cJWRGXaomVgnyL9Uhb1LxIkVuTpg/FqU3FDB4ySJuN5yYhcL8sR2BGtNQ+/voNSnxiLtYeU6p8iEZXngoAxgWpfl1GHNsrGBVZsjkSKtS96TglFz1ZA9snDWFTu8XFMOPjbYjz2/QEk2DTH0CkT0FOt94OXK5Bx5G889O5P+ncRV+ogQSW7AgGetkDCv3jh9e/0fUQgOVtfTdXCaB5uNBcXsiz3lAQ2v/7oKTULc9kqLeNSHdjH013tL7P4iOVERFQzPNyaqoP9NBRyLXJNRERERFQ9GMSsQ15592s16FIeEsCUbSuURaZmCzoioE8oRoaGYpr0Kbl+G3bE5sCtayjevicEIwd0xcjxU/H2jQMxcuJ43NEZ6HvbPXjpgal47gHlc7J+mK/aFBsXk3FQdqlzahmImSHBmDlR+rJMxud/RyLDujmG3jEb88b3xeCQEMx7ejz6egIZ/+4vyKwM2xWLFLjAzR1IiNqp73MdDpwB3CQ7NTMWB35TKwtt2YYDCYBX9w7wQhoObg7XV5RHGhLWJgP7lmPRDmXq1RUz7+ig1JuQrXxH2nV0xeABwZjzdB+1P87yS0O2BCzd/TA9VPbRFzMfGI+eal8tVJ0kkCnBSaOfWFnWBvX5Gg8qU/OAZXn7kiUiouojXXJ4uDetlb4jjSaPlio2yrW4u7mo3YOUtJ6FhYWloRYioppktWDBgvwJk6boi+Vz/xPv6XOWJc07jewoS3vv1fv1ufK5aCp/Px7mD/Hc3Fy1PP/GV/ra8pPBSGSQEeP6jYwyYyRlaQ4rJKPs8JEo/LxKBiqpQFNyrwF45P4Q9JRMQUX2yXDc9t+NSn1fzJktI2qbdY6Rdg6bf/sOH/8lwZ4OmPbwWIxpb9Y86mIs/lz4BRbtkwV3jJkzA1O6u6sDACH7NFbMW4QfldmeE2dgZkgAvIwWY3k5SDj0N+Z/GI7C/LcgPPLaWPR0TcY/73+I+ZKJKSbfjq9H+BaeZzFeN9yOt0N8lS/oAF59bnmRgGppxjzwMKZ1SkPY3E/xuVrTAXNemIrBXmnYs3QR1vpOxtyrfOFkhPcvROJgZgC65Ebg5hdXlvB5MQBPvDUSXVK0bWTU8yeu7VB4zdnncPCMC7p4x2LJw4uxSqm649mnMNQtsmCZqs78/pF56Z6heJal+eBZkp0pwc0K3UO65x+9BTbKS7cUo2/LivRr6dXMraBPTcE+MYmoMctRfjclJadWex+Zxst2Xp7yey0vT2aQxxdwIqJKkT9AOTo6qH0AG92DyHNW+jxOqHJ3Z0REJaszQUwJLryj92dX2cBCWepDEFOyK6VfP7n2QD2AafBSvp9NW7TBfDZt21ulJrD+3bvCzy4dR3dFqqNqF/DvgMG+DshKisE/R0rIVPMKQN92zrDPSMTmfbF6pRn187ZIPnEYB4vs2B1devvB3S4TMduOmQUvq8YIYkZt/BBPf2/JzDpf9BzgCefSrrNc9GtGCd8zVZu7bh5XcO8YI/gb2crGH0mE3E9yD1W2P0wGMYmILEteepNSUpGZVT39rxgBzOycXFhnJMD57HrYJeyGVVqMcvDKDeZIRNRoWdsg38UP2V69kNFyBBw8/NBc+X0rz3J53jKISUTVhUHMUtRGEFOCLHLdMsKyFEt/Bw1DAAYPAo4ea46ZD4aiZ5PT+PHBRVihryWSZ4ncOzKVoObho6fUeul+wcjSrOq9xSAmEVH1SLmQhvSLJn2p6ozgpUxzcvLgdDYMTQ5+zsAlEZGlWNvA1PUOZLceoSYKyPNWgpj8fUtE1YF9YtYhkhUmg5Fs2rqXAczSDBqA6TfPwNsvhKKnew7O/BPGACYVYdw7MjVGLZcA5v+UeaOeiIjqJhnZ210plnj5LRLAzNUDmPs/ZQCTiMiSlGeq475PYRe9DueTU4s8e4mILI2ZmKWoaibmi29+o6bTk6W5o8uoARja0hYJR3bixy2Vbe5NVDmSPfnsIzcxE5OIqBpJP5kXUjNgyiz/77HijBfo3Fzl91h6PDw2P8QAJhFRdbG2QXLwO3DzDUBq+kW1qrp+49okHYHd6TDYJO6HdUa88sCv4rPdygZ5Tt7I9eyG7FZDkevRSV9BRHUNMzEtpPgD2t3NWZ8jy0rGwbVr8PGilQxgUq0ofm8zAElEZHkyYEQz96bwcGsKO1ttQMKKMAKY8gdlKdIHJgOYRETVSHnGOp1Zh/QMU0Eyj/EstiTHff+D0+anYXdqLazTz1Y9gCmUfci+ZJ+ybzkGEdVNDGJamBHOCGjlo88RUUNi3NsMXRIRVb8mjg7w8nRXm5iXN5hpvDTLVJ1XigziQ0RE1UuetdnZ2YXPX4UxtYQm219WA43VTY4hxyKiuqfGg5jSbLykIj9QDTJf0jZS6jw9K6tHt3bqlIgaloJ7mxmYREQ1xqmJo/r7sJm7Kxwd7PXasmkv0XnIU6bqKORERFSt5FkrfRDLs9eSwUsh2ZG2CXv0peonx2JGJlHdU6N9Ysro2507+etLlZOQmKKOMFxR1d0npjGV1HnpE1P+AvXrmq2I2H9cXUdE9V9Qt/YYFzoQdnZ2an+Y0qel0Zy8Is3K2ScmEVHVyO8tU2aWWrKystVApUELXmq/ybSSD691N+triYioOiWM+Fr5jWtV8FtXfudW9beu9IEpzbxrQ8bgl9hHJlEdUu+ak59LTNbn6jZ5YF8zoi8CWrNZOVFDIPey3NNG4JGIiGqPPIslO1MyM329PQuanEudZGpK03P+gYiIqHYYf0wymM9XhgziU1tq89hEdKkaH528rCbhxujkr7z7DRJKCVZWdtTy6szEFMaDWoo2QnkOcnJykZ2Vhd/X/4O9ByP1LYmovunRJQDXDO8LO3t72NrKqOS2lR6ZXDATk4ioehgvyoW/x3JxJi6RmZhERDVEMjHlp638zjV+L4uq/N513jhPG8SnFuQ5t0B6yHx9iYhqW42nFEkQsqRiTgKYJW0jpT7QghNaU1MbO1uMHt4H0yYOQffO/nB3dVbqGbAgqsvkHpV7Ve5ZuXflHpZ72fzeJiKiussIZhoj5BIRUc0xnr3Gs7iqrDPi9bmaV5vHJqJL1XgmZmkkQ9PIxHzwmQ8sHrCsiUxMY5onHRnnFWZk5ubkIkemudIvU676UFe31/5fPqX+LxHVJittxHHlf+QvxUbA0sbGGraSeWmegSn9/FhVrj9MwUxMIqLqIb+vjCK/w3JychCbkMRMTCKiGiKZmDKwj7Rekt/S8jvXKJXVdOUN+lztSB37vT5HRLWNQcxSVDSIKcx/OEuRYKX8gNYCl9qPaTWAKUX7AMOXRHWI+tNKfmTJRA8yagP4SFBTgpiFg/lU5QcZg5hERNXD/HeY/O6SgRbjziUziElEVEMkiCnvv3ZqK6ZGGsTMTMEFk8w4wtXNQa2qcenKOeQADs5ucLDV66pRZkoKJIJS0vEK1rkp67QqokpjELMUlQ1iGlOjSNDSKMayup2sV7cmorqkIJCpFCNgaQQcjWXzH2LGtCIYxCQiqh7mv8EYxCQiqnm1GsS0sdOmudna1Fxp66xt1d/+yM1RFkp+Q69YEDMT4a/0xg3vSTP0GfjfwXcxppm2pjqc+uMj/H4McB0wA9P6FI4/svNtL1z3BvDYygTc30evrDY78J7vGLyuzF16PGPdtfhg95eY2EKvJqokduxmQcaD2fxBLUEKyd6ytbVVU+q1KQsLS/0o2j1bUgamca8TEREREVHtsnb1Q9OZa5SyGlaOrnptoaY3/aquLwhm6pwnfqHWWzl56jVVdH4tlqkBTLEYS/84pc9Xj4T9z+HFF5/D+lMVT8Iiqo8YxLQw8+BGQVGbokrWldYcVQ2KFAmUsLCw1JVi3Jta4FIPXir3sPk9bdzjRERERERU+2zbDtPnrOA05l19vuad+mMxlihT7z790E2Zrvv8N+xX15ROmltfSNcXSqCu15tkV5a6jzJ2oB2jhgOh0uS9rOuSZvmyXpJkiXR1Jogpzcc3bdmLBGVaX0YhL415kEOKMQCIFsjUipHZxcLCUrdK8XvT/B6WYtzbRERERERU+6xsHeHQ5zYgT5qK58PatZW2osadQviyP5Vpd9z9+ieYNUKZ3f8h1u9UVxaQpt5+vl6495vf8N7krmh3RQd0bu+FQQ/8puyh0IU9X+DeEH29Utr1mIQXlx3Rg37STFtrMi5Wzemq7vPOZUVHU7944jc8MshL24d/V9zw3o4iQcNTq57DLcb6K1qh1+TnsCpaX4l4LLtTO9f3tqVg50d3I6THrVh2Vl9dWen7sPDOvvBrb1xXMO79Yl/heaUo6+cEo5e/vr5VX9yprL+gr8bOd9Rz8rvzJxw99hNenKHs6+0d+kpq6OpUJuZnX/+Kh575QF+q38yDHealSGDELFDCwsJSN0rx+9S8GPc0ERERERHVDTa+PdRpbuw+XAx/B9LPpX3XSWpdjdr/GxaGKdNuUxDcrQ2Cx41UFuLx5ZpNJWYbLnvkVnyZeAWCgzvBW1k+tfRWPL1UC2Nm7nkHN4U+jmWH49GmzxBtm/hN+HROMK7/dJ+yhSNchw5Bn7bq5vAOVLZRlls7a8uG9+67FeHNlHV9/JWleIS/Mgvvhmtnc+GPxzH+to+wLr0TJs59AffPGgnH8I9w59jnEF4sM/TPF6fhuhd/wtGiMdJK2f/NPDz1a5RyzpMxe+5kdMQRLJv/Cpbsl/Pah0+nD8dTy47AccTtuP/ZuZgYeBGrnhqOe78p1jT/5Bd4eNLd+HRdlF5BjQGbk1ej4oEP82IeNCkpWMLCwlJz5XL3o/k9TEREREREdYfD4AeU/81Hxh+PITd6i1pnH3SLOq05mQj/5UO16fiIO65Vm5K3uXoGpinT+Pd+wrrzsk0x4z7Bio0/4/ufwrHiTQl4AusijuACUhC+5BVIAmefR1dh40ptm60rn4SMmbPzucVYn9Ids777Gc9dr34Mfed9gu+V5WevlnBooW4P6Z9fGY7v58q6eCzdeUSZ7sOSN75Qlrrj2W/D8cGzc/HYa0vw1etDlE0+wqe/Fg0Y7kQPfPDnMZyIrfrgPJnpEoRVzvmOh/DYs59g46ZjOLRrCWZ1c8CFPxbjRbnwG7/EmsWv4bG5L+CDlfMxS6la98Y30OOvmv1RcL/jZ2w5noCYh/rpldTQMYhZA4oHQ0pivg0LC0vNltKUZxsiIiIiIqod1k1bwtrFF3mpsUBeLvIzzgP5+bByuHRwn2pVMKBPP3R1iEJ4+CaEHwK8hsrKkgf4GXN1P7TR59t07q/NJKbAhCPYv1AWrsWt1/eDg7oCcOgzGdPU/f2K/ZFq1WUNH2p83gEdu2vHiM8xAWeP4B+1s859eHGk1mRcSshjm9Rt1oXvhXnS5exHX8DEbm4F51IVHbvdrmaernokGO18++K65xbg70gtOnl0/xfqFEtvRWf9nPzaT4P6dcQvxs7D6lrN0Cfx0v1D0KZY9ik1bAxi1jDzoAgLC0vdLkREREREVHfZ+gerU+umvmg66w+lrFGXhfMNS/U5c8VCINY22jQ/T5tW0oWtf6oD+qh9Vc6ZhBsmS7kV70nzcsW6ZZuK9HepsnXUZ6pPE1t9plQjMevZF/Bs8RLsA/Ozc3cpK3zpowdrgYvFB+HJNCFZnzW4Xv0awla8hllXSzP6KOxc+grunPQc1ptlq3a7/sFLz+nZe9DNPDbt6ljkHKlxYBCTiIiIiIiIiOoXGwc49JutL1hB+sJUi56MYO3kqU5Ffm6WOrVu1l6dCitnLzWLU+RnpanTyjmFlYsXq3MjZhUPvD2IidK2POwL/H65YcoLdEI3aT+N3/DlD4UD8WTu/AlL1KDoOHQLUKsKSXZlRbTohL5yXoiDa88ZmD13rlpmDXCDQ+BITJvSD+XPZW2DTgO0ZuxLv/kJpwoCmSnY+eGr+FRmu/VDR6MZesop/JPeH499FY7dUcfwv9uVuvgv8HN4vJqlKfab/HHNXdo5zZ57LTo6+KDvxNsxXO8DlBqvSgUxbazrV+yzvp0vEREREREREZXOpkVPwMoaObF7kbpgeJGSc2oLJMvSpmVfddv0n29Tp87jPoDL1O/gcsMStcjnL256HdCDnJUiA/qsU6beD2L2C0bgzShP4u5J3ZWV+/DJLyUP8HMpNwy/6QWt/8s3xmBgiGR1BmPgWL2fzBdmYLibuiG8Wmp9aa76zzRlmzF4vUinkWXpjonzJsNbOa/3Jg9GiGSOTh2DkLEP4KnpEwsG/ymvPte/iIneQPwPd2NQ72BlX5Nw3aAOuO4NGTXcG7MenaH2E4ocOV4f3Dx9OELlWM/djTd+lRXe6NTSG65DZ+AxufBfH8CgIWPU/dwQcg1ufupuXPfIj5dms1KjU6nonmezGu5foorq2/kSERERERERUekcekxXp1m7F6lTc6bwt9Sp09WvqNP8jHNIX36nGqyUDEwrFx8tgPnn08g59oe6TWUZA/p0u3scgktodd3tmtsxQpmWOsBPSbrNxTdrXsPEQG/EH96E8PAjiPcegtkfh+OH2RIU1bQZ9xAeC5bo4RFlmyj8vm1vOQOlgLcMLLRgLka0jcdR6cMzbAdOtR2J2V/9jmeHVrD3y9aT8cHKLzF7hL92LmGbsPOkjJo+Gc+u2IyXr9ajrrbdcf+X2nandi7GwoV/4ig6Ydq7yzBbgpcOyvpv1+PliZ3gfXKHup/ww0DHia9hzWczCvoQpcbLasGCBfkTJk3RF8vnu+UbEL5NG1GqPgge0B1TJwzTl8rnoqlif3kgIiovr2ZuBSOhC/a/SURkGfn5+QUlNzcX2dnZiDuXDK91N+tbEBFRdUoY8TXy8nJhZ2er/Na1sUh/801X3qDPFWNl9GeZq02LU9fnK/9v1t+llTWs9L4o86UJdjn6wkwd+70+VzsyU1LUwKSDW+kD66jb2LrBtZKD3GjHcISrWwWDlyVJT8EFtUn5Zfanb1fqdWUq65V/RA7OyvrL9u1JjUWlMjH79w7U5+qH+na+RERERERERFQGCV6WFsAU6vpiQUplOT87Qy1VHcynpkiQz7WMAKZQt6nCKN3aMSwQwBTO2vledn/6dqVu5aCvZwCTzFQqiNm2TQs1u7E+kPOU8yUiIiIiIiIiIqL6qdIj3kjz7M6d/PWluknOr6LNyImIiIiIiIiojjCajdeG2jw2EV2i0kFMMefW8XU2I1POS86PiIiIiIiIiOqnPCdvfa7m1eaxiehSVQpiCsl0fHDO9WrQ0Lu5O2z0gSpqmhxXji/nIefDDEwiIiIiIiKi+i3Xs5s+V/Nq89hEdKlKjU7eGHB0ciKqLhydnIioenB0ciKi2lUdo5PbJB2B0+an9aWalTH4JeR6dNKXiKi21U7aJBEREVFDdTEGBw+dxPlqGfQ0F+ej9uNgXLq+TERE1LBJEDG7zSh9qebIMRnAJKpbGMQkIiKiRiweYT/8gPe//BVh5/SqYo5v+FlZ/wM+2nBMrynm3DYsUta//8M2JCAbe8M2Y93Wf/Drrnh9A5GNjLRkXEhLR65eUylJu/Hr+kNYt3objuhVtcv4/tbjoF5DRERkaabudyLHq6e+VP3kWHJMIqpbGMQkIiKiRswb7VvaKVMTTkcla1VFnEJkrBZ2zI2JwXF1rqjzUYm4oExd27SFF+zQoqU7nBxd0d7fU9tAdQxrfliLRT9sw796TaU4u8PXzQ5Ovt5orlcRERE1Bhf7P1UjGZlyDDkWEdU9DGISERFRo9aqrTcclOn56JNqMLKIM6dx3KTPZych8ow+XyAZR6KlabcdWrXWRjD16jEKt08LxZVeNuqyRdl3QOikCbg9tBua6VVERESNhWRHSj+VEmjMc24BWFngv7XKPmRfsk/ZNzMwieouDuxTCg7sQ0TVhQP7ENU1x7Dqm904nu2KK2eEope9Xq1I2PYrlh40oZmHM84npcO1y1DMHKAFK1VZe/DD4iOIdfTDxGmD0UqvvtQhLPtyP07DEyNuHY4uem1xuReTkS6Jn1aOcHV21CotIesCLmTlXXa/FT++NCcPw960sq+rUC4y01ORma/M2jjDtYlkwZZFmuGnI0eZs3Vwh1Npm2en40JmNvLzrWDfpCnsrTiwDxFRbaiOgX2IiAwMYpaCQUwiqi4MYhLVPdLv5arIXLQKnoSJnYysjmRsXb4WO5Kc0W90CxxffQznPTpg5oRecNW3yNy3Bp/9cwE2Ab0wd1gHtc4IfLYKvl7ZF3BwzQ9Yd0kGp8KlDW68fgC8ZD7pEH79cz8i09Q1GkdX9AsZjoEtzCN3ejDU/LMlObIe74cnwrVLXwwy7ceaE0Y6qaKJJ64MHYpeHmbZK+U+fnElBTFzceFwGJZuSUSmo1I/QalvAmREb8Mvf59CgtmpwKUFQq8ZhE4uxrkU7m/otR44+Oexwu2Vl+FmHXphYnBbOOlVyEvE3vWbERatbSSjksPaDs279sHEnr7IYxCTiKhGMYhJRNWJzcmJiIio0Wvv565OT580Gy4nKwrRScrUowW6tPBDKxdlPikex7PUtYpcHD8jDdBtENBWC2CWxNXHGwGtXfXAmx28WsuyUlp6qM3YcfEQlq3SAoiuLdtg4MBO6NHSETBdwI4/1mP3RfWDlZJ+bDfWRObCq6Uc0x3NJLnyYiL+XrMNp7VNLH78jCN6ANO+MICJhG34Yf0pJGTZoVm7Dhg6sAM6edgBaWex5jflXC4ZyT0ZW/84hvP27tp35aWcj/JSfP7IP1h5wIhqpuPg2jAtgOniiR59OmNgF0+4IhsJe7dg+X6O4E5ERETUkFgkiLlj+3Y8/OAD6Ne3N7ybN0Mzd9caL3JcOb6ch5wPERERUbl1aIFW8qsoIb5w8J7IRMQqE9cWflB+aaC9mpF4AceO6kG0vJOITFCm1u4IaKNVlaRV0FCMG9lG78PSFT1GyrJSgjtpGZ027riigyc69R+DmaED0K9zTwwNHYOJHZXj5V3A3r3mo5xXTG6OHXqMGYcbQ+WYozBj6gAtqHgxFnsjtW0sefyM6M34QQKY1s7odfVQ7ViKXIcW6BLgiV6jxmHG0F7o0bkXQieMwpWSSnoxBjuOFR+zXVlu3g2zJo/Svqtrx+H2vlr+a+zRQ1rfpXk2aNbOD63adcbt1w/H0B7d0G/AcNwysqUaMI779wBKGXCeiIiIiOqhKgcxJWgYevVIfPnlAhw/dgw5OdJrUc2T48rx5TzkfOS8iIiIiMrFui0CZDDxgsF7cnHwZKIyLRywp1UrD0ij59jTJ9VlnIpBZLYy9W2BLlX5RWWvfH7AcIR2ddYrhA1atdMGHLqQLOdRSZ5tMNB8gCHrNujqL+mYuUhK0kdjt9Dxc9RsyxhcgCN6jCk6sJGNaxv0GzocV7Y0Oxc4o4u/Fpi8kFT8GHZo371zYbNxhVPXNlqfo2kXILFjWDvCt+MATBzarch2aNkKAXKJaRkMYhIRERE1IFXqE3PK5IlYv26dvlT3DB8xAj/+tExfqhj2iUlE1YV9YhLVTUb/lg4dB+CuK7O0wX7gjTE3DUV72SDvEJZ9vR+nbbQ6h7+XY9nRbPj2H4fru0rUTFO8T0xNWQP75OJC1G6s23kKp1OKZyQqWnbDfaGd9YWK9YnpFHglbh/UQq/UGOdXOEhRRY5fnNGHpQ0c7HORKU3t7T0Rev1wdDIbIEkG6Ek4tA3r9sQj4eKlxyg8F2N/7hg6cxR6FAkOl/Adpp3E1vBD2BWbjtw8vU9MhUzz8zwwZHowPOpKn5hOXshv3g35zTogv2kb5Dsr1+vgBtjKvzs1+d8B5TvKMSn/wqfAKj0eVqmnYHX+GKzO7Qcy1PAwEVGlsU9MIqpOlc4bkEzHuhzAFHJ+zMgkIiKi8nBo6602+c48exYJZ+JxWrIsvby1AKYokq15Cv9Gywau6NCxMIBZGZnHw7B0/UmcTrVGM7XvSr20cFQzP6vCVnmBvBzLHF8CmDbwaq58F1mJ2LjhEDL0NSLhn9VYulX5XjPt4GvsX0qz0gYNslHOXZ8tTdYR/LriH+w4kw5bN73vTLW4w7W03dY0e1fkdRyP3GH/Rc41nyO33wPIa38t8r17AM6+yj8gaW9f0y/2yvHkuMrx5TzkfOS81PNTzlPOV86biIiIqK6pVBBT+pyUZtv1gZwn+8gkIiKiy3Jpi/ZuyjQtETsOJ0LaZLRqW5BKqXBEez9pcp2N0/uO4bR0jenhjfZFMg4rLuqkHMsG7YeMwwy170q99NGac1c3Sx2/WfdBuHFsX/RwATLPHMKaI8bAOvH4N0q+LGf0mzAO1xv7l3KFeRP2Coo+jcgswMa/F+6aoPedqZRrR3RFQBX/mVSZkxfygu5EzrivkNfjNuQ3M//3qO6S85TzVc9bOX+5DiIiIqK6olJBzKVLvtXn6of6dr5ERERUG9zR3k+yKtNxXA26uSIgoGguomvHFmq25oUziergMs3822qD81yWkVmYi5xiI3HnqK2rreHgaH6sXBzfH1Mkm7G6WOb4nujVt4WymxYYGtIGrta5OL19M/bqI5tLU2/5Dhz0gX40ydh6WO+XszL0Vum29sUilpFH8G8tDkye13kqcq75n5rhWPNZlpZipZ6/eh3K9RARERHVBZUKYv616S99rn6ob+dLREREtcOrjWfhIDElZVm6+KGViz4PZ7Rv567PX443fNXhyZOxdfla/PrnWiwNP6au8fXWsjsPhq3Bur37sffQbqxZ/itWRZbQP2U1sPjxvfoiNNBR2WUywtbtQQY80aq5BEgv4O8VYdh6SDnG3m1Y9sNa7EjSPlIpPh5opvySzTy+S/ku9yjnvR9bw1bhf38lqFm0NS3fo73WHLvLdGWpofT9ZqVej1yXXB8RERFRbapUEDMqMlKfqx/q2/kSERFRLWmhj2ytcG3hV0KWpTfat9A7XHTx1Jqfl4s7+g3sAC9l35kpyYiMTkbCyRgczAaa9bwSoe2UFaYLOLjzEMK2HsORFBt0uqqDNhp3NbP88W3g268vesiXl3AEy3Ymo/2VA9CvufK9pcVjx1blGDKIUI6r8p34FR1ZvCLcemDclS2Uf0bZymGOKOd9CDtOpMPBvwcGFh3LqNrltxmG3OFv1Ztm4xUl16Ven3KdRERERLWlUqOTN3Ovf519n0+WRl/lx9HJiai6cHRyosYsGxlp6ciBHZxdnFGksXp2Oi5kymBB1nBwcoVDiX9qLufo5JVRruNXUdYFXMiStuUlXH+lGd8pYGPngiZ21uro5Lm5ucjOzkZcNY9OLgPhSD+SjYX13gWwPrpCXyIiKoqjkxNRdaqOn6dEREREVCI7OLm4w7WkAJ6ds1Iv68oIIGZlqcG6alGe41eVvat+DEsFMIXxnbrDyd5yey2PxhbAFHK96gjmRERERDWMmZilYCYmEVUXZmISUcWYsPevTUhw9gbOHMfBc7mwCeiFucM66OvJIBmYRqnuTEy1CXm/B/SlcjKdh/Wh72CVsA9WGeeA3CylMl9bV6OU/+7Y2CPfqTnyvbprg/c4qp22lpvNjndhdWqDvkREpGEmJhFVpzqRiTlr1qwiPzpPnjyJ559/Xl9LRERE1Iil7Me+48k4uPeIGsCEoydCBjKAWZvUQXz6zdOXLs8qZgts/pgL25W3wvrEalilxgC58gfz2ghgCuW4yvHlPOR85Lzk/OQ8y0uun4P9EBERUU2qE5mYErgsLjIyEm3bttWXqo6ZmERUVzATk4gqrFr6kmx4zP8oXp2ZmOpo3eUcxMdm/cOwStJGoq8P8j06qIP4lIfV+SOw2fB/+hIRETMxiah61VomZkBAgJptWVIAU8h6ZmQSERERKaqlL0mqDGl6XZ4ApmQ12i6/oV4FMIWcr3re5cjKlO9BbYpOREREVANqJYgpzcclQPncc8+pGZcvvPCCmnUpf52RqZRbb70VGzduVLdhMJOIiIiIap2TF/K6TNMXSmd9fBVstr6uNxmvh5TzlvOX67gc9ftQvhciIiKi6lbjQUwJRn755ZdqgNIIWEqdBDOFTKUsXLhQDWTKelmWYCYDmURERERUW/I6TVD+t+wmkZLBaB3xmTJXW/1dWkq+eh2Xz8i00r8XIiIioupVo0FMCUJKMFIyL4cNG1YQuCyLbCPBTPkMA5lEREREVCvsXZHXfqy+UDqbHe8o/1vfA5iGfP16yqZ+L8r3Q0RERFSdaiyIGRISogYhJQOzooFICWTKZ4xApjRHJyIiIiKqKXn+w5T/LTsLUwbxqbdNyEsjTcvluspkpX8/RERERNWnxoKYRhNyycCsCAl+GkFLaWJu9JNJRERERFRT8ltdqc+VTJpd17dBfMpLrutyzcov9/0QERERVVWNBDElCCmjjUsmZXnJ9hs2bFCDnxK8FJKRKfuQdczGJCIiIqIa4eR12RHJrQ98rc81TJe7PvX74QA/REREVI1qJIg5c+ZMdSpZlJcjAUppOi4jkksWpvSHaU72IcXYJxERERFRdcpv3k2fK4XpPKxSY/SFhkm9PuU6y3LZ74mIiIioCmokiCnBSCObsixG8NJoLm4ELIsLCwtTg51ERERERNUtv1kHfa5k1oe+0+catstd5+W+JyIiIqKqsFqwYEH+hElT9MXyaeZe/tEHJdgogUnJqCwrkClNxyXYaU76zywpiClNyaWZedu2bcs1wrk4n3xBnyufi6YG1ik7EdUZXs3cYG1trRZhZVX2QBFERFQ++fn5BSU3NxfZ2dmIO5cMjwr8dq0Mm50fwCpyrb7UcOUHjEJun3v1JSKiSyUp7915ebmws7NVfuvaqL9zjUJEVFXVnolpZEyWFWyUoGTxAKYxiE9JjH0xG5OIiIgak93vj8CIq7XyyK+xem3NqyvnUWeknNRnGrjGcp1ERERUJ9VIc/LLKWm08bIGASpPYJSIiIiooTElr8f6tVo5maZX1oK6ch51hVV6nD7XsDWW6yQiIqK6qdqDmEagsXimpUH6wTTPqJTtpek5A5REREREVC9kN5JIbmO5TiIiIqqTaiSIKWXo0KF6TSEJXppnYUr2pfRzeblBgIx9MdBJREREVBYTkpOT9WLS68pmKtg+GaYcvbLKzM9D2a9e22Dk5+szDVxjuU4iIiKqk2qkObn0bVlS/5UyOI+Q9RK8lKzM8pA+NMsz2jkRERFRQ7DlP9qgCIOf1SsUP09vUTBYwuQlxfqlzInF+v/OQJcWTeDh4aGXJmjRfQbe+jtZ36io5H8+xIzuLdCkYHsPNLFrh7GPfotD+kcqfB5pJ7HqkvNQ9tuiC2b8dz1iC4Kkyfj5Nm0fUu79tfg5nsQXYwrX935nt15vSMaquVbqgGk2Nja4a3kcNj7TBi4uLvp6IiIiIqrvaiSIKRmWEsQ0gpZCmpdLnYxALqW8WZVGoLOsPjOJiIiIGq20LXh5SAuMkOBjsZhi7P5v8ciQzpixpNgALRFvYUy/e/Ht/uKD9OhByGtexpaKtiQ+tx5Pj9KDoMV3G3sI3z46Ar2uNvbrjuET71FXiQ9/34wiYczTW7Dqd31esfv3XcqZmUnejFUf6/O4Dddc6YOQWS8gVK8hIiIiovqvRoKYEqCUzEkJXJr3jSnZl6WNQF4S+aw0P5d9sSk5ERERNRa+QW/izTfexD3X6BWKXjc/pdZJGdPWUa+Nxc9zJ+Hprfpih0l4eMFPWLf+J3z+f5PQVq2MxbfT78UXx9QF1e7f38QWfR4Db8dTst9n7sGYDlpVW48knI2t2Hl8O3cEXjbOA77oPO4eZb9PKZ/VzkLEbngakx5dpQYs3Ucp56pVAx+vxy6zNuexm37Cz/q8au23WG92/smbVuFDfR53T8Kw5sq0/UTcdYePVldfWNvCys5JL03U5csy+wxsHQArK31FCaxs1P0W7F9ZJiIiIqovrBYsWJA/YdIUfbF8mrm76nPlJ1mXGzZsUOcrknlpMP+8BD8r6nzyBX2ufC6aMvU5IiLL8mrmpjZ5lCKkaSQRUXlIc26jKfekb8/ip2m+2oJh68toMehpqImPQU9h86aXMMisRXXssnvRa9KH6nrfJ9bh5CvD4SgBxxtaYMYP2jaTvjqBn27Wf2tF7sZ6U1sMD3TXlnWXOw/ThqfRdvjL2nlgEJ76YxVeGlW4j5Nfz8DgW77V1/fCm7t34eEgE9Y/2gQj/qtW4uE/LuLNURIULXp+hjELTmDlrXKe0pTcA2P1TMy5KxLx3lg35ObmInvnW4hreQs8KvHbtSJsfxqvz1WeBBVtWvaFtYe/VpGfj9yzEciNP6Atl8TKGjbNr4CNXx91MT8tDjnRW5GfmaouF2ft2gq2AUOUGRsgNxs5UeHIu3BaX1s+OZNX6HNERJdKUt678/JyYWdnq/zWtSnoBoS/d4nIEmokE1NI0FKCl0YwUqblJRmYJ0+eVD8jI5cTERER0aV2b/hADwwqPGKx/uO38NZ/C8viHUlooa+OfXUVNqvZjr7oPKiXWid+fnQsZjz6Ib79fTdONu91SQCzPA5t/aLwPO57Gk+bBTBF25s/xIcFP+l2Y9UOaRzuiMGjCnIx8dbazdoAQOc2Y70ewOz1xmJ8MEqbX/XDeq1JuWmXcp1qleIejLnS7Fg9rtNn6jrlBd/FFw59b4dD79sKil2Hq2Hl5KlvUwIJYvp0Ldy+42hYOZQesLV2aw2HXjPVbe173gQrZZmIiIiovqixIKaQQKaRRSmBTOkj07x5eXEStJQ+MGVbIwhakebnRERERI1HLE6adz654Qs8/egjeMS8vPotCofE2Y2TehJer5tfwj1603G1v8r/3osZY3qjXdMW6DL9Q+yuUH+YRc9j0qDeMBqZF3JHr2GT9Hlgfay2veOQMYVNyr9erwZZpan4F2qFLyYPmY7B1+gB199XYYty/iZl/VtaDTDnGgwqEi8t/x/Na5W1DWzc/WHt1kavUFhZwaZlb9h4dtQriIiIiBq3Gg1iCiMYuWjRInWUcQlQSpalBDSlSNBSplInRfrAlEF8Ktp/JhEREVFj5tttOIaPKqsAJmP0nOZj8MGWzXhzWmcUbRgei0NL7sWYud8WHUinujgOxpj/0+djv8CWiGRsXquFMOF7L4YPBHoNmwEtjPkzftp0UllfEMLEPaMHo+J5o7XPys4Zth0uHYbI2sUXVq6tABs7vYaIiIio8arxIKaQQKYEKyUwKc3DZVkyMiWoKUFLmZc6CV5K3xnGiORERET/z96dAERV7v0D/7IJCCLgBm6BO+64S5aJWYmZqdmiWZktt7RV696bZptWb2mr1i3TVrUytTIxMzGzRNNEUXFDITdwQ0SWYZnhPb9nzoEB2Rcd8Pv5/887Z5/nnDmNw/c+CxEVxw+BQTYR5O0zse6XdSVOk3rp+4qG/TFlcQwSTsdg0/JPMMUm0Ez8cgoW5w3SU5qC5Vgeud3aLLyAZEStzx+qJ9TP2N8NIUOn6e+biLlfTMdyvam434T+1vCyeyjGdVersHzFVMzT+9AEpmBkoWbrNYMDHOs1gVNTvYapJQe5OXrf7I5OcG4ZAkfvGlKjlIiIiKgaXZYQ0yBBpYw0LjUzJdA0OvyVeVnH8JKIiIioaMmpGfpcvqB+E/ODxxlTMGtzofgwfjHGdRmGye+HY+8ZfZ1IjkP4+w9g3GuRMDUMQv+REzF7cQyWP69vRyK2x9k0VbdRVDmCB03OKwfen4mZa40qn1bJq7V1n+oLCEZY7/xBG936h2KifnDih/P0puTAuEEherP0YISM0ndYujx/1PJnwhBycbt1+ydNya8aAAenOmrRfC4O2YfWaTNZatm5UQc4etawUdaJiIiIqsFlDTGJiIiIqOzcnPOiQUQ8NBijn52OyWEPYLHet6XboImYM8Y6D0Riev+OCLl/qnVgn2fHoWP/cVi8OxzzHh+G0BnhUNHijjkY7NMKwx5fgMXPhaDj7fr+Mx7A9PnqRIq/Z35CWFo50G8i5o039onErBt80CpsMqa/qe13S0cEhc3J65vT75GZmKjXrFTcQhA6If/8VlMQdk3++/cfYhOS6qYMMULOmsWhjifqtB9uXbDkwJL8D7L3/YCc49us65xd4ewfDAd3X+syERER0RWqQiGms7OzPlcz1LTyEhERERUleOhU9NfngTgsf3MW5q1egNlLjEgwEGPfWIVJ/fRFbZ/IT+dYB/V5czHyxtvpNxPL3wiz9h/ZfRJmvmxz1qX6/q8sQETe/rMxcXh+U+3Sy+GHUR8sx8y8cmh7rZ6HWc9q+63ci7w6nbblyCOjlOfXKFUK17Ls3j+vtqZVwZCzJnFs0BYObvXVfG5mCsyn98Jy/ggsSYfUOmlu7txqEBy9munLV56dO3fizjvGYPSokWr6Zc0afUvNsWPHjrzyvzprJjJNF3eyYA+kpdz9E+5T5ZRXWS7Oxx99lHdNMk9ERFTdKhRiXhVQs/rlqWnlJSIiIipS9ylY9OMUhBYI8AIR6Cy9TOoCwjB3dQwWPROmbSnELwhj31iHhI3T0N9TXwc39H8+AjHLZ2Js58L1GwMR9swixKydog+moytLOTz7Y9rGBKx7Yyxsu+pUiixHPtsm5WLSNYVGOJfamuP1eVFTm5Jr3Ho9oM/lwpJ8BNkHVgM5mTCfi4cl9aTa4uDmrSY4OKnlK4nZbEb4qp9UcLk+Yp11Wr8OmZl6v6F2QAJJCSaNQE8Cy8JkH6P8Z86c0T7tXH2LfcnJzkbswYOqnPIqy8U5fz4575pknoiIqLpVKMS89ppr9bmaoaaVl4iIiKg4gcNnY11CBs6dO2edMg5j2VPBBWszektIuAqHs23206aMBAk3Q+F3USMVNwSNnIZFuxKQYbt/9mGskhCyiKCxTOVw9kOohKC2+8l5iy2Hzi0UMxNykZtrneba1AK1ckPoG/nbc98ILRhy1hBSu1JqYirmHFjSTgE51hp6Ocf+Qs7R/NGU6vS6H471r7zamMeOHUNExDp9yWr9+vWIizusL11+2hOogkkj0LPXWpZEREQ1XYVCzDvvGqvP1Qw1rbxEREREJXODt7e3dSopvXO22U+byhL0udnuX2qPPGUsh+1+cl59bfWz7zDJuf0wfQ6wZCQh+3CE+szUBIuqkYlca409J6/mcHDx0OYc1PKVIjp6J/7epvcPqjuwfz8i1q1TATYRERFdOSoUYvbu0wcTJtyvL9k3KaeUl4iIiIiuMIe/0WfsUB1PuHa6TV8AHJzdUafNTXAf8Ix1unoqnBoHITc7Xd/BCc6tBsOhjgSZNgoEeQ7a/y/h533hbXYeAqanp2PN6tX6EvDQw/9CEz9rPwO/rl2LUyetze3LwmKxIDk5GUlJSUhJSSk1AJXtsp/sL5PJdPEo/JVV3jKJtLS0vDJlZVlHsLdntuUtyz2UazL2l2OJiIhsVSjEFHPefgehgwfrS/ZJyiflJCIiIqIrjQkbvnhZn7c/zk17FggVHdy84NzqOjWIjzE5NelSILR06XAzHFy99CWRi1xTij6vcalb4ijmDp5N5P9aF4TZvmuq7tu7F+v0puQDBlyDe++7D7179VbL27Ztxb79+9R8YVs2b4avt5ea/u/111TNzXFj70SrgJZo0yoAAS2b497xd+PQIWPwpHw5OTkqIL05bKjaT/aXqV2b1nhs0qM4cuSIvqf2hJky8PRTT6KpXxN89ulCfS0w9KYb8t5fylKU/fsPXFSmsXfdUWSZJNyUwY3uuXscWjTzzytTUPu2mPnKy6qLBlu21y/lkzB4619/YcJ99yL0umtVX5fV7eCBAxeVt6h7aJDm+HItck3G/nKsnGPXrmh9Lysp/7UDrlbXd9vokSrwlHVPPvE4WgdeVew9JyKimq/CIab4btkKu62RKeWS8hERERHRlcgE704P6/N2xqkO6nQafXHNyFI4OLnAsUEbmbGusFhgTo7TZqw1+KSPTaemwdpMEf0AaO/p3KKftk0/NteC3IyC4Zc9keBO+sI8mWgdy75/SAjatWuPG268US2npqbi59XhpQ7w88MP36uwcM3PP+trrH76aSVeemGGCs8MEkq+NWc2bh8zGpGRm/S1VvJ+ixZ9pUKzTZv+1NdWzObNkXjg/vsuKpMsT3vuPwVqmMp9WPbddxg+bKgqsy0JL6W8EgyePnVKX1tQlnZ/vvzyC4wedSt++H4FcnLM+pbqIyHl449Pvqi8xj2cqF27BMsGmb/rztvVtRQOZOUcd4+9C3/++Ye+piCL2YI1a35W1/fF559ddDwREdUulQoxhdR0XPPLryo0bN2mDZydS+08qVrI+8r7SzmkPKyBSURERHQl80a3Mc/q8/bFybc1HH0CrAu5FpjPHkRO3Ppipg2wpJ227gsHuPaYAAdnV305F8hMRa42Cam16ezfA87N+8DBrb5aJxw8/eDcOhRODdtpC9af/zLyeW7eee2PBHmb/rSGhdKE/MYbb4KTkxP69euPzp27qPVlGeBHanOe1M41+Prr8fC//oWuXbvpW6wBmW1YufLHlXj9tVf1JaBnr16YMvUZ3Kf9feHj46PWSY2/V15+SQV1jo5OuPrqAXhu2nT07ddPbRcPPvQwXnjxJTU1bNRIX5tPyiQ1LgcOvO6iMsko7Bs2bNCXgL+2bNHe70UVAHp6emLC/RPx9TdL8eFHH+e1igsPX4WPPvqfqkVa2Nq1v2DWKy+r4y+Vv7dtzasNKZ/Vf/77HP773DT07x+i1tVxqYOkc0lq3qiBafR7Ktck1ybXKNcq13z06FG88frrSEg4ofaxJTVyX5zxvNqHiIhqv0qHmEL6nJTQcOu27Th1JglJySmXfJL3lfeXcrAPTCIiIiKySw6OcG59PRycrEFkbo4JmVv/h4z1rxQ9/fYKcv7ZqPYTjvVbwKGev5oXuVmpyD68TqrsqWWnJp3g2udfqNPlTri0v1lNrsH3wq3PI3lN0XNzzcjeuyK/v0079NfWv/Dbb+vVfN++/dCmrXUU9xYtW+LqAVereanBtz4iQs0XR0Kwt95+F98uXYbXXn8D4T+vwT333qdvBWL27FG1HaXG55LFi/S1UMHbyp9WYdr057Xj38FP4atVqCkkoPtp5Y9wcXHB6Ntuw+THHkNQUEe1TYwaNRpPPPmUmlq3bq2vzSdl+nj+Aiz//ociy7Rv316YzWZVM/Sbb77OC+hmz3lbm95StVHvuONOzP9kIW4ZcavaJoFsbOzFzcRPnz6Ndu3aqfc7EHsYv/2+Me9eVpfY2Fh9Dhh288145tl/q+mrxUuwfsNG/LDyJxVGC/n8jBqbcg+++HKRuja5xjdnz1Hhp9i48Xes+/VXNW9Lwtn63t54/f/exO6YvepvQttAmYiIapcqCTGJiIiIiKh00melc7PegJOLWraknoI5YYeaL1KuBTnxG5F7wdqsWkLQOp3vsM5rJMTM2v0tco5u0oNMBzh6NUedLrfDLeRJNbm0vREOdepZD0AusvevQvZha0BojwoP6HP99dfDy8sawLq6uuLGG4eqeRG5aZMaHKc4vXr1xnWDBsHBwdoXaN26dTFw4EA1L6SWZmamSQWFUqtPSI3Bu8ePh5ubu1oWElI+/sST+hJUP40VHXime/dgDLhmQIEy3XjTTWpeSJPo7OwsnDiRgB1R29W6Ro0aqfd879138O47b6tJmk9nZFiDaAl0N0dGqnlbUhPygw8/wm1jxqBhw4ZwdKz+P/86d7HWlBUff/Q/THn6KaxeHY7srCx07do1r+VepsmEv/7aoubFhQsXMP/jj/Ku7/333kV8fLy+FapJeeEapVJLV4Ldhx5+GE2bNrtsrQKJiOjSYIhJRERERHSJSL+UMoiPIefQr3r4WDzz6b2wpJ/V5qz7ubS6Lq9ZuMhNPYXMvxci+8Aq5KYbfTzqI5Xb7GdJOozMqC+Qpe0LvWanPZIm4lu2WJsjS3i3f//+vGBLJqmhaYxSLvM7dxYfAgcEBsLTs+CI7hJ2FXb06JG8gKx9hw7w9b14gKQO7TugY8dOal5qOFZ0dPDAVq1Qv35+c3/h63Px+yWdPZtXq1Heb97c9/HSiy8UmNb+8ovaLiSIlRqctoJ79ECLli30pUtDQuAxt9+u5iWQlUGPxt11p3b/2hYYUCnDJOFx/iA/K5Yvu+j6JNQ0HD92XPuMLuhLVkEdgvI+EyIiqv0YYhIRERERXSKWlOPI3P4ZMrfMU1N27Bp9SwnMWar5t3FM5taPAL0Wn5JrgSU5XgWUps3a9r/+h6zor5G9/ydk7/sBWdp6Oc701wdqfW6mzYjmdkaadm/47be8oKuo8E5qIxoD/kjwWJYBfuyJ9O1p1MIsK+mT85prrsWg0MHFTnLenOxs/Qir8r6Xb4MGaNyksZo/feY0UoupbSqfk8Vi0Zes4xMYvPXm3U9PmZrXl6hBmo6/8Pz0Igci6tW7d5HXZUzSv6jJVPBzdnRyvCS1S4mIyD7wG5+IiIiI6BIxn9ylmnNn7f1RTbmqhmXpco5u0fZfmXecBJcF5OaqWpjSf2bW3u+RtesbZO74UpsWIWvPUnWM+cR2rQD2HfbJgD6/rl2rL5XNn3/8iaNH8mv0VUSLFi1VX5Vi/759SEqyDjxja9/+fYiJ2aPmpYZonTp11Hx1kUCxTZs2ar5Zs+aY89bbWLZ8RbGTDDDk6uam9q8ouSa5NiFB8aY//1CBZWGJiQl5Ay+JDkFB+pyVhJfTn5+BHdG7tbJ9jwcefCgv0JSBiH777Te4a2WV+2548MGHL7om22nhp58hIEAfEIuIiK5IDDGJiIiIiC4VS442ZedPZZVrLnhccU3QJdw0ZyE387wafVyCzdystPK912VkO6CP1Dzc8tc2xB6Ov2iSQVzuuPNOtd/u3buwefPF/UGWhzTxNgaEkRHLv/rySzWwjkFGI//8s0/1JaBLl67w8CjYTN2QkZF/XGX4+fnlNZWWa5QRyKW/UIPUPpXm9Y/+62E12FBRo5OXlwS5tqOlf/S/D1WTddtal9IH6bvvvKMG2xEy4JFtk24p43dLl6pRx6Um6KDQULzx5mzMeu11fQ8gPj5OBa7duuW/18cf/0/17WmQ8PT33zdg9KiR6nzSZyYREV3ZGGISEREREdFlJ6Gc1PwzyGA3MpK29E9ZeJJ+LcOG3azvCfyyZk2JA/yUpkGDBrjrrnF5tTFff+1VXB8ailkzX8HUKU9j+LChiFi3Tm2TsPPm4bfkNdN20P6fhHWGZ5+diuenT8OTTzyumsNXlAz4c/udd+b1/7ngk/kYccvNqkxvzZmN++4dr5rXf/31Ejz04ETs2rVL7VdZw24enhfoSj+bd94xBqHXDVRh4ojhN6NncDc1YI/hlltGoHnz5mpewt7Ro25V5ZEy3jN+nHp9843/wyc2/Vsa9/mGG25UI5GLv7dtw5jbRqn7LeGsDAg04d57sD5inTrfokVfFVkrlIiIrhwMMYmIiIiI6LKTAX3Wr7fWwmzdujUGXnddif05So1BqQUoShvgpyxuGTECU6Y+oy9BNR2fM/tNLFzwiQrzRIsWLVQz6ZYt85tBS41CqW1oBHOxBw+qfjxl9PDK1hANCbkaTz89Ne/cEvRJmaSW45qff1brZNvzM15E9+7d1XJlybW9/PJMNbK5ITp6pwoTpfalDNZj+Ncjj2DiAw/mhbhyfyZOfDCvvBL8Sllfe3UWtm+3jrQuAakEpaJxkyaYMuWZvPeS+yz3W8JZGRDIeC95j3vuubfcfYkSEVHtwhCTiIiIiKgyrpRgpZqvUwIvozlx3779EBjYSs0XR2r/hYYOVvMywM/G33+vVJNqGZzmscefwIrvf1AjbNuSUG7cuLuxctVqXH31AH1tPqlR+OJLLxcYyEZqkeZaLAWaYpeXlGniAw/gy68WXVQmcfPNw1WZRt92W5UGfL379MGSb75RIWXhwXmElOXzL77ECy++rGqMGqQMUpYl33yratLaMu7hJwsWFgiB5b2+WrxEbTPCT4M0U5//yULMnPVqgfchIqIrk8PChQtzbx11m75IhoxCI98REVWVRr711UiaxmiarFVARFQ1pKmpMZnNZmRnZ+PkmWT4eHvpe1QP55V3A1lXQH99deohZ/hX+kLtJs+Q9MFohKJ167rDzc1dzZckKytLBapCArmqHPyncJlcXV2L7ZezKsk1nTlzGv/884+6pquuCkC9evXK9PslLS0tb+T4stxD6Yc0Pd3ap6j8TvLy8uLo4zXMueQUWCxmuLg4a5+ddXR8YyIiqiyGmMVgiElE1YUhJhFR9bhcIaZTxBQ4nIvVl2qvXJ82MIfO0ZeIiC7GEJOIqhP/Zy0iIiIiosqoH6jP1HJXynUSERGRXWKISURERERUCZZGnfW52u1KuU4iIiKyTwwxiYiIiIgqIbdpX+kbRF+qpbTrU9dJREREdJkwxCQiIiIiqgxnd+Redb2+UDup69Ouk4iIiOhyYYhJRERERFRJljbD9bnaqbZfHxEREdk/hphERERERJWUW/8qWNrdqi/VLnJdcn1ERERElxNDTCIiIiKiKmDpMgG5Pm30pdpBrkeui4iIiOhyY4hJRERERFRFLD0fB+rU05dqOO061PUQERER2QGGmERERHbInJGMlNQ0mPXlgszITNO2p5nylpP2bcHmo2n6Ml0kIw6b/9yG+Ax9+SJpiP9705VxDy1ncWDLFkSfK/rpKjeLCempyUjP1pcvEfXfSN5/A/ZDml2b+z9X84NMrfxyHWxGTkRERPaCISYREZEd2v/7Wny+NBzLdxUVqp3F5nBte/hOnFbLh/DnliPY+tdeJKlle5aMmD83YOWO4/pyeVT82JR9e7H1QBx2ndBXFJZ6AH9GH8fW/RUpVw1zPg6RMUewOfqIvqKSknZi6dK1WBOnL18i6r+RvP8G7Etuw44wXzurxjYtl3Kr8mvXQURERGQvGGISERHZscTtEdhwurQac+0QdvsQTBweDF99jf3KwukTpxB/MkVfLo+KH+vVLRQTx4QhrLW+ojDPrrhN7uHAdvqKWswnGHfefiPuvSZQX0HVQdXIDJ1T4wb7kfJKuS9XDUyTKQMpKSnIzc3V11ScxWJBcnIysrKy9DWXnlxHxLp1ePihBxAfH5+37s8//8D4cWPRsnlTjBxxC1au/BE5OTlqe2ZmJpZ99x2GXB+K1oFX4cknHsfx48fUNiIioisZQ0wiIiJ75eaCujAh+vdtSLTo64rh5O6NunWc9CUb2WlIkaa+WeVoOqyOSUGm7Xsa5ymuyXBWSsnbL4ls1ay5yCbGjm6o6+mBIu6QzgmuHto9dNEXbZV2bZW99tLubalKuO4iybV6wbXYX4Gln6/k7g5sFPUslVOZ3qsK3qe6yKA45uvfQ27AEMDBQV9rZ7RySfmknJd7EJ+VP67Eiy/MQGZm5bsKkADzgYkTELV9u77m0jp96hRemPE87rt3PPbG7EVOtvU/8r+2bMGTjz+G7sHBWL7iB4y49Va8/OIL+OWXNWr7qp9+wtdfL8ZLL7+CtevWw9PDA89OnYrTp+2x3jEREdGl47Bw4cLcW0fdpi+SIcOUqc8REVWtRr714ejoqCbhYK9/1NJlFbNmKdaltMTwbmn45c+zQItuuPf6dnBVW09hw9INiEZL3DmmLxoZy16d8diNQWoP6fcwOmITNhzNDwLqNm2HkUO6wbeI8Or0lpX4OsYNXbtbsH9HCtS/go5uaHdNKK7J2YKvIs9aAyJHFzTvdR1GdvKWPVRfkxt+3YnoM/kJnFerYIwZ2AZ19eU8Z7bg85VHULAeZQMMnhCKjgci8P6faeg6fDgGNtQ32V5Xz5Tij1V9gv6BlVtOIcUIsdy80Pv669GvkR5bFnl+W3ux4tPdSOk4EPf2bWxdVfjaHJ3g2yYYI68OtF6bJQGbV23B1gLX3g0jr2mHzK1yP4sKYYwya4q4d64NW+KG6/siwN1anqLqXnnllbGI63ZvgAE3DkSwz8VxrfUzLqlMZbiPWpnXrYlCjNGfppMHgvs0wKHII/C6egxGtjOeXX/0a5qCzQf07hC056ZR1764M9gfOLwBH2w4i4CBIxDWyqaclliEL45CfNNgPBraBulHt+DHP47gtFFkOUeHbrilr/X+F/U+uQ7OaNSlD27v7gez2Yzs7GycPJMMH28vtf2yy8mAw4ktcDy9WzXrd0g7CWSnStU8fYdLQP7NcfFErkcToH4gLI06I7dpX8DZXd/h8lr67beIjNyEV197DW5uBcskNSrT09Ph5eWV92+owdjm6ekJZ2dntS4pKQkPPTgRzzzzb/Tt10+tKyupEWrS/h4o6b2K2mZrx44d+PKLzxEWNgwffDAP//d/byCwVSusXh2OM6dP4+7x96iySs3MObPfxMmTJzFz5iy4urmp59fJyfrfR2JiAh5+8EE8P+MF9OrdW60jslfnklNgsZjh4uKs/ffhpH7nGhMRUWUV/68uERERXXYe7QZicIATMo/uRrgRCJUqDTFrN2DDcaD1gBDcO2YI7hzUDG6JB/Ddhlh9n6IkI/qgC/qFafsPaQM/ZxMO/BWBJX9no/3Agbg3LAjNXbNxbNtWRKnWmdmI+SMK0Snu6DpI2z5mIMLauiHlcDTWHCgiLPNqif79AtHcTZv38cfAfkHa1AbNrVtLVtKxZ6JU8JbTLAhjtGu9N6wd/Cwp2Prbtor3l2hJwIbwbdq1eaD3ELm2IRgTXA9psduwIipZ7ZKyMwpbz1jg19N6j8f09EbmP7GI1t60UbD1GGMaN9BfBW+uTf0RIAcb508CAnr2xZ3avRveswGcko5g5ZooJKENbrQ5/t4xA9BbwldHNwS0aiBnQPqBDfgu8hTQspv1ukcEo2Ods/gj/A8cKqJGYqllKvU+JmPzmm2IOe+I5hJIavuM6e2G/VsKh8ua9ARsTvTCYPUstUOAezZO74jC5vPatlZt0N7djEP79lrDcl3m3jgcynZB+6A2krhiacQRnHZqgH5y/0f0Rb9m2uqY/PuvFPU+O3dgi7yPPXJ2R27L62DuOVk12c4Z/hVyRn2PnNE/XLpJ3k97X3l/KYeUx14CzKefelI1u/7s04Vo6tdELUuYKIHh/73+GoLat0WrAAn6Q7Ft61Z1jIR9sr+xLaR/X/z000ps3hyJNq0CVFPuoTfdAF9vL2zZvFlN1w64GrEHD6rjhay7bfRIFXrK+7326iy0a9P6ovcqqRxyrJxDQtjHJj2K2W++ge7du2POW2/jqqvym+ZLMHnzzcNx34T788JWafaekZEB1zp14KCHokaAKQHn/n374OziAj9/f7WOiIjoSsUQk4iIyK45ofXA/ujqZcaxyA3WEKg0Z3Zj6wkzGgWHIqxtM3h5eqNRQAiGdvZAZvwhPYAsivZevQaiaxNt/+bBGNzBQ5omwKvzQAwMaAyvJp0xskcD7S/uZBw7Kvu7oOOQEXj09uut2z0bo/WAbujoppX1SBGDxtTxR7uglvCVv9vdG6BrUGdtaoky1ZEr6diGvXDv2Ftx3/Wd4addq1eTbrilq7Yl9RT2n5MdKiB2L6JTXNDu2lD0ay7X5g2/rqG4roUTkvbFqBqSOWapjegC30bG9iF46J4wDGiira7jpdapySkBGyITkO7VErcMCbLW4lTnd0LzvkMwvGtLNNLuXYB2/rtu6osxYV3hq523rnG8Zz2k79mGrWe0/fuHYqCqFXkKW3eeRWbDdhgzqJ31un3bYPDgQPhmncL2PUWEyKWVqbT7mBCDPdqrV4cQjOwpZdauOSgUI7Xn6iIWD/S+fgA6qmepG4YPaAZXpCEhQe5ZMwS31Y45eQRRec9zMqL2JwP1myPY34yY7UeQ4uSNgcND0Vvuv29L7XxDMGbIANzWTa8FLEp8H6ppXnzpZbzz7nsYN+5u7Nm7Ty3XqeOKL774HPHxcdj45yacSUpWNRJfe+1VHNG+Z06cOIEVy5dj4aef4fTZc3j7nXeRfO4cOnfujG3bd2DgwOuw9LvliD0cj+AePfR3Kt6+ffuxfn0Efv5lLU6dScLjTzyJk6dOqv4qSyqH4aP/fYAbhw7FAw8+pK8pmYSU6yMisPaXXzD8lhHa9dZR6zNNJrw6ayZuvOF6vPF//4cZL7yI5s3L9D/5EBER1VoMMYmIiOydo7/2h3ggvJCGrb9uKbV/TCSlqZpxSbvW4uMl3+dN3+2VmpxpSChuhG64wbdxfvNe33pS7dENjf3kVefroYLDHCMjyj6LPX9F4OtvjffZhv0SkqqA71IxI+XETvz6U3jetX6+01o3sKLFOH1O7lU2Dv2xMu+cHy9Zid+OaSc0JeNYqnYrOrVBgJsJMT9/jw8WhWPpn7txOr9luJWqcSnNwhtgcFhf+Om/vKznr4fW7QoGgHWbtIRfob5NpcbljzEmeHXsj5F5+59FklYGnDuEr/LKp03hR9QI9afPlDAISDFlKvU+XjAhXXseAlrpze11vi0bWENQWy4eaFRfnxcNPeCjvaScP6sWfbto1+mYhj279dHgJSA9D/i17wxf7dpOy9s2bI6uBSoIesCvuX/BvjwLv4+fDxppLykp1vehmkWaZ7u714VLnTrw8fFRy+fOncO6X9di5MjRqnm59HPZtl07NGncGH9v24o6Li6qlqI03T59+hT69w9RzbQ9PevB29sbTs5Oqom5r69vXkBYEjc3VxUsSj+aMsCQBIvDht2M8+fPl1gOw/TnX1A1LeW9SyM1O6XG5n//8yye+fe/0advX30L1DUNv+UWTJ78GNzruuObrxer/YmIiK5kDDGJiIhqgoa9MKZ/A7imHMGaLWUJaFzg36EN+nW3mXpKE+x26FjsEOZu8PLUZ20V241VMjav2oANsWlwvSpQf5+W8C89JyheRboGjP8DX0fE4Z8sL3Q1rrVlEbUDy80DrY3zGVNvazP2ALlG9yAMv20IhvdsBn/PLJyO3Yuvv43AgbyartKsPxLRqW7oesNAdKxIi11pVh2pfd5NO2NM34ubkro2aVmwfN3bqab2A9oW2fGnpoQyVeV9dNWeJX1WqVMH1oazujqd0b+NC9LjYnHAYsaBvYlId2mMbkE2gXlZFH4f/rKtdc4lJeHsmTN495238eADE9X02OTJOHnqlAo4m/j54cWXXsLf27ahY4f2GD3yVuzcuVM/uvzat++galguXrRINUefeP8EHD16tNRyGNzdy/YfupzzXw89iM2bN2Pxkm8wfPgtBfoMlObkXbp0xS0jbsUnCz7FsaPHsGHDb/pWIiKiKxN/6hEREdUQddv1xYCmTkjZtxvRJVXIUbUls5GO5nqza31q6gGPJu0RUCD1qYwEJGh/u0u5Rvbtpr9P44KhUll5usEVJpxKtGkGbUlBWhnG2Tt9UgYi8ka/Wwegn36t7YsY2KY8GvlIeGeC2TUo//7J1FC7hy1aw08FtdnIzK2HgK4hGDniVjwa6g/XrLPYuV+uwYzELRFYdwI2TcDzWc9/AYcK9XOafngnth5L1o7WZOzFil+OIMXTpsl3ngbw9QQytcOb25YvqDm83BujU/OiaoGVXKZS76N6rkyIP3xKX2GVdOSs9qyVX/POzeGbfQo7o6Ox86gZdQPboJ36ZdoAjeQhOnMM0RmybEjDgeidiE8pXN2VajMfX180aNgQzzz7byxbviJv+nbpd7h/4gNqHwn7vvhqEf45ehxDw4bh7bfmqFqURWnQoAEaaueT2paGuPg4fc462N611w7EqtU/Y//BQwgICMBHH34Az3r1Si1HWUktzhnPT4evVpZPFixUNTpL4upaR92H1AtS/ZqIiOjKxRCTiIioxvBAxyG9rLXnSmpS3rAzejd1QtLu37Di7yM4nZqM08eisCJ8G8JXb7SpKVhZLnB1AdJPxOFQUjJSUo8j+tftKHIAbBtO8uvjzDFsPXkKh/5JsK70a4zm2rkSozdg3cHjSEmKxYZVu3GoUHPwoo51Vc2vL2D/bu04udb4LVgRXXSAUWZtglQ/pIc2rsEaKY923sSDf2CR3MM1UTiNFESFf4+Pl/6KDfGntO1aeY6lIAdO8JBm+Ke3Yc0+E+q26oqBTbPV8dYpzRpQtuuMYOnndMtarIyWz+gU4qMjsGTjAWzeFofzUmPy9704ZvZC72vbo266cXwy0rPkDI3Ru1sDuJ6Pw3c/RyFe7n/SEWz++TesXP8Hwg8V8SGUUqZS72PD9mjvA6Ts25T3XCXujcCK3QWD2DKr3xkdm2ifeVQsEi0e6NS5mb7BCR17BsLLnIwNKyOw9Zh2f7Vr2/rrWqz5+wD+PFTB96Ma48KFFKSnZ6iwT5qBD75+CP73vw9w6NAhNQiONPW+5eZhavCeXbui8fjkSTgUG4u6deuiRcsWanAe2c8gTcEvXLiAzMxM1KtXT61bufJHpKamqnN+v2K5WidkIKD//PtZnExMVE3a/f2bIjMrC97165dYjvKQQYV2a+W+4847VZgqgwLJJNcrI+ovWvQVJj/6CE6cOK764lwdvhpbt/6FNm3b6mcgIiK6MjHEJCIiqkkcW2Lw4JbwKvFfcAk7B2JgMycci96Cr5euxddrY5FQpzEGhg1Eu8o09y6gDa4L8YdX6nGE/7AWny/dhA0pzdG1xAF0G6NHsHZMTjI2h29A+G/RiJJMylE/V04KYv7YhM9/iMJ+9/bo52c9yqroY726BaN3Q0ck/q0dJ9e6IQEebbT99KMqRPohDeuFrr5ZOCDl0c679I8EmBq1xHBtfSPt7MGDeqGjRxqi12/Qtmvl2ZcGj1ZdcV0AcPrwKaRYpGZlFBZpx8rx1mkL9qs3aIwB6vxA/N/yGW3Ayr/PAo0CMXJYMHxxBPtPmAFzCrb+ZHu8Vo4oa3cCddsNxG39G8P1ZCxWyv3/YQu2nnJCQP+BGN764mbZpZWp9PvojX43atdc35L3XC3dakL7vmUcnOkibgju0BiqrmeTlggu0IdmL4wJbYlG5rPYvFa7v9q1bT4O+HUNwZ3Bpfc1SDVXz169cOzYMdWU+6UXX0Bmpgn33HMvgoN7qNHAG/p64+GHH1S1H3v16o127dqja7duuGHIYDRq4IMXZjyv+sSsX7++mkJDB+OBiRPQvWtnbN/+Nxo3aYL7H3gAX3+9BC2bN8XkSY/gppuG6u8O1S+l9KHZu1cPNG7oq/qivOOOO+Hm7l5iOcpDRlSXIHTY0JvUdRqTlFPC1rCwYarmZ78+vVUZ3pozG9OmP69GOyciIrqSOSxcuDD31lG36YtkyDCVof0aEVEFNPKtD0dHRzUJ2z6wiKpcdhpSMrPhXKce6hYaMKbqZCM9NQ05Th7wcnfR15XCYkJ6uglw9UbdAodYz4WSylvcsVkpSMnSVtf1Kjj4izgQgff/TEPX4cMxsMjuIvdixae7kdJxIO7tW3DgGut5LXC+qKy60raXxviMKnq8cf8d3ODlUc4+JYtS0n3UmTOSkWZ2gYenhzWErKjDG/DBhrMIGDgCYa2KPlN53ktqtRmTBEVSq+3kmWT4eFcq0qZLTGo5Si1JqVnp7Jzfm2pWVpYa3EZCRtv1oqRtUjPTbLbAwyO/j9eS9hdyjEn7e0AGFzL+vTaUdmxVKakMRPbqXHKK9t+wGS4uztpz66R+5xoTEVFl8V9DIiKi2szFA16e3tUYYAoX1NXeo8wBpnB0U8dcHNpZz1VieYs7to6Xdq2FgrfsbNVUOt1k7UfR6aLTattlU0YW1P98WdTbqvOWEDCWtr00xmdU0eON+18VAaYo6j4W4uSuvV+FA0wTUlJMgOUsNu86BbO7H7oWE2CKyr0X1UQS2ElwVzgglNHFZdTvooLDkrbJaOK2AaYoaX8hx8j2osLD0o6tKiWVgYiI6ErEfxGJiIioljLjwMaV+ODTpVjwdwrg0xwdffRNhsOb8NFXS/H+1wdw2tED7dsWqoVJVe/8XqxcsRLvfx6BrckuCOjdA831TURERERExWFz8mKwOTkRVRc2Jye6dMwpR7D/eApy3BugfUv/i2sXZicjPv4YUnLc0Lh1IPyqtcYqWZmReToO+89Y4NUsEAFeFa6CehE2JyciurzYnJyIqhNrYhIREVGt5eTVEh2DOqNrQBEBpnDxRkBbbXtQGwaYl4wTXBu10e55uyoNMImIiIiodmOISURERERERERERHaNISYRERERERERERHZNYaYREREREREREREZNcYYhIREREREREREZFdY4hJREREREREREREdo0hJhEREREREREREdk1hphERERERERERERk1xhiEhEREdnKiMPmLXuRZNGXK8ickYyUNJO+ZGcsJqSnllQ+MzLTtO2pKcis5H0oil3fGyIiIiKySwwxiYiIiGwk7dmNrTG78WecvqKC9v++Fp+H78Rpfdl+pCFmbTgWLNuIqHQXfV1B6Qc24PNvI7AmLhuuxf5aTEbMnxuwcsdxfbnsKntvUg5uwspfo3BMXyYiIiKi2s9h4cKFubeOuk1fJEOGKVOfIyKqWo1868PR0VFNwsHBQb0SkZ2QWorpZrh6esBJX1URMWuWYl1KS9w5pi8a6esuPzMSt4Rj6T6ga1gYBja6+ArTD0Tgq8hkeHXtjzuD/fW1RTmFDUs3INqrMx67MUhfVzaVvTent6zE1zEeGDwhFB31dSI3NzdvMpvNyM7OxskzyfDx9tL3qBrOTk6oU8cFzs5OcNK/y4mIagqzxYKcHDOysrKRo31XVqVzySmwWMxwcXHWfus6qd+5xkREVFn81UVERERky9ENdYsKMLNSkJKajPRsfbkwvYl2elYpfxBmp1nPU9p+6v3SUGAvta6EJt6lntsJjbpeg3tHD0S/BkVHtHUD++LO0aG4pXNJAWZZGE3SC11DOahm5xVp0l7aZ1UJdd3dUM+zLlzruDDAJKIaSb675DtMvsvkO42IqKZgTcxisCYmEVUX1sQkulT0moIeQXgorDNc1ToTosJX4o+Tbug6fDgGNlQrgROb8PGaRDQfOAJhORvw/p9p+dsz4rDh152IPpOfiHm1CsaYgW1QVy2ZkbRrA1ZsP4t0PWyr26Izupp3Y7NtbUPLWURHbMKGo/l9QTp5+eP6G/ujnac1ULTWUPRH74ZnsDVefz83L/S+PhQB/6zF0l1p1nWOHug6JBQDm+p/fJbh3MiIxZqfonAg1boIRxc06twbY3o2swa2RVyna8OWuOH6vghw11cYzmzB5yuPIEVftGqQVzMy/egW/PjHEZw2iuPkgY6DBmJwCw+1WLgmpqr9+edZuHYIwd39tfIUW1YX/CGfqbFe1/zqMRjZDshNP4zf5BpOZyHXYlG1MUcOHVRlNTE9Pdzh4uysLxER1Q7ZOTlITcvQlyqHNTGJqDrxfz4mIiKiWqoxOrZ0A04nICZLX5UVi1jVEaMJ8YdOqVXi2OFTyHRpgPatCtdOzEbMH1GITnFH10EDce+YgQhr64aUw9FYc0BP6OL/wHfbziK9nj8Ghw3BvSOC0SZjPzYnWjdbST+UG7DhaDYateuGMWOGYMyAZvA1JWDNDxtwwCifSE1AdKo/wkbIPv7wykrB1vU/Y9VhNwzUzn/noJbwdUpD9O/b9T4hy3buQ5ujcSDdTYWJ6jpaOyHpYCz2Sy5qScCG8G2ITgICevbFndr24T0bwCnpCFauiYK2uiCvlujfLxDNJUP18cfAfkHa1AbNZdvpLVgacQQp9dtguHYN944JQb/GWYiJ2IDN52WHgtIPb8CSyLNAi84YIwGmtq74snqhfY8g9G4qfXl6oJ163yAE+2mL+jXsUtfQB7ePvhZDg33lLaqE1FZigElEtZF8t7FGJhHVBAwxiYiIqNZq1LoxvCzJiD1oDRwzDyYgEd5ofZULUo4f0cO5WETHZ8OpWTO0Vsu2XNBxyAg8evv1GBigncuzMVoP6IaObmYcO3JE225CVIw1AB188wB0bOINL982GDisM1rb5qFndmPrCTO8Og7AnVe3g5+nN/zahuDOQc1QN+sstu5J1ncUHuh6bV+09pV9+qN/C+1EaWYEDAhFV+38jQL64oa22h+bGWcRf07bvYznllqJcHJDo4YN9OsYjkfvHIiOUjkydi+iU5zQvO8QDO/aEo207QFdQ3HXTX0xJqwrLooC6/ijXVBL+Eqm594AXYM6a1NLeMGMmO1HkKJtv+GmYARo1+Dl2Qy9b5D7kYboXXLP8pkl8Nx4Cma/zrj7+iC9ZmtJZXWDX2vtXN5yc93QQr1vZwRIRUvjGvrdiJu7tERDz0a4qvNAdb7Kkj4wpeklEVFtJd9x8l1HRGTPGGISERFR7dUwEAGeQOI/sciECTH/JAMNGmNwKx84nT+FA1IzMP444rOdEBDYxnpMYdlnseevCHz97ff4eIlM27BfajeqwRBSkCI1GRv6o2Md2VnnGIjmRlN1kZSm7emGgFaN9RW6ps0R4KZtPpWgr9C4eKBRfX0eTvDxsNY6bCS1DXWNfKzNslURynjudt0C4WtOxoaly/HBt2uw8u84pOjN30+fk4uoh9btrOc11G3SEn51yvNH7VmcljbmWafwyzfG/dKmb6IRr5U188zZ/CbomQn4MfyIVgY3tO7aLi/AFCWVtTjGNbRqU/W1iWQQHyKi2o7fdURk7xhiEhERUS3WGF1aeViblKdYm5L7XdUergHNEOCShkOxyTgUdxZmNz90DdAPKSAZm1dtwIbYNLheFYh+3dtoU0v42waWVc3VDRf34OgE58r+amvUC+PuGoDBHf3RyDkN8dHb8PmKbVCt66ta/cb6vTKmdhjQJwgDu/jpfZNqsrOR6dkAzT1NiNm0DYm2IeWlLGsZyCjkRES1Hb/riMjeMcQkIiKiWs23TWP4WpKxf8MRJFq80Ka91NRrg/bNnJD0zxZsP26Ga4vm1v4cL5KAhHNA3XZ9MbJvN73ZdGObkLEBGsnCGZt+N4UlDsfO6PPC10M7xoT4w/n9cConjiHepG1uXImRwMt6bosJmQ7+6Nh3AMaMGoWJPbWCpxxD9AmjZucFHDqgDxykSz+8E1uPJZdjdHH9fqSa4dbe2tTbOgWhcV0PBAT654eYLt4YGBaKkde1hFfKEazZYlMbtYSyFse4hsOxxmhCVYejkBPRlYDfdURk7/gtRURERLVb/TZoXR84fSYN0ibbaPbdOrABnM6nIDHbBa1btbSuvIgLXF2A9BNxOJSUjJTU44j+dTti8nIyJ3Rs3xiu2Wex7qc/EHNS2ycpFhtW7cYh2+SvYTfVt2VKzB/4+s8DSExNRuLBTfh6/XGk12mA3p289R0roEznPo51367ExysiEC1l1K4jNkFGoq0DDwkd23VGsJcZx7asxcroIzidegrx0RFYsvEANm+LQxHj8ShO8kvyzDFsPXkKh/6REFK7Hz1awst8Cmu+1++H9l4xG9ZgacQ2rNhuE7S6esFfRj1v1As3dnBDyr4tWHdCblopZdVYu21Lxp7o4zgdH2etxWlcw+Y1+GnXEZxJPY1/dm+QHYmIiIioFnAaMWLEix2COuqLZMjJKXudAyKi8vBwd4ODg4OahPFKRNXFDXXT/8Guk9nw6xiCrk30Eaa9c3B6TyLO1fHHgJAW+bUrz8bhr6PZaNK+PQLq+qKZ5zkcij2B3fsOY2fMUfzjcBW6+ibjpENj9G3TSDtPCwQ6S4h3CgcOaPvsT8SFBh3R0+MUjmXWR+dOzeEBZzQIaAz3pBOIiTuOmJjDiDlyAZke/rhh2AC0c7f+78qnD8UgLu8Yq/TjB7D7dB20Cg6E9m5WBcpYlnN7oVWzHJyIPYZde/XrSHNCo269cNNV9bTtHmgZWBemhJPYf+gIdsf8gwMJGXBpHIibb+qJJkW2MPRAQzft3sSfwaED/+DgP8mo07YN/L2bo12DVBzTyrJbf6+484BfUA/c2qc5pMe1gtfpCM9mXjAdisfuQ2fhE9QFvVuWVFbA3ccJyfEn8M8/R7Fbez3t0gKdm/iiZYA7MuQaYo9gT0w8DpxIR1DbQLi75dX/rJDKHk9EVFOYMm2bFZSfyZSJ3NxcODk5ar9xZbL+5uXvXSKqCg4LFy7MvXXUbfoiGTK0L18iourQyLc+HB0d1ST4o46oJshGemoacpw84OVezMAHFhPS001AnXqoW9JgONlpSMnMhnNp+1VEGc5tzkhGmtkRrnW94FpUmxzjHK7eqFuWMR6M675ofzMy0y4gM9cFHp4eqMiVllxW/fyO+Z+J/OGspszzOJeRjVxt24XzyfDxzouoK8SnvjU8JSKq7c6dv6DPVcy55BRYLGa4uDhrv3WdGGISUZUq6qcrERERERXggrqe3sUHmMLRTe1TajDp4gGvsuxXEWU4t5O7dh2exQSYwjhHWQJMYVz3Rfs7wdVD3qtiAaYouaz6+Yv6TOp4le8aiIiIiMjuMcQkIiIiIrqEDhw4gAsXyl7byWQy4fnnn8cPP/ygrwEsFgu+/vprjB8/Xp2vsuR8586dQ1ZW5ZqSliQnJ0e9h7xe6ZKSkvD666+jQ4cOCAgIwNNPP42jR4/qW4G///4bN954Y4HpwQcfVPfvcti1axfuv/9+NGjQAP369cP//vc/ZGRIX7VWUgN68+bNGDlyJJo0aYLbb78d27dvV+sNJZ1D9pP95TgvLy9cf/31iIiIKHA8ERERQ0wiIiIiokr47bffEBgYiBdffFFfUzzZV6YlS5aUOciUIOf06dNITU3NW5YA84033sCjjz6Kdu3aqfWVIeHYXXfdha1bt+prqt6hQ4dw5513qtcrmQR3L7zwAtavX485c+bgs88+Q2JiIqZMmZIXUu7btw9169ZV6/773/+qaeLEiWrdpXbw4EEVoHp7e+P7779XZZIA8uOPP84LGX///Xfcd999KnzcuHEjevfujbFjx6r1orRzyHZZd9NNNyEmJkYd+/jjj6tzERERGRhiEhERERFVwueff474+Hj1WlKQ+dNPP+XVmpQg69tvv1Xz5SGBzzfffIOXX34Zb7/9Nvr3769vsTJqO5ZUo1LeW/aR2pdlIe95/vz5vBD1civLNZZHaecr7frLW8NUAulmzZqpz2/YsGG47rrrVKh5+PBh7N+/X+0j7yXBuGwzJqm96Opa/CBT8rlKOY1gsaocP34cd9xxh3q2r7nmGowZMwbPPPMM1q5di+TkZKSlpakgVkJII1SfOnWqWpb1sr20c8gx69atw4QJE9C8eXPce++9uOWWW/Dnn3/qpSAiImKISURERERUKdJMVkiQ+dJLL10UZEpwKTUvJciR2pdbtmxRTYkfeOABVSuzrCSc+vnnn9WxH330EQYOHKhvsQZpEqK2adMGvr6+8Pf3VyGZ0VxXwjEJkd577z0VEsk+I0aMUDXgJChq2LAh1qxZgwEDBqgBOIzwSJr4DhkyRNWgq1evngqXbJs9G+R9/vWvf+GVV17R1+SvW7RokZqk6fQvv/yiXrt3745Vq1YhNDQ0L7gzm8147rnnVMAlYZyQcFCWJeAqyzVKs+vFixdj1KhR6h5JzT7bgUVkMspY2vmkzBLEPfXUU+r6mzZtqpr1Sygn5Hh5D+P4zp07Y8WKFepzSklJUbVO586dq/a11bJlS/znP/9Bx44d9TVAZmamOp+Li7Uj11OnTsHHx0cNAij3oqTAWcoj5ZJm3FJOea5mz56t7r1cy9mzZ9V9kOuR5twzZ85U87JOthlknXGMLQlQ5R5IM2+DhKzu7u6qfFKzNi4uDtdee626v0JeZVnWy/bSziHk1Tg+ISEBe/bsQdeuXdUyERGRYIhJRERERFQJErjYkiCzUaNG6Nu3r2oWK82+v/rqK9V0VgLOhQsXqubDQoLPslq5ciUeeeQR1bRYAiJbEghK81xpZp6dnY0NGzaowNO2ya+EfNIXowRL//zzD5ycnPDll1+iR48eKswcPHgwVq9ejTNnzqjmwFI26atRws/09HS1XoI8CfYkXCwPCRX/+usv9R7yKk2pJTC96qqrVFglTp48qUJTCb1iY2PVOimXhGoS+JXlGuUcEhhPmjRJ3XuZl3LLtHz5cgQFBeXdu7Kcb9myZarMEjLK8VILVvp+FHK8NI0ODw9XAazUrJWQWPqzlGbfEqhKwFka+Uwk7JQainKdUiNU7q+cV46XYFJqYW7atCmvXLak/FKjUYJeKYcEkd99952+Nd+7776L4cOHq3tTGXJ9UsNy9OjRqF+/vgrm3dzcVBBuS5ZlfVHdJhQ+h0H6fZVgW54NeWbkHhIRERkYYhIRERERVUKLFi30uXwSmklYJyHaggULVCAlAV1lmmT/+uuvaNu2rTqn1NQzSMgn4aP0SShhl7Ozs6oV+OSTT+Y11xUSrErtQKkNJ7UBpYajBJVSA1Bq/clxUttSBl6pU6eOqo0p+8kxUmNO1ksAJs2hjdqTZSXHy/tKcCqv8n4SXkkfihIeSkgoYaa8n9QQlb4UJbD7448/VMgq5SrLNUrgN2vWLBU8yjHyPlJuCQolTJ4+fboKMct6z6QWqpxL7sfVV1+tAjYJWI3jpcmz1ICU0FGaiEtwLcfL+aRptNR2LI5c37Zt29Q5ZPCmGTNmqPsk90je8+GHH8bevXtVwDp58mRVS1XCZ1sSEMr9k/eS4FlqM/bq1UsNkFOY3BcZeEfuSUXIZ/Tpp5+qIHTcuHG47bbb9C1lV9o5pIauhPSyXf67udL7TyUiooIYYhIRERERVYKEWxUlzWzLSpoBS21ACcukT0yjWbPUkpQwUkI4WxIWSphq1Jq0ba4rZFRsCUOL6wtS+miU0FTCQIOEbNIvozSNrwoSuElQdeTIEVU7U5rIDx06FLt371bN1iMjI1VtPAm/ynKNUrbC/UbKfXrnnXdw6623qnBP7kFZ75kEisY9k2uXey/3zDj+iy++UDU+jSkqKkqVVaaSSHAsx0qAKTVd58+fr0JmIe8pfWVKwCrvKYGo3BNpah4dHa32MchnJ+Xx9PTU11ibckuwWlhlBgWSEFhq5UptzqVLl6owW8olpLallKNwQC/Lsl62i5LOYZCauRIcS41W+bykuX5xzycREV15GGISEREREVWC1BqrCAkwJUgsKwnYJFCUGnsSIkoTZAnDJJyS80jwZ0v6ZZQmvRWtedeqVSvVnNu2ObDUQJSATsI8W0bAJ82ZjSbPEmKVVpNOal5KH50y6JHU7pRQU4JTCa6kubbUQmzfvn2Fr1Huj9EvpdRmNEKzyt4z43gJGqUvUWOSGrfSZUBJA/AIuTapGSm1DaVchfeXPjCLajou99mWUQ4JgeXeC7nmwmFnYXKM7G/0tSnvJZ91UeTzfvXVV1UtUGnuLaG9bRguz4nUgJUm4rakFq2sl+2lnaMw2Safg4TFxnURERExxCQiIiIiqgQJhKQ/w/KSEakrQmrZvfbaa6o/RumHUWq6SU09qbUmTYslAJRwTmofGoPylJU0o5YgT0InCZokHJM+PKU2owwCM2/ePFVjUILFwqS/TOlTcufOnWp/KZ8MYmRLziuhqAxWI2GbhHJy72SwosaNG6tQU8obHBysRrqWUFOag8t+5b1GCebk/kRERKhzSZNtuQZ578reM6M80q+j9JEpYaDUXJXag9LcX65Nmk3L/ShMyiEDHElty549e6oailIumSQklub60oT/k08+UfdR1kmfqhLm2Q4GJKQc0nekvJcMUnTixAnVR6aEpCWR65P+QyV0lfLI51RUWYXUiJUBqCSwlRqfRlmltqpcpwS+UsNVagrLOeTzldc5c+ao9bK9tHPs2LEDN998MzZu3KiuUz4LubfSh6lRk5OIiIghJhERERFRJUiIKU2Di+obszgS5pSnKXlhMsL3Y489pmr9Sf+REog98cQTavRwqdUnzbKlP8aHHnqoxBpvBgm1brjhBtx1110IDAxU/XnKdb311ltqQCEJnqRmnIRkEk4VVVNRmkZ36tRJBZAy0vexY8fUwC0GCShlm/TdKOUzamlKUCn7y2AuEspJeaVvSQk1Bw0alFf+8l6jhIPyuUhgKM3Gpfwy/fvf/1bBXWXvmdHkWwJHaQIu1yV9ZkqQKTUIpWam1C4tXKNSliWok8BUAmmjXDJJdwESEkv/lz/++KO671LbUkJJGXG8cA1YIf2KfvDBB2pkdCmLXLdcV0kkhJZBoqR5t9xz+Zylv8yiSFklaJQ+VG3LKp+N8RlK35bPPPOM6lNUagzLqywbfV6Wdg75fGTb+PHjVW1Z+Syk71IZab0snwUREV0ZHBYuXJh766jyd8pc22WYSu7Hhoioohr51lf9kskk+OOciKhqSDhkTBKaSFPkk2eS4ePtpe9RMT718/uELInUNJNATGovlkTCS+n/sTpIUCQ14Tw8PNRgNOUltf7k3tn2sSj3U2pnSlBnu74oZdlXmpnLdgnPKqKy11hYZc9X1eWxJfdKPg8JBsv6e0E+A2mqLkHqK6+8ou51ceTzlkBXBlkyfpdUhnEvpNuDwv1dlkV13ksqm3PnLx5NvjzOJafAYjHDxcVZe6asfcoaExFRZbEmJhERERFRFZBwUpomF9dMXGo2yrbqCjCFBEdSS7KiAZAEi4XDRwkfJOQqLcAUZdlXtlU0wBSVvcbCKnu+qi6PLblXcj9LCoCkqbb0rRkXF6eaiEvT8u+++041My8pwBTyOUjZqyLAFMa9kNeKqM57SURENR9DTCIiIiKiKiJBpTTxlkBJwkoJlORVasfJOtlGVJWkn9GYmBjVR6cMiiTN///3v/+p/jaJiIhqEzYnLwabkxNRdWFzciKi6iFBoTFdjubkREQ1HZuTE5E9Y01MIiIiIiIiIiIismsMMYmIiIiIiIiIiMiuMcQkIiIiIiIiIiIiu8YQk4iIiIiIiIiIiOwaQ0wiIiIiIiIiIiKyawwxiYiIiIiIiIiIyK4xxCQiIiIiIiIiIiK7xhCTiIiIiIiIiIiI7BpDTCIiIiKiKmQ+FQPTpreRtuweXPhsiJpkXtbJNiIiIiIqP4aYRERERERVRILK9J8mI3vfSljOHwMsZjXJvKyTbbIPEREREZUPQ0wiIiIioiqQsebfKqgsjewj+5aVyWTC888/jxtvvDFvkuW9e/ciNzdX36t0xnl++OEHfU3tdO7cOTz44IP4+++/9TXlk5SUhBkzZqBDhw7w8vLC7bffju3bt+fda3ldsWKF2h4QEICNGzeq9ZeSxWLBypUrcf3116NBgwZ46KGHEB8fr2+1lnHDhg0YOXKkugbZb/ny5cjJydH3KBt5H7mfWVlZ+pryKUs5qvpaIiIicMcdd+Dw4cP6GiIiqi0YYhIRERERVZLUrsw5vlVfKp3sW9YamRLinD59GldddRX++9//4l//+hcSExNx3XXXYfbs2WUOpozzpKam6mtqJwnFjh49qkLb8srIyMALL7yA2NhYfPHFF9i5cye6deuGO++8E7///rvaJzk5GQsWLMCzzz6LyMhI9OjRQ62/VORz/Prrr9Wz8MADD+CPP/5A/fr1cdddd6lgW2zatEkFub169cIvv/yCMWPG4D//+Q9WrVqltpeVBJhy3q1by/5s2yqtHFV9LRJ+SgC9f/9+ZGdn62uJiKi2YIhJRERERFQJ0s9lWWpgFibHlKePzBYtWqjgUmqkffzxx1iyZAnmz59/UZgjwdD58+fLHFZKLTsJq4oLQ+U8cj45b3mUdt7Sylna8bbKUmOwLNdx/PhxFUxOmjQJffr0QWBgIP7973/jnXfeQdOmTdU+8l5Spvbt28Pf3x8eHh5qvZD1ZS1zRUmA/fnnn+Ott95S4WpQUBBee+01hIaGqmdC7sGpU6cwZcoUVfZ+/fqp2o333HOPCgGLC3fLc7/Lwmw2l1qOqryWzMxMzJ07F02aNIG3t7e+loiIahOGmERERERElZAdu0afAxxc68Ol9ZC8yTlwEBxc3OHa6wG49n8SDnUb6nta2R5bHg4ODhg4cCAmTJiA1atXqxqEQpo9DxkyRIU49erVw7333qtqJdqSEC4hIUGFVR9++KEK4nx9fdG5c+e82obin3/+Uc1y5TxyPjmvnP/s2bO46aabVBlsp1deeUUdJ2WRIMr2vBJIGeHYokWLVCj11FNPqfNKOCjN3NPS0tT20o4vTMp07bXXqn27du2K7777TgVohsLXccstt2DHjh361oJcXFzg6uqKEydO5IWdzs7OCAsLQ9u2bfHnn3+iYcOGWLNmDQYMGIDu3burWn9Sto8++ght2rTJK7M0OZdzGPdLrvv+++/Hyy+/rGoLymRbzj179qjahn/99ZcKpiXIO3LkiL413+7du+Ho6FigBqhRRqnJeObMGRV0P/zww2q9kM88PT1dXZsca0vKIGW3vd9SdjmX7bXKZ7xu3Tr1zElNVFuy/uqrr0ZcXJy+BnByciq1HFV5LVJm+ayffPJJtY2IiGofhphERERERJVgTojS54BccxYsF07ApetYwMkVuRcS4Bb6MiymC8g58Tdc+/xL+wVuDWOE7bHlJSGRBEfShFZCHXl9+umnVWAnyxIASUAogaHUsJNATQIrCQwlFJTmujJt2bJFrZ8+fTpmzZqlAk7Z/5lnnkGrVq3UeaQGowRxElTKvnK8rJdJ+ieUGnQSJMp7SC1RCfs2b96satJJQPbmm28WqDG6bNkyDB48WNWek+O/+eYbtX9ZjzdIWaWGnvSTKGWUWpTSBPzXX39V243rkPIZtT5lXwm6bPtdNLRs2VLVwpw8eTJGjRql3ltCYCPQ7N27Nw4ePKjKLuHx+vXr0bp1a1W277//HuHh4er+fPvtt3jvvfcK9Mv57rvvYvjw4XjsscfUZyRhpW1IKaFdly5d0KlTJ7Rr1071fWpby9MgNROla4HC2yRwlBD2woUL+horKbvUWpSyjR49GnXq1NG3WB07dkzdf5mMMFb6BZVm9LbXKp/1Nddcg7vvvhs///yzurdCrldCTNlP7l9xiipHVV2LlFPKLc9C48aN1ToiIqp9GGISEREREVWC5UKCPqfJyYD51B7tNR2W5DiYz+yDJeU4XNrdCIdcC0y/v64dkF+jsMCxFSBBpkGCPwmRpFmuu7u7GiRFAjnpB1NqK0pfmp988glefPFFVQtSAjMJ1ho1aqQCqeDgYNWPoNRCjImJUaGVBG5yHhlQRY6RWo4SEvn4+Kj1Ena98cYbKgCVEFNqHUrA9cQTT6iaixJEyXrp09C2+a/U6pTQS0IoCWKl1qH0Q1nW4w0SXknwJk2MpYxSLjlWAjhhXIexXcKy++67D82bN1fhbWFS21D6Y9y2bRtuuOEGFUxKqCjXJzVFpbzyHlIrUGp2yrzcMwn5pIanNGWWe9msWTP07dsXa9eu1c8MFRBLrUI5RmpsSnN0GYRGyDESvEpAKGWUa5dATu5xZUiZZ86cqe6J1PwMCQnRt+STa5L7LIHryZMnVVA5ceLEvOszrlXKIvsatSblmRISxMq8BLO2z6OtspSjNMWdQ9ZLc/9bb70VPXv2VOuIiKh2YohJRERERFSNMiPfgSniJTi3vh7uN78HOFTNT3CplRYdHa1CRQmXZDRmCb8kcDJImClNa6XGmwxEI2GgBFYS1klgJcGTMXCNBJZSi1GCQqmlKLUBJcQySEBlG1LZhkcygrecU0JIae5rWyNP1kuAKP1NGs3e5TyyXkgZJfSTMpb1eIPUkpQw0LacUovPz89PzRd1HXKvPD09VdPjosj7Sf+jjzzyiAonZWAZqWkoA9AUxagFKwMBjR07Nm+KiopSNU2lNqmoW7euehXymUjoadRoNALBsgwSJJ+v3CfjvAapZSqBqpubm1qW6xs/fryq4fnjjz+qmqXGPbclzcj/7//+T4W68jlIeGuUpyhyL6VWrpxTrk+CWPkMJJgtSknlqIprkZHNpbwyUryMYi4BtNS6lVfZv3BtTiIiqrkYYhIRERERVYJjPX99rigOcL/hdTg17YGco5vhWMdLW5UfBJZ8bMn27dunBkWRvjElDJKm31Iz0Ta0kdBPgiYZoEaaPdv2Ibh48WLVR6T0xSg1BqU5sRGiSSB04MCBvCbDQmo8GjUhZV4GURHS9Nror1Bq68l72DaTlrA1JSVFBWQSWJakvMdL2Ch9UtqWU2peyoAxoqjrkMBMQjJpxlyYbJMaoXJ9BqmJKaGd1FAtioST8j5Sw1P6jzQmafIstV4lNC2K3GsJcyUklWBO3sM2bC2O1KCV2rVy3QZp0i01VWWbBLhyvdKMXgJdafrfoUMHfc+iSd+e0qxfwr8RI0aoPkllvjhSi/bQoUMq+JQgVgLZovqhLK0cVXEtcryE3B988IEqtzQrl7455fX9999X24mIqHZgiElEREREVAlO/sH6XL7MqM9hTjmmzeXCtP4l5GZegIOjE9LDnwAs2dadNEUdWxwJEKXWmhHQSNNkaT4rtSiFNMuW8G/hwoWqlqTsO2/ePNVcXGrKFUXOKTXeJOiUIM1oYt2xY0cVGkkIJOeREFFqXcp7SkD47bffqhp4jz76aF65JPSSgWEkjJs9e7YatEVCQRksSEZRlxp+Rs264kiIWZ7jpeapBKjSj6aUUQIvaSIvNUpF4euQ+/LZZ5+pfiCluXdhUrNVBpWRa5XzSZgpfXNKUCdhZlEkWB06dKg6r+wrNUmlVqzUUJXQrTgSWEoN1mnTpmHXrl2qSb1BwmipHSllLkxqqQ4bNkz1bbp161YkJyer95EQWs4nYaKEgjJ4kdRelBBYziOT3B8pny3ZT5qPS9grTdkl3JXw23Y/eQ+5H/KcCNlHyitN3kVxNUhLK0dVXIvUILYNj+VZkVBWXuU8Eu4TEVHtwBCTiIiIiKgSXNrcqM/lMx/7CzBZa7LlZmcg59CvyD4Qjtz0gqFUUccW59VXX1WBnIQyS5cuVX0svvXWW3mDokhtQFmW5rXSXFr2ldqDc+bMKbKGnzR5lgBStknQKTUyJfwRsk4G05EwTs5Tv3591VRXarpJc/QvvvhC1ZaTkaxlu0wSaEnIJf1PXnfddaqGqIRQMrK01KSTsKo00kS4PMcbTaGlP0kpY//+/VXzeBm8RxS+Drkvsq+ElHK/CpNQWK7NOJ9cq/SRKaO8l1R+2SY1MSVQltqVMgCQhHwSZJZEyiv3Xkb/tm1CL4GiNGUvqim0nF9qv0rYa9TelEGE5LM3+omU2owShEp/osbnI5Nci4R/tmTQIwkhpSwSCEu3AxJqSi1dmSQ8luOkNq8MRiTkc5KBhyS4LqkGaWnlqOprISKi2s1h4cKFubeOuk1fJEOGyfq/MhIRVbVGvvVVUzmjSV9R/VMREVH5SS0tY5LgQ2oYnjyTDB9vL32PivGpn9/HZHFMm95G9r6V+lLZuHQYDreQp/SlqiPXL7XmJCCS0K4kxr7yb5KMsC01OWXgFNumwdL0Wu6nNNktz79ZUotSaj5KU3ejuXl5lOd4qZEngZoEusU13y7vdRj9Mpan/FJzU4LHksphS0ZXl35KZaCaPn366GvLzrhHErgavysqqqT7LTUz5d7ZPk8SesvI9x9++KEKOCurKq+FKu7c+cr1IXouOUX779EMFxdn7XO09n1rTERElcV/HYiIiIiIKknCSOdmvfWl0sm+1RFgCgkLJAgqLcAUxr4SIK1YsQLDhw9XtQ9tyXlkn/KGEBLiSc26igSYojzHS+gl+5YUHJb3OmT/8pZf9i2tHEJqyEoTaekWQGpiFtdUvTTGPaqK0K+k+y1N5o3nSWpFStml2b4Er7Y1SCujKq+FiIhqJ/4LQURERERUBdxv/D9Vu7I0so/sa08k3JM+ImXAlm+//VZfS9VFmmVL03Ppg/O5557L6xLA3kltTOl3cvTo0WpZ+qOUGr9ERESXApuTF4PNyYmourA5ORFR9biczcltmU/FIDt2DcwJUbBcSFDrZBRyGcRH+sB0atxRrSMisjdsTk5E9owhZjEYYhJRdWGISURUPewlxCQiqqkYYhKRPWNzciIiIiIiIiIiIrJrDDGJiIiIiIiIiIjIrjHEJCIiIiIqgdli0eeIiGovftcRkb1jiElEREREVIKcHLM+R0RUe/G7jojsHUNMIiIiIqISZGVl63NERLUXv+uIyN4xxCQiIiIiKkGO2YxM/nFPRLWYfMfJdx0RkT1zWLhwYe6to27TF8mQYcrU54iIqlYj3/pwdHRUk3BwcFCvZXX4n+P6HBER2crNzc2bLBYLsrOzUbduXfh4e+l7VI6nhztcnJ31JSKi2iE7JwepaRn6UuWcS07Rvn/NcHFx1n7rOqnfucZERFRZDDGLwRCTiKpLZUNMIiIqmm2IaTabVYh58kxylYWYoq67G1zruOhLREQ1m9TATM8w6UuVxxCTiKoTm5MTEREREZWR/LF/ITVd/eHPkXyJqCaS7y75DpPvsqoMMImIqhtrYhaDNTGJqLqwJiYRUfW4FDUxiYioeKyJSUTViTUxiYiIiIiIiIiIyK4xxCQiIiIiIiIiIiK7xhCTiIiIiIiIiIiI7BpDTCIiIiIiIiIiIrJrDDGJiIiIiIiIiIjIrjHEJCIiIiIiIiIiIrvGEJOIiIiIiIiIiIjsGkNMIiIiIiIiIiIismsMMYmIiIiIiIiIiMiuMcQkIiIiIiIiIiIiu8YQk4iIiIiIiIiIiOwaQ0wiIiIiIiIiIiKyawwxiYiIiIiIiIiIyK4xxCQiIiIiIiIiIiK75jRixIgXOwR11BfJkJNj1ueIiKqWh7sbHBwc1CSMVyIiqjq5ubmwWCxISzfB3c1VX1u15D2Iyquq/93nc0gVUV2/P02mTPVMOjk5au8hk/U3L3/vElFVcFi4cGHuraNu0xfJkKF9+RIRVYdGvvXh6OioJsEfdUREVUP+cDYms9mM7OxsnDyTDB9vL32PypNzpx44gLMbNyBl925knjqFXO29iErj4OQE18aN4dW5MxpcMxCe7dpV+DeA8Rye+X0DLuzhc0hlZzyH9Tp1RsNrK/ccFuVccgosFjNcXJy137pOeQEmf+8SUVVgiFkMhphEVF0YYhIRVY/qDDHlnOKfT+YjeUcUmtx4E7yDe8CtaVMVChCVRkJG04kTSI7ajpNrfoZ392Bc9cCDaltZfwsYz2G89hye/nWtmieqjEbXD0FAOZ/DkjDEJKLqxD4xiYiIiIhKYARHB157VZu3oNt7c+F/ywi4t2jBAJPKTJ4VeWbk2ZFnSJ4leaaE8YyVxNhn/6uzGGBSlZFnSZ4pUZbnkIjocmKISURERERUDNuab3UaNkDgQ/9icEmVJs+QPEvyTMmzJUoKkPKew/kfIyV6p5onqiryTMmzJRhkEpE9Y4hJRERERFQE44/5C/v34fyOKARMtDa5JKoq8kzJsyXPmCgqQLJ9Dk+v+1XNE1U1ebZKeg6JiOwBQ0wiIiIiokKMP+JlhPOzGzeqPjBZA5OqmjxT8mzJMybPmrANkGyfQxnEh6g6yTNW1HNIRGQvGGISERERERVB/oiXSUZ/lkF8iKqDPFvyjBnPW2H5z+EefQ1R9ZBnrLjnkIjIHjDEJCIiIiKyYfsHvMxnnjqlRiEnqg7ybMkzVvi5K7ycdfq0vkRUPeQZK/zcERHZE4aYRERERESFyB/v0qxSRpDONZvZlJyqjTxb8ozJs2Z95gqGSLbPIVF1Ku45JCKyFwwxiYiIiIiKwb/j6VIp6Vnjc2gf6rdrp8/VXnzWiMieMcQkIiIiItIVrgVXG2sj5ebk4J9PF+DE9yv0NVbZ589j38xXcHJ1uL7GKuvsWeyfNRNph2L1NZeeKsNrr+LMht9qbcpi+7wVN19bBU2ahMErVhQ7yXb/gQNx3eLFav5y6PCvf6HPW2+p19qs8PNW2589IqpZGGISEREREV3E+MO99v0B7+DsDDc/f5zfsQPm9HR9LWA6cRyp+/bi/M6dsGRm6muB1IMHkZV0FnUaNNTXXFoSYMa+/Ra8u3VHw2sHahfgoG+pbYp65mrvc2gr5cABnNq0qeAUGYmcCxfg5Opq7dJBe26d3N3h6OKiH3VpSZlO/vGHeq3droxnjohqJoaYRERERESFWCsf1d4acPU6dkTW2TPIOHFcXwMkR0XBxdsbmadPISspybpSu/6UPbu1/TvBpX5967pLzLlePbR79t9oPGRILQ4w5VbLsybPnHVZ1Pbn0HB87VrsevPNAhMsFrg2aICknTsR+/nn+p5Wni1bwn/QoCKbdzu7u6PJgAFo1KePvqag0rYXJyk6GtGvv65ea7OinkMiInvBEJOIiIiIyIYRGNXmP+JdGzVWNSvTDh5Uy1IjM/XAATQJGwbnel5I/+cftV6amF+I2QOvTp2RFncYOyc/irTDh9Q2ITXk4j76EAfnzEbmmTOIfvpJ1Rx93ysvI37BJ4j/ZD7+umNMgUn2kfPKfsa8QdYdeP01VRNUzp3400/Y/sD92P7gRGy7dzz++XRhgVqitY3xzMkzeCU8h8Vpe9998Lv2WqQeOYJ9H36InIwMfQvg1bYt+r3/Prr++9/o+/bb6PHSSyqYFK3vvhsDv/oK3adPR4+XX8a1X3yBhr17q229Xn8d1372GUI++si6XTtuwCefqO1NBw9WzdZlH4OxrtOTT6rlNvfco5bltbazfQ6JiOwJQ0wiIiIioiuMU926qN+1K1JiYmDJzla1L7PPJ8OrUyd4tmuH5L+3qRDRlHBCBRkerVuj7lUB8OrSBUmRm/JSDqmxmbInBg2vuTavma/0tdlgwAA0H3M7Woy7G8Eff6KmTq+9Djc/P3h36wZnT0+1b0nObtyIhB+/R5snn0Lvrxajw/QZSNm9C6d/W6/vQbVRi2HD0PLmm5GVkoIDCxeqINNWXe0Zivv6a/z50EOqlmbDnj3R9v774a09u4379sWFw4ex5cknVfjpoj3nre64Qz8ScGvcGBdiY7H58ceRsGED6vr7q7CSiIhqBoaYRERERERXoHpBQarGZdaZM0iPj4dbEz/VV6ZXx05Ii4tT/RFKE/O6LVqijrc3HJyc0GDANdq6HaqfSpGyaxdcGzVU4abhqgkT0WhQKJy9vFQfhtIM3cnNDSeWLYNbs+Zodvud6lwlkdqWSZsj0eSmofDu0RMOLi6qCXzn199Akxtv0vei2kaaiQeMGqXmDy9ZgjNbt6p5W2e2bcMhbZuEm7FffAFTUhK8tWc5ec8eRD72GPbPn4+6zZohOzUV6SdPwq1Ro7xm51nJyTjy0084f+AAjv38MzK1ZffGjdU2IiKyfwwxiYiIiIiuQO7NmsO5bl3VTDxl925VA9PR1RVuzZoh12JGauxB1cS8frfuKkQUHq1aw6W+F85HR8OckYGzf25Eg6uvUWGlwcndTZ/T5ebi9PoIFXwGTHygwL7FMZtMMJ06qWqA2jLKQbWPNAnv8MgjcG3YUAWNR1et0rcUZNu0PHnfPvWsONapo47vOWsW+r37Ljo+/jiCJk9WoagaEEh7zoVqpm+xqPmkHTuQk5ZWplrBRERkHxhiEhERERFdgWTAHI+2bXFy9Wo1ArnUzBRS61JqX54MD1fNxT1at1LrhQSQDa8ZiLOb/lS1MLPPp6hm6SVJjtqOxPBVCPzXv1CnQQN9LeDWtClgyVUDuCi5uUg/elTNSs1Nt8ZNkHYov/9NIYGV0ZSdapegSZPg06ULTm7ciIOffaavvZjR/6Xw7tBBPSuWrCy0uPlm+HTqhIT16/HriBFYN3IkkmNi9D1LZjp7Fjnp6XCwGTjKo3nzyzYSOhERFY0hJhERERHRlcjBAfW7dEVa7EE4ODnCzb+pdbU03e7QQY1K7t60qWpibsu7Rw9YTCbEf/IxvIO7FwgmC0uPj1MD/DQdOQouPr5qEJ+clBTV36aEqDmpF3D2zz9V83F5v/Pb/1bHSY1Q3379cfLn1UjW1uVmZ+NCTAz2/PffSCymhh7VXG3uvlsN5HPh0CGc3blT9VNpO+WNQp6bq/rAbH3XXaqWZdsJE+CmPX/Je/dat2vPtFErU/bxatPGur4UmadPq5rFXq1bI/D229Xo5TI5OjvrexARkT1giElEREREdIWqGxiIOo0aqWbiEioapIam1Lo0mpjbkr4ufXr3hiUnB779Q1RwVJxTv/6q+tyM+9+HiHroATXJiOQZx46qgYKkz8uji7/CtnvuxtEli7Xz9dePBBpccw38b7kVse+8ja13j8W+mS9r79sHjYcM0feg2kKakEv4WL99e3SZMgVdnnmmwNQ8LEztJ89cSmwsAu+8E1d//DF8OndWfWQeXLgQR3/6Ced270aTq69Wo4jLPtkpKeq40qQdP46E335Tz3K7++9H92nTVKgpExER2Q+HhQsX5t466jZ9kQwZpkx9joioajXyrQ9HR0c1CdumS0REVHGqvzt9MpvNyM7OxskzyfDx9tL3KF3hc5jNOdh1373o881SfQ8SCT98j9TYWLR+/IlKN7mVWpjSHFj1TVjEv4lSa9OclqZC1draJ+Zfd4xBl88+h5OTszYVHPTI9jkkK6mFWa91a6QfP64G6bEltTZlYB+p1Vl4ZPPSuDVsqJqkZ54/r/rMtNXmnntw1ciR+GfFCjWgUG1l+xzKb1RjKqtzySmwWMxwcXHWfutW7BxERMVhTUwiIiIiIiqVhInSpFuad0sz74bXXFslfQZKTU9VC7SYkENGMpfanxzUhwwSTkrfl4UDTCHrZFt5A0xhOnMGCRs2FAgwfbt2VU3TpZaoBHEywjkREV0eDDGJiIiIiKhUOampOL7sOxx69x00vn4IvHv21LcQ1V7+oaFofffdaNC9O5J27sSJtWv1LUREdKkxxCQiIiIiolK51K+PDs/PQM/Pv0TT0bepGpJEtd2ed97BL8OGqWn7Cy8gh/1kEhFdNgwxiYiIiIiK5aDCOmlKTVQd5NmyBsIl9RlofQ6JqlPpzyER0eXFEJOIiIiIqASujRvDdOKEvkRUteTZkmesNC4NG+pzRNWDzxgR2TuGmEREREREJfAI6ojkqO36ElHVkmdLnrHS1G3fQZ8jqh58xojI3jHEJCIiIiKyISMQW1/VC+r374+Ta35mk3KqcvJMybMlz5gwnjl5Bi96DkOuts4QVRPjGbN9DomI7AlDTCIiIiKiQuRvdwcHRzg6OsCtVWvU69IV8Qvm61uJqoY8U/JsyTMmz5o8c7a5ke1z6NG2Lepfc62+hahqybMlz1hRzyERkb1giElEREREdBHjL3gHaH/To8Gdd8F06jTiPv4fa2RSpckzJM+SPFPybMkzZvvM5Sv4HDa5ezzcg4L0dURVQ54pebaKfw6JiOwDQ0wiIiIiIp1t88m8Jr0OjnByckTjRx6F2WzBzscnI+HHH5Bx9CgDTSozeVbkmZFnR54heZbkmZJnS56xvOdNU+S8/hw2fewJeF49QG0jqix5luSZKuo5FLbzRESXm8PChQtzbx11m75IhgxTpj5HRFS1GvnWh6OjNA2z/u9I/HFIRFQ1cnNz8yaz2Yzs7GycPJMMH28vfY+ysT1PrsWCHO1ccr6cnGztnDnIio9D2tatSN+3D1mnTzHIpDJxcHJCnUaNUbdDB3j07o06AYFwcXGGs7MLnLRtztrkoP02sA2RSnoO02IPInXLZmQePIics2cBbR+iUmnPmHODBnBt2xaeffvBo03bEp/D8v5OPZecoj2KZnVOR0ftXBU8DxFRURhiFoMhJhFVF4aYRETVwzZ8rGyIabxaLBbt1QJzjtkmRMqBRV61SbbJ7uoYbbIeSWSl/oXPC3Fk1lGFRI4SFjk754VGTs4S9lh/GxT+XcDnkCqrMs9heX+nMsQkourEELMYDDGJqLowxCQiqh4S4BhTZUJMYXsumSREknPKlKv9gW62WNdZwyUjMrIGSER51L/x+WGQ8e+/kwye4uikwiOZjNDIdhJ8DqlKqOep4s9heTDEJKLqxBCzGAwxiai6MMQkIqoetmFPVYSYxqsxqbBIO69FLcu8RdV4M/aF1IazzhEp6l94h/x/72XZ0UmCIu13gLYsNeEKB0fGvoLPIVWFyj6H5cEQk4iqE0PMYjDEJKLqwhCTiKh62AY9lQ0xhREK2Z5XhUYW67yEScb2fNo8EyQS6p/3/H/jjX/vjbDIUWrBOZQeHBnPV/4zyOeQyqGKnsOyYohJRNWJIWYxGGISUXVhiElEVD1sQ56qCDGFEQzZnlv7Pyofsp3PV3CJrnT5/8arOSPQsZ3XJ+uqon8T8Dmkyqma57AsGGISUXViiFkMhphEVF2qOsTce+oYfo3diZ0J8Ui8cA5mvUZGdXHSyu1Xzwfd/ANwfZtuCGrcXN9CRHR52QY8VRViChUSlfCqzTAyohIZYZH1peTX4vA5pMpST1gln8PSMMQkourEELMYDDGJqLpUZYj5/qZVCN/3t750eYR16InHQobpSxVnSk6GSZ8vjpu3N9z0+eplQnKytTQXv6exzQ3e3pemNERUNhLmGFNVhpgiLyjS2M5rS9qyPktUAus/9/n/5tv++1/W3wJ8DqmyquI5LAlDTCKqTta/oImIqMaZvmbRZQ8whZRBylI5iVj+kA98fEqaJmL5MX33CotD+JtzMOfNBYhM1lcV5dhyTCzuPfO2zUGkvoqIaj/bP8IL/kHOP86pdNZnpOBzUjiQLMtksJ234nNIpbN9DmXeeGZs54mI7BlrYhaDNTGJqLpURU1Me6iBWVjlamQmIvzpcZizW19MiEHE7kTALwihXfz1lcGY8sVshPnpixUSiVkOIQdMxh4AAITnSURBVJiOUVh0dBnGFtcS/thijG4xDsuL2i9v20xsyp2G/vpqu2FJwfFtf2PzUSCwW090beMFZ30TLJk4qT03W3amwL11J/Tr1QL1qv1/zszBhdg92LwzHhnenXD1NW3QoI6+SWSdwsGN0dicXhf9gnuibXNXfYPGlICDf2rHJjuhU8+e6BFQRG06SxIObjsKlzbdEOCrrytVGo7viEVKww4Isn2/PNp9it6H47ZVg90ao2tXf+u9LOke02VlG/ZUdU1Mg5w79cABnPl9Ay7s2Y3MU6eQq70XEVFN4ODkBNfGjVGvU2c0vHYgPNu1q9IAkzUxiag6sSYmEVENI31g2luAKaRMUraK8UPYW+uw7hfrtOi5EOvqa6Zjkb5u3S8FA0xpfm40+S5SqmwvvYl6VSqtTKWWubIsCVg7byHejTyF9KwkbFyxEC8v2YMMY9uHH+L1VbE4i0zERy7DjHnrcbKsXaju/hkz5m/Sji2PNEQvmY8ZS7YjPgs4e2AtZr69DNGp+ubUPfj07cX48sB5bf4oln36IeasTbBuO7YRc978xrot6xR++XIh5qzWt9k4ueYHfLB6PdbH6yvKIGP7z5j3w3r8sEs7d5HOI3r9eoRHxWPPIX36Jyn/PhZ3j6lWM8LR+E/mY++M6Tj961qYEhIYYBJRjSLfWfLdJd9h8l0m32nG9xsRkb1jiElEVMPIID726lKULW7FVAxr6wB31aTbHf6hU7HcNsBKjcK821vBoZ61Gbq7f0eMez8Kps2z4KBqYYrlGNdCagWMxuJKN1EHTDvmYbRtmbqMw7wd+WFl8rZ5GNfFP2+7Q9vRmLctvz175CvWGgqjl+zF3iXW65u1Wd9YDsdX/YRw5z54/ok7MP6u0XjikWvQInYT1sr9OXYUiW4dMOGRezDhrhF48LGb0C91J34xar8WkpOaggzbvDUrDRfSM5GjL5ZJylEcS2+MsAkT8KD2nhMeuQMjPI9ibWSStjET25euxcFWN+PlR0Zr5b0D/xnXGRmbf8d27X2PxyfBq+MQ/NfYNrINzm77C3utZ7Y6th6fRgPN6+rLZaFd89drU9DAW18uUgqS0uuj7/AR2nvr0/BOqKdtKfEeU61l/HG//9VZ6g9/IqLaQr7T5LtNMMgkInvHEJOIqIaRUcjtVXWXLXnlZISMmoPw1CCMfWY2pj0SBvf1czC6/1RE6LX7ouZPxOSlcfDrPBZTnhmLIOzF4lenY8FhD4QO6Y9AtZcfggaFasuB8K50O+AozJswGctjtXPeNQVT7goCdi/GzOcWIEpCwB1zENZ7MhbvdkfYI9MwW8qUuhyTe4/DgljrGQxx701E6Fjt+gqtL5sE7IxNQ9feISpsUzx74roOmdi28yjQsg/GT7wJXT31belpSMlxRp3C169qGr6DZ95dhFfefAcz5v+Fk9uX4amV2jmSd+L1l97B66uPYfun72CmrDOY/sb8V+bjR9tHwKsDwiaOxhCjOb5Fe0/tnjg7a29q2YedRzwwoH8bfaOmVR9c1zABf2/PRLMBI/Dg6E5w1zdlpKQhw9nJpmn8Ufz4zT40GTIIXW2bp5coDZu/WY+krjdhUKGm5/HLPsRT2rVeUEuZSM9ygrtzGi4kp+BCqhHdlnKPqVYy/qiPn/8xUqLt939EIiKqKPluk+84wSCTiOwZQ0wiohom8cI5fc7+VG/ZorBgxjwkIhizV8dg0RtTMPODVVj1Qaj2xnMwZ2mc2suUGqVeQx6fjplvLELM3nM4d3QVJo19Eut+mYOJ1q2Y/sXFTdQrxgTTDnkNwZQZMzF7cQz2nj6HhPBJCHZLRvjHU9UAQBOXb9fKOhNTtDJtXzhJWxOO6QsjCjR3j4r3weSIw8jIzsW0fvrKMkvCyZT6aN5UX9R5eXrgQkqKvqRLjcePn29EXPP+COuorzMc2YMtqR3w6H8fwavT7sBd3fxRt/tovD28BeDdDf954Un8Z2hz9OjbBum7d2Kv3hz9wp97EOPbCYMCrMsXsSRh85c/4Q/Hzhgx0Ev7zLTywhfNC/RL6qWVFzh7vmAz74wDv+KDdUnoOCgEbfV18St/xuamgzC+R9mrYWZs+gnL03vi7qF635Y2Aq4ZgodutNa2xIlTWtmS8OOCxfh40Td45e25ejP3ctxjqhWMP+Yv7N+H0+t+VfNERLWRfMfJd51gkElE9oohJhFRDWO2lLUTw0uvWst2bC82qbAwClOD8zuJ7/hohNocvj4KidprUPdJkFxy+UMd4e7QCiFPz0NErG1UWNWCEPyIekc8ECRNxUMw9cMI7FU1Q/ci6kN5BRaM8skrs3vYPLUu8dPIAs2jQ1+ei2mDAuFWodqhTnB2NBVsAl4ECQTnvP09on0HYcq9PfNrFBr8muMq7MP8ed/gx/VpaNy9mMF/OobgBq9Y/PGXDIR3FOt3JKFjzyLOJ079jU/nfIEfszrg0QevR4Ccz9kZLshBeonlTUP8yi/wwjdxaDz0DjzYT68+GfMTPt7XGONHdij7gDpnNuHjdekYMvoaNNFXFdC4DYJaeljn/ULwxMP34Pl/P4gpkx7EG9LMfdNa/JFctntMtYPxR7xF+16TQXyIiGo7+a6T7zzBIJOI7BFDTCIiqmHCMOmN2ZhdeBrkDzdtq/fwudi7cS4mDQ+CH+IQ+el0jB40FeFnrEeXSUM/vdm5pnAnkKYM5PdmKbwR9sFebHpvEsI6+wGxkVgwYzRCnw232S8YY/9bRJmfDtaOzuftaTSeroimCGyYiYNx0t+kIQ1xx84joHkLtZSxfRle+eYgfAffg+l3dUODon4FuHXA+Kfux6N9G+O8GojnJxwsMpv2xYCe/oj5+2+c3b0Tm9EZQ/oUMdL3sfWY89FGJHW4Fc8/OAgBRnP2xv5oXuc0/rFtOm+Jx8FEZwRe1VhbSEP0l1/g3X0eGPXwgxjfK7/9d/TfscgwxeHj/3sHT720GOHajY5eKfPLEK3vU9jJrfsRbzmP8Pmy3zv49LC27q/F2vynWHtC38ng6Ap3P9/88LaVP5rBjIz00u8x1S7yR7xMF/bs0dcQEdVe8l1nfO8REdkjhphERFQzNA9CSHeZSYB3r4mY8swUNU26xhtuncMwcXx/ayCYHIdNF0Iw88cYJGScw7LHtHWJ87BovdTTtFHSCDVuHdFjjMwsx9wvI/PDyJw4LH55OlTdz0eCEaRWam8Zuwnn+s/Eql0JyDi9DNJYPPHDRYhIlFqaskcUTG1H5ZV5ysgguDUPwbjHwvLD0krzQr+rA3H2r7X4I9F6cWc3/YQfE/3Rt7eXtnQUa9cfhVev0ZgQUqhDSBs5hzfhyzVH0aTPIIx/OARdTacRL7dO+rHMykSGBJp6qOncpxv6pezBh2tj0aB7D2sNywIysX3tTpwNGIInhgfk9W9p1QbX9fLA5nU/46C6wVLrcj3+cOyAvh20xfhI/HjYDWHjRqOfZJo2uo5/Em+/YExjEaZ98F2Hy/xodJUdTGk2/VhaNRk6weaYJzGhlbauz1htfgKGSPPwU7HYG29tEp4TvwnzP12P41lqERf+2oeDdRqhuV9p95hqC9s/4GU+6/RpfYmIqPaS77rC339ERPaEISYREdUQwRj33Fj4IQqzQoPQMXQwBt8Qgo79H8DksFDMXG8CcrRtg1phWFgP9JD1T4/D9KVyrB86tpAm337wGyrLyzFluHZ8/+mIKLJpsB9GPT0T/bW5yBkh8Gkbor3XYO0crTDuS0n0+mP2Q2HW0HTbLIS2HYZhvXsg5P7JmHr/dCyT9X4d4e/njdD7redZfn8rtOovZdbOc80wTB4bgolfWvvxrCrOXUfgiX5m/DJ/rqptOHN9JvrdcTP6qdqPKTibatQ+tNZGlOn11afUsQbnxr6oe3gtnps1F8/OWo+4dn0wQEK+zp0wAPvw7ivv4Llv9lkzYMcOuK67s3Zefwy6uqhg9DzOpgAZ2vmesXnPp7601mprMuR2PNQ8AfPflfXz8UGsF+4Yrzc3T9KO1Y43ak5apyJqTV4kE5sXzcfCren6ctnEb1yLj9fuUwP7OLfsgJ5u8Xj3tXe0e/AOZqxJQc/hgxCklavke0y1ifzxLs0qc3O1yWzW1xIR1V7yXSffedbvPgaYRGR/HBYuXJh766jb9EUyZJikjy8ioqrXyLc+HB0d1SSkj8TyGLrwZX3OPq2+f4Y+V3GJS0bDf+xyYMwiJHwrwWW+uBVTMflZmxG824RhyltzMXu4XqcxfjmmPjoVc1brAaFfECa+ugxzJwSp5uamzbMwbOR0REgWqW2buXQ7pg2QLRdL3jYPkybMxOLd+bU4A4dOwcy3ZmJsh/xjCpfJr/NE7bxzMVHf56LzaO879rlFWPBYsCpT5CsOCNFu26jFCVh2l+3VVpAlExmpgLtXEc27yygnNQXZzl5wL3RrclLSAC+PvL4oj6+cj3np1+DVO6T6ZAVlpeFClivqeVaoM9CCLHvw6azd6PbMHehR9MdadiXdxyq4x1T15I9uYzJrf4xnZ2fj5Jlk+HiXr6ascQ75Q17Os/Oeu/UtRParfrt2OH/ggL5EVDHdvvgKTk5O6neq0Zd3eZxLTtG+O81wcXHWzuGUd47ynoeIqCgMMYvBEJOIqkt1h5hyvkYepf/BnpGdhbQsE3zcPeGklSU5Iw1Z5oJNcOs4O8PbzTrYydn0C2UauKcqQsyyMCUnwwQ3eHsXk1SlJiNZuxw3b28VFBZkQnKydrSntq0MuZn1vTTO3vAuocZdaWUqtcw1SE70eny5JwHHYzPRd6LeJNsemBKwN94VQR2KbzJPtVdVhJhyrPEq55Ap+t7xah3VDJ4tW6L1+PFoEBwMFw8P5Gr/dplOn8bR8HDEffutvlfR+r33nnrd/Pjj6rWwHi++iLrNm2PPO+/g3O7d+tqilWffyurwr3+hxc034+hPP2Hf//6nr83XNDQUrcaORV1/fzho/+Znp6YiISICBz/7DDkZGXB2d0fX//wHDXv1kh8SOLFuHXbPmaMfTVeSrp9/qUJMmYzfqOX5rcoQk4iqE5uTExHVMnWd6+Dz258odRrf4zp41nHHm8PuU8udmlw8MEl3v4C8/f3q+ehr7YOEkyWGgZ6yvagAU0iQWLYAU1jfq+QAU5RWplLLXINke/uieZ3GuP7e2+0nwBRu/gwwqYoYTSnZpLIm8e3eHcEvvIAmISFIO3IER1etQsKGDXBwckLbe+5BlylT9D2L5uTmpqbiOMp2d3c4SD/BpSjPvpV1atMmnPzjD/VamNyTthMmwMXLC8d+/lkFl5lJSSr0DJokvTgDjfr1g0/nzkjeuxf7PvgAib/9ptbTlYjffURkvxhiEhHVQuZcS95k1CoStustNuuJysu9ZTcMGX09+rW01tQlqm2sX5HWWp1UcwTceitcGzZE3NKl2PL004iZOxe73ngDf0+bhtSjR9FkwAC0vPlmfW+rRn36qKk4EgLKcVJbsSiyXrbLfqWRWqL+Aweq16KUVpbiJEVHI/r119VrYT6dOqGOt7cKOGPefx+Hv/kGO2fNwqnNm5GeaO3mRGpnQpvSjh3DkZ9+wpm//1brRWllLkpFr4MuP+t3nnz3WZeJiOwJm5MXg83Jiai6XOo+Mfu0aIuXhtylmos/uGweUrPyR7Lxcq2Ld26ZCP96Pnju5y8RdaLgQDN9mrfBSzeMVfMPaMceP39WzZfkUjUnJyIqTP74NqbKNCe3PYfZnINd992rbyV7JiFil2eeQVZyMrZOnaqaSduS8LLdxIk4u3Mnol58UTWxbnv//XBr2FA+eKQdPw5HZ2eYs7Lw50MPwbdrV1VTUYV32r/VmefOISspCS7e3tj15ptI2rEDnR5/HP6DB8PJ1TXvHPs++ghntm5Fr9dfh0eLFmpfOa7TU0+hfvv2KjCUAVTObNumgkcpZ7Mbb0Tb++6Dq4/PRWXZ+8EH6rpy0tJUuYRxrWlHj2Lbf/6DNvfcg6tGjsQ/K1Yg9osv1D6GwDFj0Pruu3EuOho7X331ovvS6ckn0fymm/QlwJKTo5rdS23M4srcOCQEQZMn4/z+/fC86ipkp6Tgz4cfVu9z1a23wsXT2nRB7pnU/Dy+Zo1aJvvX5bPP4eTknNecvLxNwdmcnIiqE2tiEhERERFRjefWoAGc69ZF6uHDFwV1IvXYMWSnp8O9SRN4NGum+oiUWpSxX32FyMceQ+bZs2qbQYJB6UPy2OrVKjxM2rkTnoH6IHKawDvugN+gQaq/S9ku4Z40RW87fvxFtTbb3X+/Cvvily7Fhrvvxj/ffw/fbt1UiCplkaDRqU4dxH7+OTZox6ceOQK3xo31oytH+slMjolBg549ce2XX6LvW28hYNSovDIeCw9HrLberN2zxI0bVV+YEmCWVGaDT8eOSDl4EIe//lrV1rzqlluQceIEtj77rJqyz59H67vugneHSgz+RkREpGOISUREREREtYbFbNbniufdubMKPaVm4aGvvkJKbCwOLVkCU1KS2t6gRw/UbdpUrd/z3nsqVIx5911V89EgAwdZMjNV02uvtm1V35cyOnjdZs1UH5MGr9atUU/bLueQSYLAC/Hxqpai9EMp4aLUBlVlkTKcOYP4b79Vr1VBAt0dL7+MA598opqLewYEoP2DD6L/3Llo2Lu3KnNGYqLqAVFqeyasX486vr4lltlwKjIS22fMUMfIPXN0ccHprVvh1qiRmiQ8rVO/vrpGIiKiymKISURERERENV52WpoKFYvru1GaakuzbxnURmpcSmgnzbYN0jxcQjyh9nV3VwGeQcJACfEMrr6+cKlXD23Gj1dNq2VSwabZrAI8g0v9+qqGaL3AwLz9gh59VPVTKU3GjQDUtvZo8r59MJvyu3+pLDl3/PLl2PLkk1g3ahTivvtOlbHVHXfoexRk1GotrswS1ArbMrtp99RRu79Sy9M4RmqqStcMMqgQERFRZTHEJCIiIiKiGu/05s3WmoZXXaVG3rYlTaeb3XCDqikofUNmnDwJ6aFPmnIbpJ9JZw/rYGUSVkrzattAVM6h+qzUSRiafeECov/v/7Bu5Eg1/fngg9h4772qT0mDNKnOSU/HhUOH8vaTafPkyfhD21/KY8nKgrufn34E1EBBUoNRGOGq9CloNAGXENalbl01X5r67dqh9bhxBa7l8OLF6h4UFy6azp4tsczpNuGvwaSdT67jwKef5u2/YexY1dR+34cf6nsRERFVHENMIqIrWK7UQ9FHn3RxcrbO2HB2ctLnZJwBDlNJRET27Z/ly9VgODKAT5cpU1QY2PzGG9HjlVfUQD3SvPnIjz8iefduFdQ17NVLDUbj1aaN6rvRzddXnefs9u1IP3FCrZfBeyQA7PjEE2qgHsPZqChVW7PVmDHq3A179kSv117D1fPnq6bVhpRDh3Dh4EHUa91anUuajst79XvvPbX/yT/+QGpcnGqmHTxjBlqOGIFW2nap5WmQgXMkuJR+OuV9mt9wg+p/syyaDhmC1mPHouu//40mISHqWto//LA6nzQjL4oEpyWVuShyzyzZ2Wg5fLh6H+kHs8fMmQj53//UwEVERESVxRCTiOgKlpGdpU2Zan5k5/7q1Vbflu31OcCk7UtERGTPTm7ahJj33lPhnIwa3n36dDXCtjTZNgatkSbQ0oxcaiPKfJu770b/99+Ha4MGqnaiQUb5Tk9IQPOhQ3H1xx+rfiElbDTEffMNEtatQ702bdD7jTfQc9YsFTxKkCqBnq0DCxfiwuHDaHbTTRj41VcqjJRzH16yRJVh//z5OLdrF3yDg9Uo5TLCuoSohuNr16rm8jICec+ZM1UNStmnLA5q7y2jg7s3bYruM2aoa5FaqSlaeeQeFKekMhclYcMG/PPDD6jj46Pep+8776iBfyQw5ujkRERUFRwWLlyYe+uo2/RFMmSYrH/UExFVtUa+9eHo6KgmIc3DymPowpf1ubLp06ItXhpyF5Iz0vDgsnlIzSrYx9bL2rbe2j7ivT9/ws/7o1QNzWsCO2JS/6Go7+aBuKSTeOzH+TBbLGq/kqy+f4Y+R0R0aUmNcWMym83Izs7GyTPJ8PEue398hc9hNudg13336lupJpEah1KTUJpin/7rL33txRr16aNei9tHmpm7eHri7N9/F+gD0iBNvGXgGmlKXdL7CKNM0hxbBtQpjrxnl2eeUU20tzz9tFpX0vtIwCgB5z8rVqjwtThyrdJkXpqJ2/b3WZKyltmWvI9Ply6qpqsMiCR9fFLN0OWzz+Hk5KxNTuo3qjGV1bnkFFgsZri4OGu/dSt2DiKi4jDELAZDTCKqLvYWYjprPzC/GTcVdV1c1bJF/+PdSS9flvYH/P1L38fZ9AtquTQMMYnocikcQDLEpJqi/QMPqKBQRvYWzYYMUaOjH1q8WNX4LI40Y/fp1EmNti6vUntSmsvbg16vv66aoe+cNQs5JhMyEhL0LWTPGGISkT1jc3IioitcjvZD8+mVC7Hn5FG17Kj9yDQCzAOnT2D6mkVlDjArw5ScjOQSp4qO0mrC3hULsHxf1Y3yWm1S92L5kkiUrYFgCXJM6p7Z5xVby1bi55lq/cxNOfpyVSrh3lTfM1gBJX6G+rbquD9EdFnIqN4yIJGEmR0efFCNAh6/dGmJAabwDw1VfXo26N4dSTt34sTatfqWy+/c7t3qOvrPm4fWd96pryUiIqo41sQsBmtiElF1udQ1MSWQdHOuo2oVSf+XJQ3PU9+tLlp6N1Lzx86fxXlTmqqZWR4Vq4mZiMW3+2PcUn2xKGMWIeHbscgfu7WMksMx2WcYlr26HQn/DdZXVk7y5gVYsNEfo54JQ6C+riokLh0H/9sjMHNrAqb10ldWxOZZcOi/HYuOLsPY5vo6u2BC5CuhCPkgEIsiF2FsgL7aVvxijOs/BXg5AgseDELZhq0oh2LvTTU+gwXEIfzN5Ui4ZiIm9vPW1xWhpM/w2GKMbjEOPSJzMa2fvo6UwrUoWROTiKh8WBOTiOwZa2ISEdVy0o9lWpYJ6aUEmOK8KR27Ev9R07mM1HIHmBXnh1Efn8O5c/oUPk2tnRZus+7jURULj7zDMFs7Pu6ZqgkwhSkuHFOfjULRY7pWnN+YBdq1xlUuwLRjcUsmYlSJAeZyPDBkCpKfDa+eALNE1fgMFpCIqGenIjzOPuvJUlG0P761P+aJiGo763cdw0Yisl8MMYmIyC64eXvD25h83NU6dx+bdd42kZbe1LasrXvl3G7O+oINa/PhEk5iNGvWF6ufW8HrNJTheku9FlHW+1ZUU2ZjXXFNmMtw7sDh87B37zyMKirAFAFhmL11LxY9ElzmALMs112me6Op2mdQ356qL14SpbxnWT9/uohLw4b6HBFR7cXvOiKydwwxiYioBklG5Juj0crFHT4+PvBx90fHsfMQVWInkpGY5eCA0Uvy602a9i3G1FB/uMs5fNzh3+UBLLDtMzM1CvNubwWHerLdB+7+gzF1RZy2QZocO8B/7HJtfjpC9OZRszaro2zo+z0XYRMEmhDxnL+2/2gsPqavErELMNihB+bs0OalCXGB7Rdf7+CnwyElyXMmArPCWuVdS6uwOYg8p2/LU/p9S1wyWnvv6Vi8cjJC9P3c247GvB0mmLRyDW6hr2sxGNPX297wMnwmxd5Pg34OB+McDmh1u3YdZ/TNRSj8GTq0HVbonJoy3ZvyKny9rTDslQhtbb64lVMx2F/fXk+uRb8f6vMN0Z4cYPlYeRa05+f2xVVSo7fY91RKKbM0T5fn+A/Z7wGEaJ97gWeUULd9B32OiKj24ncdEdk7hphERFRDSH+KYQh5NgFhCzfh8LlzOBw5E6Fxk9Fj6CxElbV2WfxiTBw0Dpv6zUNMgjQTPowFI+MwfdBUhOuhWdT8iZi8sT8+iUrQtidg+8t+CJ+/HJGp3gh9dh2WPR+q7TURcyPWYZ02jWpjPS6fH0JHjkLipxHYZJTLtAkRn0pctRzLNubHVnHrFyOi+ziEdtdX2EhcMgmj3jJhYsRh1Zz5cPhEZLw9DFPzAtkozBk+GNMPhmJupOyTgGXjtWu5f66+XZTnvs3ClPn+mBl3Dgl7l2Faw+WY/Nw4jHsuARNXa/cibh1mBkdg1tjZiFDHle3cxd9P2VrUOT5B2NGpCBk+R7vCIuif4SLPyVi1VztnQgxW3Q8sGhWCcUvLc2/KSy/rW26Yos6p3aeoafD/YjDC3tZLmhyOObfMQcaEVepazsWtwtgz8zBvdRzQZpT2vMzVnhwg9Pll6tlZ92woSugZs2xKes+ylFm36pkwjNvqjYlvTEfoFV4Zx+i7TX9B/ZCrrTNERLWY8V1nfPexH0sisjcMMYmIqGY4thyzZ0Ri1OLlmDuhPwK9vRHYbyLmfvkJwjZPx4K1tnXhihf55RQs7jIXC14dhSA/aSIciLCXZ2Oq3zzMMWrymRIAv0AEBvhp2/0Q/OAixIRPQX9PN/j1CkVIkMROgegxKBSh2hRURODjd81ojEpcgIhIa5JniozAAkzD3LdCsXztJr0WXBSWfxCB4HtCUVSPnX53LULC0VWYNihQNWcOHDodM58Blq/epGrvmdYvw+zNwZj55VxM6if7aGW9ay5mP+1vPYEo130LxtSXpyE0wBt+HUZh6rMTgdXLEfjf2RjbXbsXAaGYNmMm/LTrityt7V7Wcxd7P23O8cWigudYeRgxK6cUeV/UZ+g3E8u/nYawDto5/YIQ9t9lWKTdm8WvLlLBZ5nuTXnpZZ20cIF+Tu0+dZ+I2W9MROTTi6zBrskEqezp3zZIXYt3QBhmRsTgk7sCgYZB2vPSQw0G5R0Uop6d0F5+le/7s6T3LEuZdXHXzETMt7MxcWQw/CpdqJpP/nZ3cJBB2Bzg0bYt6l9zrb6FiKj2ke84+a6T7zz57mN+SUT2iCEmEVENI6ON26tqLduxOCzHKIzuX2holTahGDUEmLdjr76iJImI25UIxC3C5BsGY3DeNBULtNURUXtVuBh81zxMTJ2FwT6tEHL7ZMxZYV1fLs1DMXpMIhas3QST9v82rV2AxPGhmDgoDMGfhiNCan3uiMCiHcEYN6i4QYeSsXflPEy93yjnMExfoa02WZOn5MS92hWFIbRfwcQpuH+YPqcp130LQZBNf5Xe/hK3jUKPtjbnbx6o7aXdLOkbs4znLvF+Gue4ptA47w0DiwyH8z7D4aHoX+Cy3RAyZJx2Tzdh77Ey3pvyUmX1Q8Sbw2yencEY/UaEtjECUfu0F78wTH41FJvubwX/LoPxwLMLECGJc3Uq6T3LUmbduCEhl3gwJXtn/AXvAO1vejS5ezzcg4L0dUREtYd8t8l3nHzX2X73ERHZG4aYREQ1jF89H33O/thz2QoYNA7T/jutwDR38Tqsu7+HNcQJGIVPdiVg0+IpCPHcjnmjOiLonuUS3ZWDH8LummhtUn7G2pR8ioRE3UMxrvsChG9MRtT6RYgaMgmjimhKLqLeDkPHUYuQHDwpr5zjBukbq4U/fIpq21zEoEjlUiX30150xKhHCj470179BOsiZiOsuWx3Q///rsPevaswc2QQElZPx2D/EMzaZlPlsTyKGkjJlFEoVC/tPUsrs5VPPUaYwrb5pOq3VFXJdISTkyOaPvYEPK8eoG8lIqr55DtNvtvkO06+6/K+93S280RElxtDTCKiGqabf3FDO19+1Vq25oEYheVYFlko+oqNwPK1wKTuZakh5YfALn7AVhN89KbgxhTYyB898pr2mmBy9kP/uyZh9sJNiAmfhMQv52FVrNpYZt7XhGFi4gIsf3k5FiROQdg1cvZghN4TjAUrZ2LRF1EIHaO9t3X3QhKxNzISeH4OPnlslF7OEKiW7Dq/wB7aFYUjYnPBgCwqMlyf01TJfStGmc9dwv00zrGx0KA88ZFYvjlRO7Iw/TNcGQG9pb5OarsuArpr96h5Ge9NeamyRiDRuUeBZye0iz98gmy6FTCZ4N1B++xfnotVuyIwd0gkpn8rNXLLQb8vi9YWui+aqJULtFJMRJBtX6zFvWdZy0zFctT+gHd0lGblTnB2dkLjsePQ5Kmn4RESAudGjbQd+HOaiGoQ7TtLvrvkO0y+y+Q7Tb7b5DtOfdcxtCQiO+awcOHC3FtH3aYvkiHDlKnPERFVrUa+9a0/EvU/fMv7v3DvPXUMT/+0UF+yL2/dfD+CGttU7aooGcW5/3TMjMzFtH76OpgQ9VooejwHTFo4B1NGBgH7lmHOUw9gHmZi+/ppCC6yIpmMTh6C7YsTsOwuPzUozLj+4xA5dC4WzRiHIO9z2PvlLIx7fBX6fxuFRWMysCCsFaY7z8Si9yahh7Z9+/uTMXhGIFadm4swbyBx6Tj43x6HaeGLMNnfhIzuQcUEkclYfr8PRn+qzT6zDhlvhFpD0h1z0CN4KqIQik8OrsNEI4xS170di44uw9jmyQh/1AfDoqZh1ZKpCPE2IW71TEwaOw+RYxYh4dux8JPBa/r3wNQz0g/lNIzr4K72mfr0MkQkhujnKdt9k9HJ/cf2wKbcaeivF6dgefR1MpJ1i3HooT6bspw7rpT7WdI5ZmN7ZBH9Yh5bjnG9RyOi90wseGOidm/OYdOnUzHxue0IVZ+hNG8vy72xnq5IxTyDka+EIuQDd0z7YC4mD/LXblwE5j46CbMyJqvrDdo4FR1v2ISwxfMwfaj2VMSHY+aEcdh0z3Zsf0quJAqz/Htg7pBPEK49D0j2QXCHoqq/GvclEaPemIuZ40Pgb4pDxFLtGp5dDr9XtyPiv8HqeTKtLek9g0otc/AZ28/U+u41VW5ubt5kNpuRnZ2Nk2eS4ePtpe9RNnK88WqxWLRXC8w5ZuRo55Tz5uTkwCKv2iTbZHd1jDZZjyQish/ql6b2e9Nay1JmHeHs5ARHbXJ2doaTvGqTk7OT2ia/UY3fp+X9nXouOUX73jTDxcVZBaPW9yxYu5OIqKIYYhaDISYRVZfKhpji/U2rEL7vb33JPoR16InHQobpS5VUZIAkkhH55kSMe3Y5rPXT/BB013Qs+mASgovKgZRCIabGtG8xpj86BXPW6zUI24RhysuzMfOuIGvIeCYCs+55ANPV6M4av1BM+fgTzB6uR5WpUZh3/2hMXirb/TAlPA6zhxaZoCJ5xQPwGbUAU37JwOwhxj5RmBPcA1MbfYLDv0zMD0ALh4bx4Zh6/8S8cvoNmok5Y7Zj3PrReoipKVTWwKGzsegxE0LCbMPH0u9bxUJMWVGGz6S0+1mBz7XIz/CNuZg9Mu9ulvHeFKNcz+BULHhvCvqrWo0m7P10MkY/twB79aIFjpmLZQu1a5GBjDRxK6figYfmWPutHDQXMRGTYNRZLUjeaxImvrU471zwC8LY5xZh3mPBNqOal/aepZT5os+05jICTJkqE2IK23PJJGGmnFOmXO0PdLPFus4achrRpTXIJCKyK+q3Zn4oafwOdZJBfBydVIgpkxFe2k7lxRCTiKoTQ8xiMMQkoupSFSGmmL5mEf4+fkhfurx6NmuNmTeO05cugRwTklNNgJs3vIvODm1cHGIaTMnJMMEN3sWdJDUZyTnyNt56M/OC1PHOWhn0cKq6lFpOTVn2Kd99K6eynLuU+ylhXHJy+cpXZfemvEq9Xv1ains+9OOLvxc2jPfSlLx/2d6zPPe3prENHasixDRejUmFltp5LWpZ5i2q5qWxL6RWpnWOiMhuqF+aDvm/O2XZ0UkCS+33qLYsNTILB5jGvuXFEJOIqhNDzGIwxCSi6lJVIaawhxqZVVoDs6rJoCimcEyuNwznvk3QmxkTUW1lGzhWNsQURjhpe14VXlqs8xJqGtvzafNMMonIXqifmfm/NY3fnUZo6Si1MW0G9DG2G6/lxRCTiKoTQ8xiMMQkoupSlSGmkD4yf43diZ0J8Ui8cA5m/Y/q6uKklVtGIZdBfK5v061q+sCsDnn9Tmr8JmHVrrkI4yAmRLWabdhYFSGmMAJK23Nr/ye/BqY+n6/gEhHR5Zf/W1PNGcGi7bw+WVdV/LcpQ0wiqk4MMYvBEJOIqktVh5hUjJxk7N22HQkZPujYPxh+tbT5LBHlsw0aqyrEFCqsLOFVm2F0SUR2zwgtrS8lv1YUQ0wiqk4MMYvBEJOIqgtDTCKi6iGhojFVZYgp8gJLje28tqQt67NERHbO+rMz/7en7e/QqvhNyhCTiKoTQ8xiMMQkourCEJOIqHpUZ4hpKBhg5ituPRGRvSjuN2dV/hZliElE1YkhZjEYYhJRdWGISURUPS5FiGmLwSUR1VTV9fuTISYRVSeGmMVgiElE1YUhJhFR9bjUISYRERXEEJOIqpP1L2giIiIiolpG/mh2cnSE2WzR1xARUXWR71r5zmVgSUTVhSEmEREREdVazs5OyM7J0ZeIiKi6yHetoyMDTCKqPgwxiYiIiKhWktpAbq4uyMzM0tcQEVF1ke/aOi7WJuRERNWBISYRERER1RrGH8/Gq4uzE5wcHZCenqGWiYio6sl3rFTCdHYyIoaC38VERFWBISYRERER1SryR7NMxiBqnnVdkZNjZpBJRFQN5LtVvmPrurnkfe8a38NERFWJISYRERER1VrGH9Qe7i7aH9k5SD5/AabMLA72Q0RUCfIdKt+l8p0q36113WQ0cuv3LRFRdXFYuHBh7q2jbtMXyZBhytTniIiqViPf+gV+5PF/pSYiqjq5ubl5k8Vi0f7QNqs/sGXKzs5GZlY2csyyXdtXP4aIiMpHfr3KT1hnJwfUcXGGi0t+Lcyk86nq1aiNyd+6RFRVGGIWgyEmEVUXhphERNVHwkvj1QgxjVcJMeXVmGS97f5ERFQ84zervMrvWCcnJzXJvISYxnbbEFPwty4RVRWGmMVgiElE1YUhJhFR9bENJY3JNsg0Jlkv62QyGMcSEVFBtr9Xjd+xss4IMeVVyLoz51LUq3GM7bFERJXBELMYDDGJqLowxCQiql5GGGmEmEaNSyPMNJZtJ2N/IiK6mG0gaTvZhpnGd6gRYgrjlYioKjDELAZDTCKqLgwxiYiqn20waUxGeGkbYhr7EBFR6WzDSZmM37PyanyvSogp+BuXiKoaQ8xiMMQkourCEJOIqPrZBpPGH9a2k7He9pWIiEpmG2IWfjW+X08nnc9bR0RUlRhiFoMhJhFVF4aYRESXhm04aRtYFrWeiIjKxva3q+28fJ9KTXcJMfn7loiqA0PMYjDEJKLqwhCTiOjSKi60ZIBJRFQxRf1+NbrqMGpiEhFVNYaYxWCISUTVhSEmEdGlV1xgySCTiKh8Cv92Nb5H5dWoiUlEVB0YYhaDISYRVZeqDjHNp2KQHbsG5oQoWC4kABazvqWaODrBsZ4/nPyD4dLmRjg17qhvICKqGRhcEhFVDfkda3ynSoDJEJOIqhNDzGIwxCSi6lKVIaZp09vI3rdSX7o8XDoMh1vIU/pSFTIlI9kkM27w9nZTqy65VK0MOVoJPL3h5qyvq0am5GTIJRf1fnnbvLVt1lVERERElx1DTCK6VKx/QRMRUY2Tsebflz3AFFIGKUvVMiHi5SD4+Pho02QsP6OvriZxK+dgzptzsGBzsr7GKvJteX8fzNmmr6hWkZijrreo9zO2TcTyY/oqIiIiIiKiKwhDTCKiGkhqYOYc36ovXX5SFilTlTkTjsWvJeoLC7BgZZw+Xz0Sd0zF1GenIjxOVf2kCrgQvxNrl/2MtX/F40KWvlLJwYVY2fYDflwXi7MFtlWfnKR4bF/9M75cuQkHE3P0tTpLCo7/tR7Llq3H9tgUrYQ2LJk4GbMJPy6RazmKCxZ9fQFpOL5jJ/YeK1+rjYwje7A9OqHg+9mQ+7T9L9tJu5f6NlH8PSYiIiIiqv0YYhIR1TCqD0w7qIFZmJRJylYV4lYuwALt1a9ffwRrr+HvLUeU2lI8aW6dnKovFEFt15tkV5Q6RwknsL7HJQ5Cpcl7SdclzfJle3HJWRU4ufpTzPhyO+KzMnHs79V45d0fEK0+izREL5mPGUtkG3D2wFrMfHuZvq0s9mHZm4vxxyl9sYwytv+Al+d9j19OZALJsfhy/nx8uj3NutGSgLXzFuLdyFNIz0rCxhUL8fKSPcgwtn34IV5fFYuzyER85DLMmLceJwsFmRnbf8a8H9bjh13laC6XugdfL1mLL9fv085dtLjI9fhuSyz2HIrXp1NI0bcVf4+JiIiIiK4MDDGJiGoYGcTHXlVN2eIQsSRcew3G1A8XYdJQbXbHbIRvVhvzRL7ioPoTHTd/OWaF+sNdmlvXc0Cr+5drZ8iXvG0exnXRt2uTu/9gTF2yVw/9IjFLO0fIDLWA5WP91TlHLzFqgVplHFyOB9o6WM/h7o/Br0UWCA3jVkzFMGO7jzv8Q6dieby+EYlYfLu1rLP+SEbkm+PQ0X80Fle2WXhqFObd3goO9Yzr6ohx70fllytZ2z62I/zd9e0urTBa257XYH7zLFUmh9sXY+++xZgapp3rlUh9YznE/4r525ww+pEJePCuEZjwyD0Y5RuHH9cfBVKO4lh6Y4RNMLbdgRGeR7E2Mkk/uJCsNFxIsa3daEZKeiYyyhXApiH+pAmB/e7AfyaOwPjx9+CZEA9E/7ldhYfHV/2EcOc+eP6JOzD+rtF44pFr0CJ2E9bK53XsKBLdOqhrmKCV98HHbkK/1J34Zbc6sZW2/PXaFDTw1pfLJA3bl/2OpLr19eWipCAlFWh79WitXFq51dQHzWRTSfeYiIiIiOgKwRCTiKiGkVHI7VWVlG3Hcsxbq712H4fQ7oEIHROmLSRi7o8RRdY2XPzQaMw93RGhg4Lgpy3HfToakz+1xpimbbMQ1nsyFu9ORGC/UOs+iRGYM1bb/20pqxu8h4Sifxu1O/w6a/toy4Ge1mXDrHtGI6Khtq1foLaUiIjnRmHmemtpkldORsioOQhPDcLYZ2Zj2iNhcF8/B6P7T0VEoZpyq54JQ8izi7G3YEZaIVHzJ2Ly0jitzGMx5ZmxCMJeLH51OhbskHJFYc7QHpi8ZC/ch07CtDemYGznDCx/vAfGzS/UNP/gXEwcNA5zVlesyf7JPXE427IbBjTUV8AD/bQbmr5vP+K9OiBs4mgMaa5vsqQhRSues/PFoySdXPsFnv2/T/HmvA/xlNS+PLEHn760FtE4j/D57+Cpd9fj+OZv8NScX3FcPwbIxPZP38HMlbZhngeCht6BCUP89WXgbGqm9qZOqIME7IxNQ9feIainb4NnT1zXIRPbdmrnaNkH4yfehK7G55+ulTfHGXXyipuGzd+sR1LXmzDIV19VBhmbfsLXKR1wd38vfY3uwM947hXtWlWybEJGljPq1slERnJKgTC3xHusryEiIiIiqu0YYhIR1TCWCwn6nP2pfNlMiPh2tmo6Hvb4KNWUPHD4REzUXhNfW4zwogb4GbMIm3atw7qIGGz6WAJPIHzrXiRr/y9i4XRI3cL+L29CTKR1n7jImeivrYt8egHCk4Mx6Zd1mHOPOgwhzy3COm159nCJQ/MFP68fHxmDdc/ItkQs2LxXe43CghnztKVgzF4dg0VvTMHMD1Zh1Qeh2i5zMGdpwWAwEj2wKOocMnKXYawR7FWQKdUaGIc8Ph0z31iEmL3ncO7oKkzq7obklQswVWquTliG7eFzMfOZ2VgUuQCTtFXhMxYgwjYN3hEHn8fX4fCFXOQ+L3emfE4mpaFJ4/zAUPH2gFf6+bym0IolCZu//Al/OHbGiIGFwjwcxZboNPQdMxkv//dJ/OfGTgis2wkTXhiCrqiPsAefxNtPDEKzPj3RL2cf/jBqRp75G+uP+GJA/xb6ioud3bQMC6OBQUMkuEzCyZT6aN5U36jz8vTAhZQCpQVS4/Hj5xsR17w/wjpaV0kYuTy9J+4e6o8yD1af+je+WpeOIaMHoUnhX11t+mDC8EHoqWp1nsax5Bxs/mE+Plj0PV5790PM0Ju5l/keExERERHVYgwxiYhqGotZn7FDlS1b3oA+/f+/vXsBiKrM+wf+5SbghSBvkGDipQLThHQTylTINXG9NKSbkGVh9a6wtSn6XxP7+0/MXRXd16R920QtBdtMLH3FdU3UNIbWEqMU84YpBYnGRCKDcvmf58w5OAwDDDDAgN/P7tM55zm35xwGePzxXBDgkov0A+lI/wbwHCd2mp/gRzMpCKJ9pOA7JNiwckWMEZmDrL+LDQ1iZgbBRd4BuIyMQJR8ve3IOitnNSjst+r5LvAPMNyjoFwP5OUg47jYykJsgKHLuEj+c9LlY9IOZMG40eW8N1YhYph7dVmaw29YtNzyNPVFf7ja9Ufw3ESknzVEJ3OOJ8pLbAyHh1Imu24TIecWJEFr3D16XDzWLazd+tRSTo7A9RsNTHBz+StsTHgfO2/chzkvPIZ+tWofvTDoLuDI9o14d1cGinsNRh9z3bXtByJsuBsyj34lT47zg/YE8voONmqhaEQETd/7O+IPl2HU7yMwWW5t6wBHez1KjYO4ZpSe/hQJaz5G9p1jMe/ZBw2tNq9k4B9yMHIUestHWeJnHNl8GMUjJ2KcSeBUZn8nBg3zgqu8cS+eeikCb8yPwbzoZ/Dmq6Kb+wHsPGnhOyYiIiIi6uAYxCQiIpuhO5wmT+gjj1UZEYrQEJHCsUx0L5ekbU2vMd6lzNEQAmpJrg02uwtD9IpVWGWaxnrVCFh6dKsvfOmpBGtRewxIfSmKlFWV+6R1yDm8DtGTRDf6XGg3xiF8bGyN1qoBMxfVLtOKWAQYBwjdXZUgWtN4e96JX/Mu1ZhFu/R8Pn7q5WUILucdQMI7h/HzfVOx+IWx6Gc2WOoMvxkv4I3fB6LfNcNEPP+sY46obg8Phn/eCRy5bGiROXb0g7VbRcqT97yP1GuD8Ep0BMbd00XZcRd8e5ThTK7xmJwlyM37Bf28Da05S49tx9J/nsGdoc8gbsYD6K7UlH46+h0uVCpd2//f37DxvJT3nxRpfSP2/Wg4ppYfv5YnJcrLEMdJ54lu77qv8Rdp/S97TGcrcoSrZy9066RsdvVBP7dyXNdb8I6JiIiIiG4DDGISEZGNyMX2dw0hzLA/mAbeFiFimLRjXyJS5ZaPlvBDwB/EMhXrNt+aiEefmYIkOSgajgBlLMxq5fIc1Zbz9kOwKBfy4T48CvPmz5NT9Ch3uNwfhqiZQbB8/hdf+I8ydGNP+kcKcqsDmWIyoDgkiNVhwfBTu6HrcpHxazDid55EfmkRtv9RyitIRPKBArmVppCl94XmVUOZ5s3XwM/FC8EzohFm+tzN0C3oNwi8dgwffHZZbh0pWl1u+fwy/B94AN3EmJX7vsbVfuPwyqR+dQdL9ZdwZOtB5Ho+gHEznsHUvmXI/V4E+QwtJ8WEN1BnCHd5EI/cU4wjyYeR6TYYY/sr+UbK//MZ0q754Omox0yCpm4Y+bAvrv5nH44UGF7w1Yz/xc4CLzw0QnRxv4R9By7BbXg4nguuOehl7wnPYc3//VN1ek66b+/fREjrzxlaWdaalEhy11j82eicNZN8APcH5Lw/T+gltxY9c/wSfhXPpjuFf77zCY4pMy+VX8jGV7o74du3oXdMRERERHR7YBCTiIhsg5jQZ4+09FyEeavVwJua4hEbIUbIzMKqD81P8FObO8JeXGUY//L1YPgOEa06/eEbpIyTuToKYUqE0dPbMJZm6oKJ0jHBiFMm7WlYACJfi4CnVK5lIX7wFy1HfxsM/6DZiAkLqZ78x1JBMxMQ4QkUbI5Efx9/6VqhCB7kgeDXRYk9Ef1GlDxOKMql+43tj4lhgQgU95obibhtYocn/H084T4uCvEjpc1ts9HfL1i+TuiQYEx8ORLBLybXbs3aHC73YWZkIG5+kYL5orXhO1pc95+Kp4NF68dfcLVYtBrcZ9inps0nDOeqXO5E906XsGXNOry27G/YfNkXYaN6STvuw0h/4MhW6ZyVnyDnhuFwv1GD4VhcAv8Hla7eJq4WXQduXMLGvxrd8/9tR7a0z3HoFLwysgL/fnednB9/oAwjf/87jJSDncW4ek1tYXnr3NqtJmu7sOd9LN/byNnCz/4HG3cdxtdiYEt3HzzUtwQfv/U3LJDewfzNZ+D26DiMEV3l633HRERERES3B7sNGzZUTdU8qWySqlTPsaeIqGX0vPMO2Nvby0kQ4xU2xq8bQpQ129TtecN4kI2jR/prvghdXoCAFcdwbL4cqqvpbBImDpqNNERhe+F6eP3dDsGvA5qUfGyfoUzEk7kMdkFx8mQ/+R+K4CKg+zIR0c/FyzOUyzxDMG/1OsTP8LvV1fuaFssmaxB3QBzjCb83UnFscRCylhruEa+twiIRFJQUbA2HV0Qq8EZG9UQ4uTtiEbMgAWnqGJsDw+R7rJpkmM08ZboXIrfVvE6dLqQidk5sjdnCxQzksX9PxLxHjNp1mh7n6YeoN7dj3XPKc+mykDgnEvFbc5RxOaXnmhGH5H9EI0AE7My8q+YqLy4BunaBY1P/RCpaM+od0c3NWclQ6EtQat8FrmpX6wufSs+lR/j/+R38mnqvyjKUXgNcTe/VJJex778/QemUFzC5n5LVZOUo1ZXByV16j0qOsWa/YyIiIiurqqqSl5WVlXIq/PkXeZuIyNoYxKwDg5hE1FJaPYjp5Ao7Z9FVtgpVJVekhdov9xZ5v3QcbpaiqsxkvmM7B9h16S5WpB+OOlRV1P/zsWlBzJan14nJfgAX97on1pGPcXSHexMnuTHcwwXu7vWNfWmhazro5L7DDVxPOa7O59JL+6UHd+kq7W9wbE8bpz+FtG3f4cKVXBTfF2Hokm0TinHheAl6V0/SQ0REdPtgEJOIWgv/jk9E1JHZ2aPz46vRdfpWdJ22FQ6eQ5UdNTk/+Lx8jPOIF5WcW+y79kLX8M3yfoc+w5Xc9kcE+dzrCWAK8jFNDGAKhntYIYApdDWUt8HrKcfVeZSLsr+9BzCF8jvg2cMZ3iN+j1dsJoApuKEfA5hERERERC2KQUwiog7M/g4fOPS817BhZwfX0YsM60TtUVcvBE54HJMfYcCQiIiIiOh2wyAmEVEH1mmwYbgQtQu4XefucOg9RF4nIiIiIiIiai8YxCQi6qjsneDgaQhY6jPWVo916dhnhLwkIiIiIiIiai8YxCQi6qAcug+C/R19UXWjBJWFOSg7vlnOdxz0W3lJRERERERE1F4wiElE1BHZOcBlbJy8Wqn7Xk4VBd8AFWWw79IL9j3uk/cRERERERERtQcMYhIRdUD23QfAvqunvH7j1E7pv1Wo/Pkcqm6UynmuIa/LSyIiIiIiIqL2gEFMIqIOyOnuUYaVqip0GjQBnSesRufHV6Kq8oacbe/aHQ49/eR1WVWlYWnvYFgas5N+Vdgp6+pxRERERERERK2IQUwiog7I0XesYcXODg5eD0hpmJxEV3KZgxPsPfoZ1iUVv1ySl+ZmLrdz6yN3Txeq9EXykoiIiIiIiKg1MYhJRNTBiNnH7d3ukltN3sz5BGXHNtZIFfnH5eOcH5wtL4WqkivSf6pg3+0uOI94CXauHnK+GDuz0/3T5daYVaVXUVF0Qc4nIiIiIiIiak0MYhIRdSR2DnAOekVerdT/An3mWtw4vrlm+uaf8n4RqHT0fkheL7/4OSqL8+T1TkN+j65PfYRus/6NLpPfhuNdgXL+jROp0oF6eZ2IiIiIiIioNTGISUTUgdi7313dilIELEXrSlPlP36Jqspyeb3TsJnyUrTaLPnkJbnlpszOTrqYo7xadf1n6I+swo1vP5K3W025HjqdDnpDUVuZHjk7kpB6qh0Eba/lIHWrFjpls8nU961s2hq9VDadrp7SXRP7W+jz0ph306afW4m+gfdkZfLX5ZqyYUr+mrSD7yEiIiIiahcYxCQi6kAqf7mIkn9Ox7Utk3Az52Ml10RlBUqSp8jHlO6dr2RKyvXQa/8b1zZPkgOapf+aj5Jtkbi2bQZunk6TzrupHNg6stYEw8PDA8FrspScBpxNQ8LKJGibHc2T6NKRqJmN6B05Skbz6TKTpPKlIVfZtpaCPfEIj9Ag8Uslo6m+TJDedxRSDQ1ybUru1kj4eoQh8ZSSYepCCiIH+SF6Wz5giL1bVyPeTaM/t02Wi7SVCUjKrPmBL9gRJd0/AVplu2UVIPVFD3isMX837Rpp34up0lFERERERM3HICYRUUdSWY6qGyVyqk/VzVLDcdLSVNXNElRePYPyH79C5a/5QEXrBi9l+nRsX20IAmWt3o50SxpzXclC7II05NbVKqwx3MOwqqgIufMDlIzm0+emSeXLsnpAx3NaEoqKcrFouJLRwegzlyEyIhcx2nQsGumi5Bq5kIrZ4+ZBJ33tk17wg5kjWk9TPrdNVoCsBbFIy2VLRyIiIiK6PTCISURENke3JwXLCsKwPm09wgqWIWWPFZpXKt18Le3d6uLuDhczrfos7tasbLY8F7i7mwndWfC8DT6LYOl7U7tRK5syNa+urtUWXNtlWDTSitIwb3gd4cl+YVh1NAfJfwiwOIBpyXNb9G5MNPpz21B3a0vffZ0aeP+SpjxnczV0z7YoExERERHZPgYxiYjIxuRi+7tJwHNRCJ8QjqjngKStafW2YNQutYNdUJy0lopIH2ndzg7hW9UzdNCuDEd/J1e5m6+Hqxf8IxKRVW98SYtlNa4B6E+lIDbEC67iGh6u8BoyG0nGY2Zey0Li9P6w6yb2e8DVKxSxO0Tn8QKkTLeDV0SqtB6HYOm6onzLMuWzjCjHvZZuFAjUI/01L+n4cKQYd2U+m4RQu0AkiInmM5eZ7K/9vKFzTbqxX0nHsrD+1c/SPywB2iJlX7WG31vB1nDp3nFI2RWDYOU410HhSDyul1tQhvooeT6hiDtg/MIt+ZrkIm1uKLxclffp1B/hb2UZjf2pXMNOvYYd+k+XnuOKstsM06+h3aCJytfIiEXvxhxLPrfK5+rvaUh6Xv2sSJ+lkFik1Zj4v4H3I3/Ng6VPk/SJjxCfD+kzNT3F6F6lyN8Xh1Av5f0r7844LNjQ51n+npKumSOOm+wPr6XN76CuP56I8EF2t+4pPXeq0XO3RZmIiIiIqP1gEJOIiGzL2XSk7vHEoplhcJf+FzZzETy3JWP3WWW/GX7T9mP/21HSWggWfSitp+9H3Ch3aVsP7dIwBC/IR9iGDJwvKsJ5bTxCcmMQOGEZsoyjOvW5kIKosZHIGJmIk/lFKCo6j6QnchE3NhZpStAs690oxBwOwvqsfGl/Po694Ym0d1OhveaOkAX7sX1xiHRUFNZJZRPl0ww0nHeLJ0Ke0KBgYzoy1HLpM5C+UYSmUrH98K0QVe6BFKQPi0TIMCXDSMHWaGhW6xGVfl4qh/S8aVEoXTMRsdUB2SwkTApF3JkQrNOKY/Kxfab0LM+vU/YLjXlvyzDvXS/E5xYhP2c7FvVIRcxrkYh8LR9Re6R3kbsf8QHpWBaxSulebdm1dbsSMHFNKaLS1OeIgO4fiUqwz9w11iPsUiyCJyVIT2iG8jVM7hqD3TlSufJPYvfzQLImGJHbGvNu6tCIz23GGzFID0iWyp2Pk2nxCMyRnvWNVCVAa8H7GaiRPkPrpE+T9IlfvF3+PO1fECLdVZWE6OVA9AHx/jOw/o+eSH05Coki6C1Y8HmWnZHuMSkJulFxSJrmp2Q2VRYSn4tBRtB6HBP3zD+GeO80JG3TSk8saZMyEREREVF7Yrdhw4aqqZonlU1SlerLlDUiIuvqeecdsLe3l5MgWlE1xq8bRDDMdnV7Pl1Za5qslYEIXB2OjPxFCBIZ+nTE+YYibe4xHKtvjErROi3oGJIvbUeEt5KXl4Jwn0ggJR/bZ3gqmZKzSZg4aDZ8dxZh3aRboZ9bRIu5YBxTztMu9ULw4Tic/Hc0boVNspAQEIi0Oeex/wVfZC33QuCHUdh/IB4hZi4pWi16RQQio0p5LnPk8s6DX3ou4se6QH8gDr4RQNwCLWK+iUbRBg3clfsmPyO9j1el92HuuUX34equ8HqkL3BFaMF25L8vnS+uGZKGGG1GjTEm5fe+wNdwHVj23gzPlItVWccwTwmo6nbMhocmCfP+XYpV45TrS2X0ClqHmKP5WORp4bW3RcJruh7rc7cjqp9yjEr9ur5/Httn+iqZkiu5yIEv/Hoo20bkr2FqDDK00vuvfmzxbnwRui8Wx7Kk927Ju1HfsQnLPreGz1Xcc9uVr6VB7ruh6P9ikPTZiEeQxZ/Zmp9RlbmviShLrGsocpX3ZcnnWbR6DH49DOvP7EZUrYC7SrQe9kLkkAxULa79qZav8U0y8j+MgKd0/WVegdj+wn6kv2EccDWwXpmIiKi1VVVVycvKyko5Ff78i7xNRGRtbIlJRNTe2DsoKzaouWVTJ0aZ4I7SA+lIF0kLeE1A0yZKyctFKjQIDzIKBgkDQ6AZByQet2T28QLkflMA5CYj5rehCK1OsUiSstOzcuQWdAEzEhF1bRlCPfojeHoMEnYY8hvFOwTh0wqQtC8Deul/GfuSUDAzBFFjwxCwMQ3pokXa8XQkHw9A5Ni6Aro65OxKROzzajknIm6HlK03vDxdQY70RGEIMZkkJyAoTFmTNOq9BcPPKMjo7iWCihoEDjK6vrevdJT0skRw1cJre06IQfzYDMz29YJ/yGzEbkxHgTq2o3qNUUYBTKGH+QBm9ddwUohRAFNwQfC4SOmdZiAnz8J3Y04jP7cBQ3xrBPG8+omvZQ5yxZAAVvnM1vyawMUXgU8AqRdEi1PLPs+ycRqEWC1YGICItVHQLQ2Fx6BghM9JQOq36p3aqkxERERE1J4wiElE1M7Yd/NS1mxPc8tmmBhFWtkYg9CQ0OoUs1HKs9YEP001NhKLFi6qkdal7Mf+5wMNE8r002D9N/nISJmH4K7HkKjxh98zqSJ01wieCJsRZehSfsXQlXzeuGC4DAtB5LAkpB3WIetAMrLGRUNjpiu5kLUmDP6aZOgCoqvLGTlW2dkivOBhpuXprZagTdQ1CIv+nSN3t9bcl4+010LhNaoRQwC0osZ+bn09a36fuHTzUNasxfRr4lr769HQ51lwdxVnNuymsqxBj9JflVWF77T1OHkpA8kvB8MjKxHhQ/yMuvJLrFkmIiIiIupwGMQkImpnHLzq6VLdxppXNnVilO0oqqqSuybdSkXYLiZKeXd7zQlqGuLtCw1SsV1rEkoU4xfuA6KHWTKmnid8h3gCR/XwGBuCEKPk29MLgcM9lQCLHnpHTwTNiMaqDRk4mRaNgs2J9Y7laY77qDBEFSQh9Y1UJBXMQ9gocfUAhDwTgKRd8Uh+Pwsh06R7Gw43UYAcrRZYnID1f9Qo5QyGn1FAy9M3UHqiNKRn1owGZmnTlDWJVd5bHRpxbX25O/wmRCH+7d04eWAdQjLjkHxYKrd6jcMmn4YLWqRmFkhfCVPK13BXOrQ1dorWrsnAMOkdeVv4bmqx8ue2Jd+9zNLPsyWUa0nPl35NyVJdkcq7WfrkjvCTjlLo9XDxDkLEH1dhvfYkdv+xACnv7pbejTXLREREREQdFYOYRETtjNPA8cqa7WlW2Y6nInEPEP1E7fHyIOWEPBEN7ElFel1BQUcRUsnA7j1ZKLiQhRzR9dpbg7g3g5AaoUHMRi1ydTrkZiYhZuZspI2MR9Q4c00IawuamYCIgliEP58I7QUddLpcaN+ajdAhIYiWW5LlIinMFb6aZUhX9md8KcJWfvBSuzc7ijDMbql8uSg4nlN3UKtHCMKeK0DiW4komB+GYCV6EzA2EgEbE5BwPAQRY82HMEX3aHdxv327kSaXowBZW2MRt9KwVzYyDLEjsxA3MwaJmbnKMTGIXZ2vHCCx0nszy6Jri7Eq+8N1bAxSjhcYyng0B0UIgFdP6YWo13gmsuY1ZgQj/NVkmOtwHfRcovQ1jINm+jKknZKuWZCDtOXhiJTeTcRr0rsVB1nybkw193NryuJ3L70HTyBjz25kFeQi65TlrZQb/jxbTn6vSEDk5FgkKe8s50ASYqdHQeyJm6H8YUOM6enqi4nL0+Vn0l3IQJZ4JwO9INqhWrNMRERERNQxMYhJRNTOOPTyh9N9k5Qt2yHKJMrWVFn7kpHluQiaOgJk7uM0WOSZhsQdZueeBoZHIOlVf6S/GAgv30DEbBOhLBcELExDxgovpD0fjP4eHugfFId033U4tmcRAixt3tVPuvaBZGguxCPY1wMeYtzLtfnQpKQjaZpoZ+aLqPf3I6Y8CaHK/tC39Zi3cx7ClMfxnBCLddMKsCysP7wCQpC4p3Z7QQN3hEwS807D0JVcXpPIXcql5biIesYEdEfYgt2Y55qEiXI5vBD2rhdi3tYo+4UAzNu1H/GD0hET1F8+JnyzL+I3xCj7BSu9N7MsubYLQl7fjfVD0jEvwEsuY+AzafBdm4RouRt9fdeYZwhImvLWyF/DyGvrMNFPuqaXPyZuACJTM5Asfw0FS95NTc3+3NZi6bsPQMQ/5sF/32wEevVH4BzzwVuzGvw8N4L6Xl1SMVt5Z2IM01SXSGzXSvdQJ0IaGIXkf0vvcUOo/EwevqFYp5+H3QvEbO4Sa5aJiIiIiDokzk5eB85OTkQtpbmzk6tK9/4flP9wVNlqW459RsB1/F+VrTZ2TQdduQvc3U0ibeV66K7pARd3mO6qzfzMz4Jep4MeZq6vku8vbuMuHVWbfL6jVIauSkYLabCcEkuOadx7ayRLrq2X3qc4pKv0Ps2OsyldQz7A8vJZ7d20NEvej3JMXZ+3hljzOQ3XkjTw+W7onjbx7omIyGJiCBWBs5MTUUtjELMODGISUUuxVhBT0Geswc1Tu5SttiFaYLoEv6psdQBiBmx9GmK6TUTRh/lGrfSIiIiIyBSDmETUWtidnIioHRPBw86/WycHEu3v8JZ+qjsoe1qQdA9xL3FPce8OFcA8noBAJzvYdZuIRM9oRI5lAJOIiIiIiMgWsCVmHdgSk4haijVbYpKVleuQ8+Ux5Jd6wD8oAJ7szUpERERUL7bEJKLWwpaYREREKkd3+I0MQchYBjCJiIiIiIhsCYOYREREREREREREZNMYxCQiIiIiIiIiIiKbxiAmERERERERERER2TQGMYmIiIiIiIiIiMimMYhJRERERERERERENo1BTCIiIiIiIiIiIrJpDGISERERERERERGRTWMQk4iIbIZep4NOr2w0xzXpOtK1rHEpIiIiIiIiansMYhIRkY3QIsHDA1E7CpRtM86mIWFlErQ6ZdsMfeYyBHfzQ/SeIrgoeURERERERNS+MYhJRETtx5UsxC5IQ+41ZdvUhRREPbEOvikZSJ7hq2QSERERERFRe8cgJhERdRzeGiTm5CDxicYHMOWu7A31ZdebOUbOq7vrukXXJSIiIiIionoxiElERDZKD+3SYNh5RSLlAqR1O9gFxUn5qYj0kdbt7BC+Ve16roN2ZTj6O7nCw8MDHq5e8I9IRJZRt3P5/OkpyDmVgtjJ/vBaqpXz9WI7xAuu4jwPV9gNCkfi8VtBR8N5iUhdMxFeroZjvEJikSaVKXfbbPSX8zzgOmg2Us7eOq+h6xIREREREZHlGMQkIiIbpEfWmnBo3nZF/I4kRPQD/Kbtx/63o6R9IVj0obSevh9xo9zlY7VLwxC8IB9hGzJwvqgI57XxCMmNQeCEZcgyjhueWYeoSUnQjYpD0jQ/oFyLhGmRyLg/Acfyi1CUfwzrgzIQ81wCtMbnbYvBqtxIpEnHnNeuQ0hOAqLmhiN2sy/W5xYhPysZ0V2TEPlyMnLF8ZZel4iIiIiIiCxit2HDhqqpmieVTVKV6suUNSIi6+p55x2wt7eXkyBaFJKgxTK7YBxLOY9ViENwRC5itOlYNNJoep7MZbALOobkS9sR4a3k5aUg3CcSSMnH9hmeSqbkbBImDpoN351FWDfJXW5RGfx6GNaf2Y2ogcox5kjnhQ6KQ8jRfCwabmiJGfx6FLYXroemh+GQrJWBCFzgIV1rf/W1CraGwyvCBdvzk6ExKkY1k+sSERERdQRVVVXysrKyUk6FP/8ibxMRWRtbYhIRkU3JfXc2QiNSUPBEFCKMA5h1yctFKjQIDzKJHA4MgWYckHg8R8mQjNMgxDSAWZCOpNdjEP7bUISK9GICTqIAKFf2C8P84KsEMAUvbzHmZhD8ja7l6Rso/VcPvXqeJdclIiIiIiIiizCISURENiXrwEkEvRkPzY44xG2VO2dbj7srXJVV2ZU0xASEIu64O8JfXYRFC6X0Bw38ld3VBnnBS1m9pcaVarL0ukRERERERGQRBjGJiMimBCxORdLCRVj1fjBSImLlSX3q5e0LDVKxXatO8qM4m47UfUD0MD8lw4yzWUgs0CBhbTwiJoQgZKyUAho/s3ktLXVdIiIiIiKi2xSDmEREZFN8/XwhOpH7zlyF5GmpiJyTZJgsR3AEPJGB3XuyUHAhCzlXpDxvDeLeDEJqhAYxG7XI1emQm5mEmJmzkTYyHlHjxOQ/dXBxQYC43j7petJ5ugvpWDY3DunK7iZrqesSERERERHdphjEJCIiG+WLiBXJ0OyZjciVWYas4RFIetUf6S8Gwss3EDHbxHiXLghYmIaMFV5Iez4Y/T080D8oDum+63BszyIE1Des5rBoJK0NhlZcTzrPw3c2cmcmYJGyu8la6rpERERERES3Kc5OXgfOTk5ELYWzk1vBNR105S5wdzeJUJbrobumB1zcYbqrXsp5Ll3d4eKo5FlDS12XiIiIyEZwdnIiai1siUlERO1PV/faAUzBUQQ2GxnAFJTzrB5obKnrEhERERER3WYYxCQiIiIiIiIiIiKbxiAmERERERERERER2TQGMYmIiIiIiIiIiMimMYhJRERERERERERENo1BTCIiIiIiIiIiIrJpDGISERERERERERGRTWMQk4iIiIiIiIiIiGwag5hERERERERERERk0xjEJCIiIiIiIiIiIpvGICYRERERERERERHZNAYxiYioHdMjZ0cKtFeUTUvoddDp9MpGU+il83XQlyubV7RI2ZEj5TaCyTm6IylIPdWcMhEREREREXVsDGISEVH7VZCGeE0kNO9mKRkNK9gRBQ+PBGiV7UbLS0WUhwcSvjRsZr2rQaQmHmkFhm1L1DwnC4nTIhH+ZhoacQkiIiIiIqLbCoOYRETUfnlqkFRUhNz5AUpG6wuYn4uioiRoPJUMC9Q8JwCLzhSh6B8aNOISREREREREtxUGMYmIqF1zcXeHi6OyYUSva2S38XJDN/FG9zR3dIG7u4uyYUK5Zq1Lmp7T1R11XYKIiIiIiIgYxCQiIhuhXeoFu7Ak5CrbQu7GibCz88KyTCVD0Kcj1s4Os3fopA0tlknr4VtvdcTWn0pBbIgXXD084OHhCq8hs5FU73iTOmhXhqO/k6t0vHSOa39MXJou5VqmYGu4VMZl1d3TtUvtYDc9EWkbZ1df09UrFLG7bj1ZzXMKkDJdOmdpkzu4ExERERERdXgMYhIRkU0IGhcDzz2pSD+rZCAX6dvSpGUB1u27FeDTH05DAqKhGeuu5Bi5kIKosZHIGJmIk/lFKCo6j6QnchE3NhZpZif/0UO7NAzBq10wT3teOr4I+VmL4PV+KMLWWD7OZi2H4xFzIADJudL1cnYjfsRJJExehtTGTEBERERERERE1RjEJCIi2zAyBDGeaUg9rLRYPJuO1D1hWLd2HgpSM2AIKeqQviMB+EMYgs3EMLWb5yFlyDokvamBn6c73N19EfbGKsR6JiJhh3EbT0VeKla9rkX0hiREj/SVjneH57AorFoRBe3cZKQ3dcLwgolYtToaQf2k690XhkWr4xGCJBw7pewnIiIiIiKiRmEQk4iIbEQQQuZ4Im1butylPPdwKtLGaRA2MwTRx5ORflzK1GUg7e9A9IRg1I5hFiD3mwLpxGTE/DYUodUpFklSdnpWTu0u4nm5SIUn0ldONDo+FOEr0qWd6chqatBxmB98eyjrgrcvxNRDOZc4/zgREREREVFTMIhJREQ2I2hSLALkLuWGruQh00Lg6x6MsD9kIXlfFnSH05CIedCMM9MMUzU2EosWLqqR1qXsx/7nA2F+7hx/aP5Q8/hFb67H/vRVCPNWDmmsQV7wUlZlLq7wUFaJiIiIiIio8RjEJCIi2zEsBJHD0pC6NgGpe0IQMdZXynRH8IRoZKUkI35HIjA/DMFmo5Ge8B3iCRzVw2NsCEKMkm9PLwQO96wdxPT2hQbpKHAMrHF8yBAvePiFwM+4NSURERERERG1GQYxiYjIhgQgJCIAaW8lIm1cBEIGGnLdR4Uh+ngCEjYC88YF19GiEgiamYCIgliEP58I7QUddLpcaN+ajdAhIYjeZqYrt7cGsW8EIWlOOOJ25KBAp0PBqVTETQ9B4BPLkNXUMTGJiIiIiIjIqhjEJCIimxIwLlIeP1LuSm7IAuQu5WJlHsJG1RXClPSLQNKBZGguxCPY1wMeHv0RvDYfmpR0JE3zVA4y5oKgxWnImOuOFI0/vDw84OUXjVTPWGTsWoSAem5FRERERERErcduw4YNVVM1TyqbpCrVlylrRETW1fPOO2Bvby8nwc7OTl6Sdel1OujhAnd3CyOR5XrorukBF3dYegoRERHR7a6qqkpeVlZWyqnw51/kbSIia2NLTCIi6pBc3N0tD2AKjiLgyQAmERERERGRLWIQk4iIiIiIiIiIiGwag5hERERERERERERk0xjEJCIiIiIiIiIiIpvmMGXKlCX3+fkrm6QqL69Q1oiIrKuLq0v1ZD6c1IeIiIiI2jt1ch+xvF7KSXKJqGWwJSYRUSsTlTvjRERERETUXrFuS0StxW7Dhg1VUzVPKpukKtXzr0dE1DLu6t1DWSMiIiIi6lh+/OmKskZEZF1siUlEREREREREREQ2jUFMIiIiIiIiIiIismkMYhIREREREREREZFNYxCTiIiIiIiIiIiIbBqDmERERERERERERGTTGMQkIiIiIiIiIiIim8YgJhEREREREREREdk0BjGJiIiIiIiIiIjIpjGISURERERERERERDaNQUwiIiIiIiIiIiKyaQxiEhERERERERERkU1jEJOIiIiIiIiIiIhsGoOYREREREREREREZNMYxCQiIiIiIiIiIiKb5jBlypQl9/n5K5ukKi+vUNaIiKyrW9fOypr1VFVVKWuty87OTlmzvrZ6JiIiIiJzOmK9pyWe6deS68oaEZF12W3YsKFqquZJZZNUpfoyZY2IyLru6t1DWWsetbL71bEsfLQ9FRnaTFy8dAnl5eVyfktxdHREXx8fBAeNxJPhGjwYGCDnW6MSLJ5JX1aGayWl0OtvoLyiXMpTdhIRERG1AVHFcXRwhItLJ3Tt4goXZ2er1XuEs7k/4HBmNnJOf4/CqzpUVFTK+S3FwcEePbu7w++euzFq5FAM9O0j51sroPnjT1eUNSIi62IQsw4MYhJRS7FGEFOt9C5ctBhbUrbK623l6YgZWL5sqbzenMqveCZRcddLP3/d3Lqgs6sLnBwdrVahJiIiImoKUUe5WV6O66V6FBeXwMXFWQ4CNrfeI2zcugcHjmTJ621l7CMBeG7GBHndGvUuBjGJqKVwTEwionZEVHjV9PSzz7V5AFMQZRBlMS5bY4lzCi5flSvOPn16w92tGzo5OTGASURERG1O1EdEvUTUT0Q9RWyLektT6zxqWrlua5sHMAVRBlEW47IREdkiBjGJiNoJtUIplgvjFuPQZ4flbVsgyiLKZFxGS4ljC68Wyd3Um9uqgYiIiKgliXqKqK+IeouovzS2zqMuN33wL3yTkytv2wJRFlEm4zISEdkaBjGJiNqZr44dQ3LKB8qW7RBlEmVrDFFBFsN3iPEve9x5h5JLREREZNtEvUXUX0Q9prEBvzPn82yiBaYpUSZRNiIiW8UgJhFRO6BWjisrK7Ft+w553RaJsokyCpZU6MUx10quy2NgsgUmERERtRei3iLqL6IeY2mdRxD1pCNffCOv2yJRtsbU5YiIWhODmERENk6tQIqlSFptprxti0TZ1HIK6rI++rIb8iQ+RERERO2JqL+IekxDjOtFIolZyG2VKJtaTkFdEhHZAgYxiYjaCVGJFH8Zv5Rnu918RNlEGS2p8KoV5IqKCnkWciIiIqL2RNRfRD1GrdM0RBwj6klXrv6i5NgeUTZL63JERK3NbsOGDVVTNU8qm01z5mo+Prt4EicvX8Llkl9QUWVoft6aHOzs0avLHfDv5YNH+/pjUHcvZU/TiLFNWgJ/GRC1Hy3Vvfmu3j2UNcuoFWNRoRQV5QH3+it7bNO5707CwcEB9vb28jus6z2KZxLPc/GHn9D/7j5KLhEREVH7cf77H9C3T2+57lNfnce4Ljf71VXKHtu0fk2sRXW5uvz40xVljYjIupodxEzK2o/957OVLdsR2n8oogJCla3Gs2YQU/zC+uabb5CWloYvv/oKP/zwg/zLi4hsk6i09enTB8MffBBhYWEYMmRIoytv9WlMEFP8/FCX4ueGSAPvGyzn2aqzp07I79C4Mm/u/anPxCAmERERtVcNBTHN1eVemJsg59mqd1fPs6guVxcGMYmopTSrO/lfjqTaZABTEOUS5WtL4heVSH/5618x+4UXkLpjBy5evCj/4iIi2yUH1qTvVfE9K753xfew+v1MRERERERERK2vyUFM0QIz+yfbHZBYEOUT5WwLarDj5VdewY4dtjuTMBE1THwPi+9loa0Cmep9RTckW6eWkUFfIiIiIgPW5YiImq9JQUwxBqattsA0Jcopytua1B/2f/nLX/DFF1/I60TUvonvZfE9LbR2hU69n7Xu6+Ptjbl/egXbPkhG3oVz0B45JK+vXrVC3mcN1i4zERERUXvVFvWiHt3vgGbio1i9NEbJaRzW5YjIFjUpiCkm8WlPWrO86g/57Oxs7Pj4Y3mdiDoG8T0tvreFtqrQNfe+IngpgpbC6r+thXe/AZj+VKS8npf3Az78IFk+pjlY2SUiIiIyryXrScaByzVSemLiKJw63fjek6zLEZGtalIQU8xC3p60VnnVH/ai+f3utDR5nYg6FvG93V672IjWlkEjf4OgR0Zj9d/+G9pMQ0vxS3l58rrIEwFNcYw41ibdLEHxNV296foNWxp3uAI/n/oCmZdKlG1JUQ72f56Dn1uzN9mNYiu8GzPPYk2VelwXX8MSvZJBREREllCDlyJwKezY/Zm8FA5/0T56UBIRWaJJQczLJb8oa+1Da5ZXBDVE+uqrr5QcIupIxPe2+n3enkx/MlxeTnsqUg5a1kXsE8cIzW2R2SJyv8B72/bVm7ZlXVUOtgXn8PkXF3H0Pzn4Wc05noOTp8/iZGv9airNwY5te/He3u9Q7OigZDZF7WexnhKc3JeGpE+O4twNJyWPiIiI6mLc6vK1P82U82bOWYacM9/jxWcm4bA2G4VXf0FOE1piEhHZKrsNGzZUTdU8qWxaJmL7GmWt/UgJf1VZs0ypvkxZs4wa0BDLyooKjBo9mrOQE3VADg4OOHzoEOylpZ2dnZynLi11V+8eylrD1ICpSOJnys2bN3Hv4KHKXsuIcS5FF3LRAtM0gKkGNz/8aLu8VIlzRNdy0TKzvqCnOd+dyIaTk5P8rsS7UZMp9Zku/vAT+t/dR8ltgGiJWXZT2TBWipMHjuDoFQf0ezQMkwa4KPltr6JUhzKHbujcSQkgime44QC3Lq1Qxsp8HNpxBNnoi2lPPATPJk/nZ1DrWayiBCc/3Yf9P7lixG8fw8ie1rw2ERFRyzr//Q/o26d3db3HlLm63H/N/5uyt/FE8PLRkQ/IXcV37D6MzzK/xpWrhr+M+t1zN17709N4829bMOqhoXJA83Bm41ti/s/KP1lUl6vLjz9dUdaIiKyrmf+cIWPiF5PoZlqp/IIioo5HfG+L73HxvS6+59uDaU+Gy0FKc8FIb29vOZkSx277KFU+16Y4dYFbV3eT1A3XT3yJo1J92c0/qHYAU+1KbS72qRDBueJrJWhWZ2txDTNdoR1c3WsG/cQzWBLAVLpX19sFvKFns++BEePH4dnHH2hEAPOmoVt3ae2L1noWQe0GbuZ4WYPvvwvufXgMnp3yCEYwgElERGSWuVaXqbs/MxvAFK0vRwUZgphERB0JW2LWoSktMdUgpghyjHr0UWUPEXU0hz/7TP7LtL29faP/Mi20dktMMet4ZuYXtVpbCmqXcTEepqmgkQ9J+1+u7l5uqRZtiWnG9dPp2PL5VenF3o+nx/uhs5KP0lwc+vRrZF+5FT1z6x+AaaMHVh9z/dIX2HnkIgrV2KO9E3re9wAmP+QrHZODHRu/hbl2qG7+o/HsQ1fl/cX974H31dO3uoe7uGHEY2qLwss4tO0Qst3uxx+lsgmFX+zCBye7IPS5EPjLOSYqryI7PQOHLhkFRLv2wujHHsFQDyXIZ+bZOvf2xfhxw+Gt9Ma+fv4Ith3OR7E69qYo15gQjPQy011beodvfa7HiNG9cO5ILn5W4qYOHn0QNj4Y/VzFlumzVKAg61PszC5GmXqPrl4YPyEI93SVytns909ERGT7WqMl5oszJ+G+e+7Gm3/bXB20NFYrgDlyKPwG3Y1/bN6lHNE4bIlJRLaKLTGtQPxCUqm/oIio4zL9Prf173kRjFQn8RFE4FJN8kQ/UlK31e7lgpit3FwrTZtS+AW2aa+izK0vJo8zCmDiJk4eyUJ2sSuGjh2NZ6eNRtggFxSfz8be00rETJybfhGFDt0xcpx0zJSHMLKPlH3yS+zI0kkHDMT4aeOkc9X0CEaI+LO9C/r17y5fQii+cBp5Hg9gmnSPSQ92R+cbxTh6OKuJ40aKsSEP4dClm+h5j7jmOEx7pA963riMQ2lHcE4EC0UX8bQvkS3doN+DD+Ep5b4ozMWOnV+iUL7OWRzMyEdx1z4ImyKVfUoA/DuV4MSJs7gu7zenRCp3HtxGBMvva9JQdzj+8gN27a3jWa5lY//xYkgFlcv5bNg98Cy/jKMnC6Sd1nj/REREJKSmiRaXOrkVpghYGjMNYApPTHyUE/oQUYfEICYR0W0mz8IxLkWXcjE2ps0SE9b8+yKKHbsjNMx0vEcn+I+bgjnTH8Pofr3g1rUXBjzyAPxdKpB38aK0vwInj0nnOrhj9KQQjPCWjrmzL0Y8Ng7Txj2CJx9wl6/RuVaXdQd4B4VgtHG3526+mDT2HnhK9+g3NATjBzgBvxQhrymzj1/5Fkd/rIDbfUF46mFxTXd4DgrGU2HBmDQpGAPEM57NQXaxKMfjmDS0L3oq950R6AYUX8TRC+JColcA4NDFDT3dpfLfORCh4RpEPWYc6K3tzvvHYJJfH/l99XtwHJ64zwUo+h5Z+coBxm5WoFxaON/RQyqDdI/eD2DaDA0ifyNa1Vrj/RMREZEgWl+KIOWRzGw8ETZK7loumAtgilaYAif0IaKOiEFMK1JbY7ElJlHH1t6+10XQ0tv7Vndt0a1cdB8XSZv5Hzmp28ZdzkWrTHNd0G2C3BrxW+SVu2Dob0fDX+7ubOLmVZz4Tzo++PBj/GOrSF/iuxtSvoju4SoKi6VFD28MrXFuF3h6e8HZ5Lfj9dOHsPOkXh5z84l7uii5Bg4e7rhTWRd63iEuqEdRU5pi/lyCYrig30AvJUPh0Qf93AzdwAuLSqT/dsOAgTXH1ex8ryc8UYHCny5LWwMwYnAXVOTn4L3NqUj65BAyvxcPXB8XePetGTzs2b8XOuMmin9VMox5+GGEjxOKT2fg7fdTkfy/Gcj+2WjgSyu+fyIiIoI8BqbaRdwwPmbNAKYgupHvkI4jIuqI+M8Ea2MAU3b/Y5MxdWIQ+irbxvoGjcdUzRjcr2zbjjFYvGkL1j3to2xbR9+n1+CfmxYiRNluqr5B07Fg+RqsW70GKxdMx8P9lB3G+gXhpSXimOVYMM3saHtkLe3oe10EKZsyQc/IkQ/JXcptj+hyrVVaI5q0iqymQ+buQzh0tgTOd/ti5LCBUuoLr07K7sZQuqyLMTenPWQSXJR06eymrBk4O5sZc7LVOcBz+Hi8+LsHMLRfN7j8ehlH0/fivS9FgNNausD/sYl4dtw98O/dBfqff8ChT3Zh1znRXdyK75+IiIiqiVaZIpgpApWF0rppi0tO6ENEHVmLBTEd7O3xSD8/i9Jw74FwceyEXl3vqM7r7OSsXOkWR3sH3O/ZV94/WFqKbVvDEKbBswvXYN3yaExQto1NePkvWLd6IZ5VthsydflHOLD3bbysbLeYWbMxY0wQps6co2RYxx9nTsbDY6bjpVlKRqP54KXNmcjYuhwvz5iMqZrJmDFnOf75aSY+WThGOUaYjve3bcHiWdIxk6fj5Vdimh04pbq1p+/1bR9tl8fFNNc1XLTS1GZmKlu3iGNFS0xxrm2pQMEX6dgvulybaRV5Sz7yi4DO9zyEJx56AEP97pdSL9wKN3ZHT7FxJQ/ZpYYcgxKczv4aF4qVFoVql/WupmNutpA7u0hl1OPCWZP+24U5yDyTL0+g09NDPPOvOHfWaOIfyfXvClAAB/Ts3cuQceMmHHveg9GjxyHy6TCM7AEUnzlrdqIiAz3yLtYci7Lw/GVchwvuNG5qaqTihvR18H4AoePHI+rp4bjHpQIXcr5DmbXePxEREZl1ODMbp05/L0/6oxJdyQ9rs81O/kNE1BG0WBDT2cERi0KmWZSigybAw7ULhnjeXZ0nApqmXJ064emAMfL+yGGPwsXRFlq7GLALecvp3W8ABt07ANZtH2nGpoV4IfpVPDN/oZJhHfPnRyEmeg7mb1IyGuvlNVgwqifKLuzF0hlj4N1vDH6/fC8uVvTEgy8twbuPKcdpxmNIT6BYuxzeAwcg+OnlSFd2UctpD9/7YmzLNX9bi9Wr/qrk3CK6ixtP+qMSx86NXSCfa1MuaeVu3XDtjnvdriI759ta6bQ81bUTRIPI6z/m4tzPOhRf+wHZnx6DONXAAf4P+sKtQodDu9JxNO8yin++iKOf7sPer07j83Oiy3YJTn6Wg7wKN4x49F50vi6uY0jXbyjTd1tbjwcQ5OOA4lNafPD5aRRI9yo4k4EP/v0tjv7ntCEAec/9CHCrQJ72X9iVfRGF1y7jQnY6th4rBtz6YoRopZ2fgaTkXdj06bfyNYp/ykWeeCRXV6NAYm0/f3sQu3J+kJ5RuuZX+7DjlPTCPLwxxMyE+tdP7MPbyWn44IuzUhl0KLx4GVfkcTi7wNkq71+Pc5+lISnta8NkRVe+xrYP07D3griIyT4iIqLbkJjwp0f3O6on++GEPkTU0bVod/KKqsoaSVUl/a/mPpFDtzu5C7pmvPlu0nXyR4im7q7rjXMJn+/eifRav/d98PBEUbYGusAPHWO+/NkH8fFuLcRUFsYM3eonI8Qw9nadXgoaAGcU48vNc/CO9pKUI5XznTl4arVU1q3bsFXtHerhLB0H/JS3Xt68eEEca0Qu32RMCGrxcDDZIBGsvJT3A7RHDtU7WY/Yt+2DZHndJsfDLL2BMnl5FUczc3DITNKeF4MtDsSYYC+4XfsBaZ/sw3vbMnCo2BtDjXuD9xiOaSF90bPiKjL3HcJ7n3yBzB8Az6HBeCpAjA15Ed/9WCH9MivG0f8V17iVtmVdNVzD6lxwT8hojPZxQuHpr7FN3OvID/jZxQvjpzximNgHvfBI2HAMvRO48NUX+GDbIez6SipPT188MXk4eopDvB7CE8O7Az/kyNd4Ly0HeVVuGPHw0HqCmC4Y+pA3io9mSM8oXTNbh/I7+mDS+IAaY36qOg8OxqR7XPDzqSypDPvwwYGL+NnZC4+NHCjttcb7L0JeQQmuF15G/k3py3DlMgpKSpAnmnia7CMiIrodiRaXokXmCzMncUIfIrot2G3YsKFqquZJZdMyEdvXKGuW6+zUCQm/ex79PHrhku4KXkx9W9lzS+jAoYh9dKq8/ocd/4MLRTXH7urm7Cq3wnzAqx+yfjyPN9M/wrUb1c066pUS/qqyZplSvfzPZIuIllhqqqiokNPoMcbdfG8/K/efw4yeWiwd+jTeUfJUL23NwuKgy9jabzzmi4zHluBfq2fi/up/WZfh4sFEvDirDIuzF+Jhk39xn9k2AGPn+2DW6vVYMHkg3ByVHWWXkC5d5xnphiv3H8QMzyysGPwk1iq7X952EgtGOEvnj5HOVwJ8o95GxubxcD24EAGzAnDgwnT01i6H/wxDIDBk4RbEzwpCX3V0g/JCfJX0Z0xZflDeNDznCez5rhcmjJBDBxKp/J+uxlOz18uBy9rPuxD/XDITD3vfGjKhOHszYiYvMdtycur6TKx7rCfObJmEsXEnldyaDPeo+aJEi0z5OfrNxLp35mLqvbf2l53bi6VRc7BJzGIctQUnFwfhp9QlODF4LiYMAL7NuoQHRwzGt5vG4PElRsHQftLX6lPpa3V6M4LDltQKzN4uDh08CAcHBznZ2dlVJ0vd1dtMs7Y6mP58uXnzJu4d3EDkux5z//QKpj2pwbaPUuVu5KIVpghciol/gkaOlPa/jNWi1ebf/ls5o/G+O5ENJyenBt+P+kwXf/gJ/e++NfGQdd3E9WslKHfoAjfXulvvV5TqUFLhhC5du6ClByop/GIXPjjZBaHPhaDekWsr9bh+Xfod16kbOneqo1Q3ilF8oxKOzu7S71klrwbl+e1c4Nal5kRANZxOx1ufl2DopEkY3cOyd1ZNKaf545v5/m+W4HqVi/L8FSgr0cOxi3JMjX1ERERt4/z3P6Bvn97V9R5T5upy/zX/b8pe6xAT/PTo7i6PkymCms31Pyv/ZFFdri4//nRFWSMisi5O7ENtbvFcEcAsxlebliBm7hJsyipD3xGT8ez4E0jfuRPp50RAuRBfpe7Ex1La8x9pM2o5FmgGAud2YsXcVxGzYi8uwgch0cvxEi7hrWNngS7+CK0eSDMaof6GoOGgwDnVrTYffspfWi/ENzs/VHJu6fvSFqx7KQi98w9i7RLpHnNXY0+eGx586S94f5pykOA2GBMGXMbWFa8i7u29OFPsjL6PzUa88THVArBy/mw83LMYn1c/bzHchs7E4pVByjE1ffzeAZyRXsGgp3fh5JGP8P7yuZhh0ppyz9o/I+adLIj2Zxd3i7K+inlr90pbY7AyaSGm3gt8u3W1nB+3STru7vFY/PbCGq1X+06UjvP6Bd8e+QRp0rlflQD3j5mLh5X9wsNzx+B+xzJ89a/bN4DZ3ong5PSnIuWgpQhY5l04hw8/SJbXhaBHRjcrgGl7nNC5q3uDwTgHV+mYlg5gSv9oEYG4En2F/NtX/ftLnexd5LLXG6Tr5CaVu64ApqA8f30BzFose2fVlHKaP76Z79+pi9HzO8BZDWAKNfYRERHdvsSM5Ucys60SwCQismUMYlKbcxP/Bi3/BZeOHcTHqZsR90QAvAePx/y9WrwT9yo+vyyCmL/gtAhWSmnFNmkz6Wn4T56E6eNfxVoR3Hx7DuZ/ekkOKIbMAi4mHsMZOOP+UdHiFsDLY3F/lzJ8my0dc/dgvCh3+Z6Ml37jAxSeQGqqfJQRH/xxehDcSk5g06worNgkAqiJeGHWh/i2vCcejpirHCcUIn35ZMx/eyc2rZiDsZuyUIaeGGi223YW5o8fg8enTcPvl2xWnnezHDAcNHSycoyJwwsxdtoSfJxdCHgGIGRGNFZuPYhzR7ZgsTIe5kXtXnx82dAquey6EuwVXc+jZmPiAGcU7n0Vjy9MlPM3LXkSK44Uwtl/PBaPkk+RORcexDNDx2DKrCV453AiPjgq3U/Mdl4djJ2Ol8QzFWrxgdq8ldolMc6lGO9y2lOR8O43QA5cinURvLS5MTA7DB0yd32MtzamYtf5m3Du2xf3KHuIiIiImkOdsZyIqKNjEJPa3FupWhTCB1PXHsS57Ewc2LQQUxscF1M6fso8rDqShXMnTsrp/ceUoKEIil54G1+eA5z9x8qzmr88yh/OJSeRvukcCh0HY/gs6VjNFHkinMKvP8HH8onGxqOv6B3uPBCzdhuuL6fd03G/o5TtPRiGgQ8k5ZdxRgRWVUcv4ydp4e413rBtaugY/Nfi9cjKVq87Gw+KyYbra5YldzcfCf+BY/D76NXYevQS4B2El1ZswUv1vav7esrj3/Uc8/atZ5BSfJB4OB/4GI16cPHrzTW6s29NEuN49sTD09VA8HQ8LJ12UbseWw05RGSxbggYFYDRI/0QOm4cosaKcSNtiO9DeHbaaIysYxZyIiIiIiKitsYgJrW6O1xujQUpXHznaUyZuRxbtSfwU7kbBo2ZjXWpW/CSst+cvosTkRA1BoOcL+HzvXuxR6STxnPUXsJbh08oXcoNXcnLTmdgReon+EY67P7fRGFG2GD0lI778r2dyjlmFJ00XNsoidaMH+8VgVfF9WLUGL318C+GiUfMmo73k5Zg6oheKD1xULmmFmfERLwWEZMPJWL+tDF4Ya9UgjuD8FR9L0pWhjPams+wZ7ehtWb6KeUQSdl1rbKmOPwqPjhaBueA8Yjv54P4xwPgXH4C6atNjiMiCzjAuedADPW7H/7e7rW7Tbc1py5w6+oGZ9YKiIiIiIjIRvGfK9Qizl4uBtwCETbXpEt1v4UIEWNTFubhmJIluiz7lKzH/BmTERzoj2fk4Jw4V9lvxgR/HzjjEvZMm4xnlG7mW3+sOcnTxU3H8G25M+6fMdPQlfzwail3J1K/lq5/zxj88YGeQN5JbDpsOL6mvbgoopQenaBba7i+Ia3GN0WX8en69fjccGAjBcBHum2xNhHBM+Yo1zwhj2VpXhBeStyJrP1vY4aSozpbYsGkVqcKpWs7wx1ao2eQkvYydNnvGrrm12Pth1q55WpI3BLp6waUZe1FnJgMiIiIiIiIiIioFdlUELOsXEx6YNDZqWZrPcHezg5O9ob2KxWVVRD/I9v0ztv/wpkyZzw4ZycOvDMXszST8fKSJBzYORv3O5fhzKdql+S5+GT3Fvxzy16smzMZUzXR0AwUHaCL8YsSLCsrF//1wcPvRGPWkoVy9+mfSkRbx14IXBgtnTNZyt+CdWp3ctWFJHx5GnD26il3Jf9cxDAlH6edQKGjj9xdXHShNh+MvIS3PtSi2HEwZm3biZVK2Vbu3IbFUbPx5tLZynGNVSw/j9u9jyN+luGa6/bONHQnN0srHeyDngPGI177kVKOmVjwzk58MlF63rITSDed/t1Y0nrsPleGnmOWIGOT4eswa0ESMuJnY9bCNVhpNCamWdvW43Pp69D3sTHyBEiff5hoyKc25ehou5OZ2HLZiIiIiGyBg73ttiWy5bIREdnUT6js/FtNvH7nP0IOWhrr0dkNPu495HV9+Q2UV1TI62SDDi/Es0t34kyxGwaNj0b86jVYMGsMBnUuxrdb/oxnF6pdklfjj8v34ozDQExdsAbrVs/F1AHAxU/XI06ZbGfTe5/gWzHj9/i5iJ81G8/OH4+P49cjPQ9y3jrp2vGzAqE7Ztqi8RL+8Z8T8prclVxekyhdysX+Ex/U3TVadHOPeUeLi26DMUMp2wx/N3lMyJiZ65WjGms5VmyRyukWgFlLlOe984QcKKzLOzMjpXdxFmU9A5RyLMHL4wejZ8lZfLw0GkvrbRl5EPOjluPj78rQd4zh6xA/Zwz6yufOxnyzrVCNabHioOEd4oIW7zTQcpNanp30c7FPnz7Klu0RZRNlJCIiIqLaRD2p+52i0YZtEmVjXY6IbJXdhg0bqqZqnlQ2LROxfY2yZrnOTp2Q8Lvn0c+jFy7pruDF1LeVPTV9GDkf3Zxd8WtZKZKzDmFnzlFUVVVhiOfd+P3QR/Cg9wD5uPe+OoB/Zh+R91kiJfxVZc0ypfq6RzU0JcqgpoqKCjmNHmM0Y8pt7v7HJkNuXFlWiGO7xWQx5hmOK0Phsb1mgno+eHhiAHqWncXHn55U8oC+QeMR6IU6zrEW5d7OxTibehDfKrnN448QzUC4Fdd8noao77IsP8sw+3hjDB2DqdLJjT2375KdyJg1GN9uGoPHlzTynh3UoYMH4eDgICdRyVOTpe7qbfhjjCVMf76Ul5cj7vUl+PCj7coRtmX6k+GIf2MJHB0dG3w/6jNd+vEn9PO5q1HvkIiIiKitibrMhUs/wueu3tX1HlPm6nKbP/w3jiiNLWzNI78ZjJnTf2tRXa4uP/50RVkjIrIumwtiTrxvOGKCw5QtoFL6YV9ZVQlHpRu5IPLCt/wV+ps3lJyGMYhJ1BhBmDoNOHZ0IOK3LkGIWxZWDH4Sa5W9t7u2DGKKdPTLrxAx81nlCNuSsvk9jBj+oEXvR30mUdH17NUdnZyclD1EREREtu/GzZsouHxVrtup9R5T5upyp89dwqq3bbOLU+ycabhngE+z6roMYhJRS7G5AS/2nTmOrccP4+fr1+Rt0aVcDWDeqCjH0UtnELl1daMCmETUSNNm4/+u3IKMg0sQ4lWGMzsTGMBsQ2qlUV0Oe2AongzXyOu2RJRJlE0wLXNdxH7nTk64XmrBRFVERERENkTUX0Q9xpL6jvHSt68ngkf4y+u2RJRJlE0wLTMRkS1otZaYDtIPv4E97oKrUyfoy2/i1OU8ZU9tInDZ547u8Ozqgb7uPeTBhQt+1aGw5Bd8X1SI6zctbyWpYktMosbwwcMvRWHGvc64qN2MFdss7/J+O2jtlpjqsrKyUv75cvPmTTm9+IdoaDO/kPe3taCRD+Eff0+Ek5OTnMS7sZd+djdUARbPVHK9FEW6X+HTp3ej3iMRERFRWxF1s0s//AQP927o0tlVrveYU19dLnHDTnx3ru5/F7emewd4I/r5yY2uy5nDlphE1FJaLYjZ1hjEJCJraesgpnHl941ly5G642P5mLaieWIqXl+0sEaltzFBTPE8V4uKpXPs0bO7h7KHiIiIyHYVXi2S6jCV6O7hVl3vMaehutw/PzmEzK9Oyce0lZEP3offTxndpLqcOQxiElFLsbnu5EREdItxhVGsi8qkSKJiKQZcX/zan5H0j7/jiSmT4ePtLee3NHEPcS9xT3FvUQZ18He1fKblrov6TB53dMWNGzflfxColX0iIiIiWyPqKaK+Iuotov5iWu8xZVonUutKal1u+uRHMWfWRPwm4B509+gm72tp4h7iXuKe4t6iDE2tyxERtSa2xKwDW2ISUV1asyWmoAb1xFL9C75xdyT1546ar/48agnqs6qVbzUZdztSl+o7aejdGP/sLPrlV+kfBeVwc+uCzq4ucJIq1I15t0RERETWJuoqN8vL5TEwi4tL0KmTIzzu6FZdD7KkrqMuO2JdzhRbYhJRS2EQsw7NDWKGhIbKSyLqWESlLn3//uoKn1oRbEzlrjlBTOOfNWrlV00iX+SJZI56HUvV9UyiUqtWbNX3IJJa6TV9J3Vdx5j6TCLpy27IP4NFMLOiUjyXchARERFRGxBVGQd7Bzl46eriDBfnTtX1H0vrOepSTaLO05HqcsYYxCSilsIgZh0aG8QUjH8JRT79NPLybGOQZiKyHm9vbyRv2VKjsic0pnLX2CCmoP6cEUu1giuW4ueNWtlV96nJlLm8+ph7JrVCqya1EqxWeNUKsUjq8ZYS5VOfxfh5iIiIiNqaWr9R6z5qncdSap1Grd+odZ2OVJdTMYhJRC2FQcw6NDWIWSn9EiqX0sqVK/G/u3fL+UTUcfxu4kTMnz8fjiKA2YpBTEH9WaNWbEVSK7zGFV/1mJZgXKEVSa3oGld4RVKPaSzTZ2ip5yAiIiJqDNM6TlPrOepSTR2tLicwiElELYVBzDo0OYgppfLycmRnZ+OPL78s5xNRx/HW2rUYOnSoPPi5qOyJJDSmktfcIKagVnKNk5pvvLQ200qtWJomlfF6U7TUMxARERE1hTXrNmLdNKn5xktrU5/BeGmaVMbrjcEgJhG1lCYFMWem/jcqqsyP02GLHOzssVnzirJlmaYEMcVSBDFFlwAxQHNCQgJ2p6XJ+4io/ZsYFoZ58+bVGPhcrdw1ppLX1CCmYFyhNf7ZYy6/pZhWbs29g8a8DyIiIqLbxe1Ql2MQk4haiqEJUSP16nKHstY+tEV5RXDjlVdeQWBgoJJDRO2Z+F4W39Nqy8u2YlrRVJPaKtR4vaWS6f3UZFwmIiIiIqrNXL1JJHP1rJZKpvdTk3GZiIhsUZP+Ne7fy0dZax9aurzGP+TVH/oiS7TUejM+Ho8//riyl4jaI/E9LL6XDQOe167cGa+3FtP7q8m0MtoSyVyFVzBeJyIiIqK6mdah1MS6HBFR3RymTJmy5D4/f2XTMt06ueLghW+VLds364Gx6N65m7JlmfLyCmWt8dQf/nI3AGn1NyOGY9gDD0i/LBxQev06rpeWtngXASJqOhGs9PL0RPDDD+O/XnoRkydNgqPShdzBwVEJZtasDDZGt66dlbXmqev+xvktkYzVlU9ERERE9aurHmWc3xLJWF35zfFryXVljYjIupo0JqaQlLUf+89nK1u2K7T/UEQFhCpblmvMmJiCGpQUy8qqSlRVVsljY1ZUlKOiXMxYLi0rxMQ/FdUzz8Hwf3GW/F8iaktS5c2wkCtx4i/U4g8PDg72cBSBS0ejAKa9tN/O8Bds+ZRGVvqaMyYmEREREZEt45iYRNRSmhzEFP5yJBXZP32vbNmeob3vxp8f0ShbjdPYIKYgApPGSZ3kxxC4NAQ15QCmSIYTGL4ksiGGIKYhmGknBzHt5aClvQhaygHNW5P5GKfGYhCTiIiIiDoqBjGJqKU0K4gp2GqLzKa2wFQ1NYipLo0DmWpSt+XjxH75aCKyJdWBTCmpAUtDq8y6Bz9vLAYxiYiIiKijYhCTiFpKs4OYwpmr+fjs4kmcvHwJl0t+QUVVpbKn9TjY2cuzkItJfB7t649B3b2UPU3TlCCmIAcolWXtJIKZhnXpPwxiEtmgmkFMsazd8lIkw2GND2AKDGISERERUUfFICYRtRSrBDE7Ir2+rMlBRjlIqSzlJK4kxy2VAKayj4hsk3GQUl6X/2+dAKbAICYRERERdVQMYhJRS2EQsw76shvNCjSaBivNBS+bc30iahnGwUnTgKU1ApgCg5hERERE1FExiElELYVBzDrcuHETFZXN6xZfX8CSAUwi22UapDTebm4AU2AQk4iIiIg6KgYxiailMIhZh/LyCtwsL1e2mseSgCWDmkRtx5LApDWClyoGMYmIiIioo2IQk4hair2yJBNiQg9rEcEPNdXF+BgmJqbWTXWx5BgiIiIiIiIianlsiVmPmzfLUV5RoWwREVkHW2ISERERUUfFlphE1FLYErMeDg72bIFFRERERERERETUxhjErIe9vT0cHR2ULSIiIiIiIiIiImoLDGI2wNHBAU6OjsoWERERERERERERtTYGMS0gWmM6OTmyazkREREREREREVEbYBDTQqJFZicnR3lJRERERERERERErYdBzEYQY2SKFpnOnZzkLuYO0jZbZxIREREREREREbUk4P8DdN8X2wQ0/JIAAAAASUVORK5CYII=;" vertex="1" parent="1">
          <mxGeometry x="-239" y="110" width="1329" height="636" as="geometry" />
        </mxCell>
        <mxCell id="pWcUt39RzA9FzfWdkDk0-2" value="&lt;font color=&quot;#000000&quot; style=&quot;font-size: 27px;&quot;&gt;2&lt;/font&gt;" style="rounded=1;whiteSpace=wrap;html=1;fillColor=#dae8fc;strokeColor=#6c8ebf;opacity=40;arcSize=5;fontColor=#A9C4EB;" vertex="1" parent="1">
          <mxGeometry x="-160" y="170" width="260" height="510" as="geometry" />
        </mxCell>
        <mxCell id="pWcUt39RzA9FzfWdkDk0-3" value="&lt;font color=&quot;#000000&quot; style=&quot;font-size: 27px;&quot;&gt;1&lt;/font&gt;" style="rounded=1;whiteSpace=wrap;html=1;fillColor=#d5e8d4;strokeColor=#82b366;opacity=40;arcSize=20;" vertex="1" parent="1">
          <mxGeometry x="-235" y="199" width="60" height="481" as="geometry" />
        </mxCell>
        <mxCell id="pWcUt39RzA9FzfWdkDk0-4" value="&lt;font color=&quot;#000000&quot; style=&quot;font-size: 27px;&quot;&gt;3&lt;/font&gt;" style="rounded=1;whiteSpace=wrap;html=1;fillColor=#f8cecc;strokeColor=#b85450;opacity=40;arcSize=2;" vertex="1" parent="1">
          <mxGeometry x="120" y="170" width="680" height="500" as="geometry" />
        </mxCell>
        <mxCell id="pWcUt39RzA9FzfWdkDk0-5" value="&lt;font color=&quot;#000000&quot; style=&quot;font-size: 27px;&quot;&gt;5&lt;/font&gt;" style="rounded=1;whiteSpace=wrap;html=1;fillColor=#e1d5e7;strokeColor=#9673a6;opacity=40;arcSize=5;" vertex="1" parent="1">
          <mxGeometry x="816" y="171" width="264" height="569" as="geometry" />
        </mxCell>
        <mxCell id="pWcUt39RzA9FzfWdkDk0-6" value="&lt;font color=&quot;#000000&quot; style=&quot;font-size: 27px;&quot;&gt;4&lt;/font&gt;" style="rounded=1;whiteSpace=wrap;html=1;fillColor=#ffe6cc;strokeColor=#d79b00;opacity=40;arcSize=21;" vertex="1" parent="1">
          <mxGeometry x="120" y="675" width="680" height="63" as="geometry" />
        </mxCell>
      </root>
    </mxGraphModel>
  </diagram>
</mxfile>
